<svg width="60" height="60" viewBox="0 0 79 86" fill="none" xmlns="http://www.w3.org/2000/svg">
<path d="M50.1936 6.71141C32.8874 14.8951 29.8165 16.3393 26.0854 18.0667C24.5069 18.7746 21.4073 20.2471 19.1974 21.2948C16.9875 22.3143 11.8788 24.7212 7.86078 26.5902C3.84275 28.4591 0.398717 30.1865 0.197815 30.413C-0.203988 30.9227 -0.203988 30.9227 2.26423 36.0199C3.32614 38.2003 4.61765 40.8905 5.16296 42.0231L6.13877 44.062V64.7053C6.13877 80.3648 6.22487 85.4053 6.48317 85.6602C6.74147 85.915 15.1506 86 42.5881 86C62.2478 86 78.4921 85.8867 78.693 85.7735C78.98 85.5752 79.0374 81.0728 78.98 64.1673L78.8939 42.816L45.4007 42.7311C23.3876 42.7028 11.8788 42.5612 11.8788 42.3913C11.8788 42.2214 11.9936 42.1081 12.1371 42.1081C12.2519 42.1081 17.0162 39.9277 22.6701 37.2658C28.3528 34.604 33.8919 31.9988 34.9825 31.4891C36.1018 30.9794 39.8903 29.1954 43.4491 27.5247C47.0079 25.8539 54.6996 22.2576 60.5257 19.5392C66.3806 16.7924 71.4031 14.3288 71.6901 14.0456C72.2354 13.5359 72.2354 13.4793 70.5995 10.0529C66.8972 2.23727 65.7205 0.0568314 65.1178 0.000190735C64.8021 -0.0281219 58.0862 3.00183 50.1936 6.71141ZM66.0936 5.63535C66.9259 7.39102 68.0452 9.74136 68.5618 10.8741L69.5376 12.9129L67.6434 13.7624C66.6102 14.2438 65.6344 14.6403 65.4622 14.6403C65.3187 14.6403 64.3716 13.904 63.4245 13.0262C59.1481 9.09007 56.3355 6.3716 56.4503 6.25833C56.5938 6.11674 64.2281 2.49212 64.429 2.46381C64.5151 2.46381 65.2613 3.90799 66.0936 5.63535ZM59.1768 11.3838C61.5589 13.5642 63.4532 15.4615 63.4245 15.6031C63.3958 15.7446 62.707 16.1411 61.932 16.4809L60.497 17.1039L56.0198 12.9695C53.5516 10.7042 51.5139 8.77857 51.5139 8.66531C51.4565 8.41045 53.896 7.30607 54.4126 7.36271C54.6709 7.39102 56.8234 9.20333 59.1768 11.3838ZM54.3552 13.7624C56.7373 15.9995 58.6028 17.9251 58.4593 18.0383C58.3445 18.1516 56.5651 19.0295 54.5274 19.9639L50.8251 21.6913L49.7918 20.8134C46.9218 18.3498 41.6123 13.1395 41.8706 13.0262C42.0428 12.9695 43.7074 12.1767 45.6016 11.2422C47.4958 10.336 49.2752 9.59978 49.5335 9.6281C49.7918 9.65641 51.9444 11.5254 54.3552 13.7624ZM44.5684 18.2932L49.0169 22.5125L47.4958 23.2487L46.0034 24.0133L44.798 22.9656C41.9854 20.4736 36.848 15.6314 36.848 15.4615C36.848 15.2632 39.4024 14.1306 39.8616 14.1022C40.0338 14.1022 42.1576 15.9995 44.5684 18.2932ZM39.5746 20.502C42.0141 22.7673 44.0231 24.6929 44.0231 24.7496C44.0231 24.8345 42.2724 25.7124 40.1199 26.7035C36.4749 28.4308 36.1879 28.5158 35.6139 28.1193C34.5807 27.4114 26.9464 20.0772 27.0899 19.9639C27.377 19.7374 34.6955 16.3676 34.9251 16.3676C35.0399 16.3393 37.135 18.2083 39.5746 20.502ZM29.673 24.9761C32.1125 27.2415 34.1502 29.1954 34.2076 29.3087C34.2363 29.4502 33.5762 29.8184 32.6865 30.1865L31.108 30.8378L26.6594 26.6468C24.2199 24.3531 22.2109 22.4275 22.2109 22.3709C22.2109 22.286 24.8513 20.8984 25.0809 20.8701C25.167 20.8701 27.2334 22.7107 29.673 24.9761ZM24.8226 27.2415C27.2621 29.5069 29.2712 31.4608 29.3286 31.574C29.386 31.7723 21.9813 35.3119 21.4934 35.3119C21.2351 35.3119 12.5102 27.3264 12.4815 27.0433C12.4528 26.8734 19.7427 23.2204 20.2306 23.1638C20.3167 23.1355 22.3831 24.9761 24.8226 27.2415ZM15.983 32.7634C17.705 34.4058 19.2261 35.765 19.3696 35.8216C19.5131 35.8783 19.6279 36.0199 19.6279 36.1331C19.6279 36.4446 16.9014 37.6623 16.4996 37.549C16.0978 37.4074 7.63118 29.5635 7.60248 29.2803C7.57378 29.1671 8.26259 28.7706 9.09489 28.4025L10.5873 27.7512L11.7353 28.7706C12.3667 29.3087 14.2896 31.121 15.983 32.7634ZM11.9649 35.8216C13.5147 37.2942 14.7488 38.5401 14.6914 38.5967C14.4905 38.795 7.86078 41.8249 7.63118 41.8249C7.51638 41.8249 6.94237 40.8338 6.36837 39.6162C3.95755 34.6323 2.69474 31.8572 2.69474 31.6307C2.69474 31.4891 3.38354 31.0643 4.21585 30.6962L5.70826 30.0166L7.43028 31.574C8.37739 32.4519 10.4151 34.3491 11.9649 35.8216ZM15.1219 50.2918C16.3274 53.3784 17.3319 55.9836 17.3319 56.0969C17.3319 56.1818 15.3228 56.2668 12.8833 56.2668H8.43479V50.4617V44.6567H10.6734H12.9407L15.1219 50.2918ZM18.4512 45.1381C18.7382 45.7044 22.7849 55.9836 22.7849 56.1818C22.7849 56.2385 22.01 56.2668 21.0342 56.2101L19.2835 56.1252L17.1597 50.7449C16.0117 47.7716 15.0358 45.1947 15.0358 44.9965C15.0358 44.7699 15.5524 44.6567 16.6144 44.6567C17.8198 44.6567 18.2216 44.7699 18.4512 45.1381ZM30.821 48.9043C31.682 51.1697 32.6865 53.7465 33.0309 54.6244L33.6623 56.2668H29.1564H24.6504L22.4979 50.6883C21.3212 47.63 20.288 45.0248 20.2593 44.8832C20.2019 44.7416 22.1822 44.685 24.6791 44.7133L29.2138 44.7982L30.821 48.9043ZM35.6426 47.545C36.274 49.1591 37.3072 51.7643 37.9386 53.3501C39.2302 56.55 39.2589 56.4933 36.8767 56.3234L35.5278 56.2101L33.4614 50.9431C32.3421 48.0264 31.3376 45.4212 31.2228 45.1381C31.0793 44.7133 31.2515 44.6567 32.7726 44.6567H34.5233L35.6426 47.545ZM47.5819 50.2352C48.7873 53.3218 49.7631 55.927 49.7631 56.0402C49.7631 56.1818 47.7828 56.2668 45.3433 56.2668H40.9235L40.6365 55.4739C40.4643 55.0491 39.4885 52.5572 38.4552 49.9237C37.422 47.2902 36.561 45.0248 36.561 44.9115C36.561 44.7699 38.5413 44.6567 40.9522 44.6567H45.372L47.5819 50.2352ZM51.2269 45.9876C51.887 47.4884 55.2162 55.9836 55.2162 56.1818C55.2162 56.2385 54.4413 56.2668 53.4655 56.2101L51.7435 56.1252L50.8825 54.0014C49.2178 49.952 47.4671 45.308 47.4671 44.9682C47.4671 44.7699 48.0698 44.6567 49.0456 44.6567H50.6529L51.2269 45.9876ZM63.855 50.4617L66.0936 56.1252L61.8746 56.2101C59.5786 56.2385 57.5409 56.2385 57.34 56.1535C57.1678 56.0969 56.6799 55.1624 56.2781 54.0863C55.8763 53.0386 54.9005 50.5467 54.1256 48.5645C53.3507 46.5822 52.7767 44.8832 52.8628 44.7982C52.9489 44.7133 54.9579 44.685 57.3113 44.7133L61.6163 44.7982L63.855 50.4617ZM69.2793 50.5184L71.5179 56.2668H69.7385H67.9878L65.9501 51.0847C63.0801 43.8355 63.1662 44.6 65.2613 44.7133L67.0407 44.7982L69.2793 50.5184ZM77.0284 50.4617V56.2668H75.1629C74.1297 56.2668 73.2973 56.2385 73.2973 56.1818C73.2973 56.1535 72.3215 53.6333 71.1448 50.6033C69.9681 47.5733 68.9923 44.9965 68.9923 44.8832C68.9923 44.7416 70.8004 44.6567 73.0103 44.6567H77.0284V50.4617ZM77.0284 71.1334V83.7346H76.2535C75.2203 83.7346 8.92269 83.7346 8.66439 83.7346C8.52089 83.7346 8.43479 78.0711 8.43479 71.1334V58.5322H42.7316H77.0284V71.1334Z" fill="#DAA622"/>
<path d="M12.912 69.0945C12.5102 69.406 12.4528 70.029 12.5102 74.1067L12.5963 78.7791H13.4573H14.3183L14.4044 74.0501C14.4618 69.6609 14.4331 69.2927 13.9452 69.0379C13.5434 68.8397 13.2564 68.8397 12.912 69.0945Z" fill="#DAA622"/>
<path d="M61.3293 79.9401C61.2432 80.1949 61.2719 80.6197 61.4441 80.8745C61.7024 81.271 62.5635 81.3276 67.586 81.4126C72.752 81.4692 73.4696 81.4409 73.7853 81.0161C74.0436 80.6763 74.0436 80.3932 73.8427 80.025C73.5844 79.5153 73.1251 79.487 67.5286 79.487C62.2191 79.487 61.5015 79.5436 61.3293 79.9401Z" fill="#DAA622"/>
</svg>
