<svg width="75" height="75" viewBox="0 0 75 75" fill="DAA622" xmlns="http://www.w3.org/2000/svg">
<path d="M67.84 46.2793C66.2225 44.2442 66.1888 38.8731 66.295 36.0346H67.685V34.05C67.685 34.05 66.0963 33.75 64.36 33.0591L65.4925 27.8062L64.3813 26.4058C64.5738 26.0221 64.76 25.7726 64.875 25.7726C64.88 25.7726 65.3363 25.7885 66.2313 27.1889L66.5813 27.7399H67.1763H68.3325H69.6188L69.4988 26.2687C69.455 25.7394 68.9875 21.088 66.0125 20.7216C65.7288 20.6856 65.4525 20.6668 65.19 20.6668C63.74 20.6668 62.8213 21.2077 62.1775 21.7413C61.8263 19.5433 60.71 18.0433 59.7925 17.1591L60.2588 15.1428C60.2588 15.1428 59.35 14.2615 57.2838 12.9909C57.105 10.301 55.435 10.5995 55.435 10.5995L53.905 11.0437L53.8938 11.1505C47.5725 8.08558 36.0425 4.29519 17.0913 3.77019C15.2588 1.93414 13.0138 1.19423 11.3538 0.911538C10.6876 0.644711 9.97633 0.376442 9.19133 0.102404L8.89508 0L7.42508 1.35144L7.00384 3.40962L3.65759 4.76394V7.83606C3.50509 7.83606 3.41884 7.8375 3.41884 7.8375L3.42134 7.85336C3.33884 7.85625 3.25634 7.85914 3.17509 7.87212C0.627593 8.25 -0.647405 13.3832 0.327593 19.3298C1.26509 25.0457 3.93634 29.4375 6.40384 29.4375C6.50509 29.4375 6.60634 29.4303 6.70634 29.4144C6.89008 29.3856 7.06633 29.3279 7.23758 29.2514C7.73508 29.2168 9.56133 29.087 12.1038 28.9067L16.0226 33.3692L28.6276 33.5337L31.9038 36.6591V40.862H33.5863C33.5938 42.2654 33.7201 45.538 34.6163 49.2317C35.7838 54.0288 39.0063 56.4606 44.1963 56.4606C46.7425 56.4606 49.0313 55.1236 50.8388 53.3596C51.2813 52.9889 51.6688 52.5909 52.0063 52.187V52.3111C52.0063 52.3111 57.8375 52.6803 59.0175 62.3264C59.9038 69.5712 55.7825 70.1264 55.7825 70.1264V75H57.9775H68.68H70.8763C70.8763 75 75 73.6861 75 67.1957C75 62.8125 75 55.288 67.84 46.2793ZM68.3325 26.3971H67.1763C66.5313 25.3875 65.9675 24.8351 65.475 24.5899C66.1738 24.1947 67.11 24.4817 68.3325 26.3971ZM62.2825 23.3481C62.905 22.7668 63.6175 22.0139 65.19 22.0139C65.405 22.0139 65.6363 22.0284 65.8888 22.0601C65.9125 22.0615 65.9325 22.0731 65.9575 22.0774C65.7675 22.0572 65.5738 22.0558 65.3738 22.1005C63.9475 22.4091 63.7275 24.0548 62.5975 24.163L62.2713 23.7519C62.28 23.6135 62.28 23.4822 62.2825 23.3481ZM34.5738 11.6322C34.5738 11.6322 15.1013 11.5385 7.96508 12.0202C7.64383 11.5168 6.27009 9.56538 5.92509 9.19471C10.7988 9.2625 22.5126 9.64327 34.5738 11.6322ZM8.47383 2.1101L9.02133 1.60673V3.57404H8.84883L8.24633 3.22356L8.47383 2.1101ZM4.83009 5.71587L7.84133 4.49712L7.88258 4.52164V7.85914L7.89258 7.88798C6.64384 7.85769 5.62384 7.84327 4.87259 7.83894L4.82884 7.72212V5.71587H4.83009ZM6.55509 28.0803C6.50509 28.0875 6.45384 28.0918 6.40384 28.0918C4.77259 28.0918 2.34884 24.3909 1.48009 19.0788C0.781343 14.8183 1.38009 11.4707 2.28509 10.0413C2.60134 9.54086 2.95134 9.25961 3.32634 9.20337C3.37634 9.19615 3.42634 9.19183 3.47759 9.19183C5.10884 9.19183 7.53258 12.8913 8.40258 18.2019C9.01633 21.949 8.70133 25.4971 7.59883 27.2409C7.28134 27.7428 6.93009 28.0255 6.55509 28.0803ZM16.5063 32.0308L13.6326 28.7971C14.4663 28.738 15.3488 28.6774 16.2701 28.6125L19.3426 32.0668L16.5063 32.0308ZM8.68133 27.8019C8.98258 27.2668 9.84008 25.5562 10.0101 23.5889C16.2213 24.1745 35.915 25.112 38.2913 25.1769C38.15 25.3413 37.7413 25.8332 37.6588 25.8663C35.4275 25.9067 14.7938 27.3678 8.68133 27.8019ZM33.0763 39.5149V36.0274L29.7213 32.8269L32.4813 32.8615L35.795 36.0231L35.8925 39.5149H33.0763ZM44.1963 55.1149C40.105 55.1149 36.8725 53.5067 35.745 48.8697C34.8888 45.3433 34.7663 42.1875 34.7575 40.8606H36.4813C36.4663 42.1875 36.54 45.3389 37.3963 48.8697C38.435 53.1389 41.2675 54.8221 44.9013 55.0644C44.6688 55.0918 44.435 55.1149 44.1963 55.1149ZM40.4238 40.3154L40.1725 41.276L41.0088 41.7966C42.8038 42.9159 43.7988 44.2226 43.9688 45.675C44.26 48.1832 42.105 50.6337 42.0813 50.6567L41.44 51.3606C41.0888 51.1976 40.7463 50.9986 40.4388 50.7346C39.0713 48.6995 38.7963 45.3404 40.4238 40.3154ZM40.0588 40.1928L40.0613 40.187H40.4563L40.455 40.1928H40.0588ZM45.1338 51.6043C45.1138 51.6188 45.1025 51.6303 45.1025 51.6303C45.1025 51.6303 45.1025 51.6303 42.8925 51.6303C42.8925 51.6303 48.8038 45.1313 41.5675 40.6154L41.6788 40.187H43.515C43.515 40.187 43.6938 40.0125 44.0088 39.7673L43.7863 40.6154C50.775 44.9769 45.5038 51.1832 45.1338 51.6043ZM45.8763 53.2716C45.5425 53.2716 45.2175 53.2514 44.9 53.2197C49.6638 52.6817 51.9925 46.6558 51.9925 46.6558H53.645C53.645 46.6558 51.1013 53.2716 45.8763 53.2716ZM53.76 36.7529C53.76 36.7529 45.4913 34.5418 37.7838 34.7856L37.8625 29.6538C38.0225 29.8168 38.2075 29.9466 38.425 30.0115C39.4513 30.313 40.695 29.2918 41.205 27.7269C41.6538 26.3466 41.38 25.0067 40.605 24.5019C40.7038 24.313 40.7988 24.1168 40.89 23.9135C41.35 22.8678 41.6763 21.6389 41.8325 20.3048C41.8475 20.1894 41.8525 20.0683 41.8625 19.9529C42.5763 19.5404 43.0438 18.3923 42.9575 17.0582C42.86 15.5365 42.0813 14.338 41.17 14.2226C41.0675 13.9543 40.9613 13.6889 40.84 13.4466C40.1688 12.0981 39.2338 11.1678 38.15 10.9082L42.0413 11.3625C41.4725 12.1212 40.8888 14.7173 42.5713 13.8346L54.3363 17.162L52.9475 15.1024C55.2138 15.9361 57.3438 16.8029 59.25 17.6611C59.25 17.6611 60.2275 18.8452 60.9638 20.7548C55.115 19.0933 50.8363 17.9553 43.335 17.1837L43.9863 20.0538C41.5638 20.426 42.1238 25.0226 43.645 25.0457L42.785 27.2394L56.3963 30.5957C58.7663 31.4034 57.4238 33.8019 57.3113 33.9909C56.3313 34.9154 55.1663 35.8399 53.76 36.7529ZM58.4375 41.3928C57.18 41.299 56.455 40.0543 56.8175 38.6149C56.9013 38.2803 57.0425 37.9673 57.2163 37.6817L60.62 40.3846C60.0363 41.0495 59.2263 41.4548 58.4375 41.3928ZM61.3725 38.9654C61.2888 39.3 61.1475 39.613 60.9725 39.9L57.5688 37.1957C58.155 36.5322 58.9638 36.1269 59.7538 36.1875C61.0113 36.2827 61.7363 37.5274 61.3725 38.9654ZM63.3275 32.2514L60.54 30.0577C61.2625 28.751 61.6413 27.5019 61.8013 26.3611C61.8075 26.3452 61.8163 26.3337 61.8213 26.3178C61.905 26.0207 61.9775 25.7322 62.0388 25.4495L64.2063 28.1798L63.3275 32.2514Z" fill="#DAA622"/>
<path d="M3.47759 11.0597C2.10259 11.2501 1.52259 14.8025 2.18134 18.991C2.84009 23.1794 4.49134 26.4203 5.86634 26.2299C7.24134 26.0352 7.82259 22.4842 7.16384 18.2958C6.50384 14.1059 4.85384 10.8665 3.47759 11.0597Z" fill="#DAA622"/>
<path d="M38.7237 33.2927L49.9512 34.5461L52.3125 31.885L41.255 30.7947C38.3762 29.7677 38.3387 32.5197 38.7237 33.2927Z" fill="#DAA622"/>
</svg>
