<svg width="75" height="75" viewBox="0 0 75 75" fill="none" xmlns="http://www.w3.org/2000/svg">
<path d="M23.3213 36.42C25.3924 36.42 27.0713 34.7411 27.0713 32.67C27.0713 30.5989 25.3924 28.92 23.3213 28.92C21.2502 28.92 19.5713 30.5989 19.5713 32.67C19.5713 34.7411 21.2502 36.42 23.3213 36.42Z" fill="#DAA622"/>
<path d="M51.6787 36.42C53.7498 36.42 55.4287 34.7411 55.4287 32.67C55.4287 30.5989 53.7498 28.92 51.6787 28.92C49.6076 28.92 47.9287 30.5989 47.9287 32.67C47.9287 34.7411 49.6076 36.42 51.6787 36.42Z" fill="#DAA622"/>
<path d="M75 16.2288C75 7.28 68.0537 0 59.515 0C54.2125 0 49.2975 2.87875 46.4775 7.49C43.7712 6.8025 40.76 6.45625 37.5 6.45625C34.2375 6.45625 31.2262 6.8025 28.5188 7.49C25.7013 2.88 20.7862 0 15.4862 0C6.9475 0 0 7.28 0 16.2288C0 22.3638 3.31125 27.8787 8.35875 30.6225C8.32875 31.4087 8.37 32.1287 8.46125 32.7825L7.4725 32.5913L8.21625 36.155C8.2725 36.4237 8.805 38.8213 10.4288 41.26C10.7275 41.7912 11.1862 42.3725 11.83 43.0337C12.0112 43.225 12.2212 43.4362 12.4438 43.6375L15.2213 46.1787C13.8413 47.8125 10.9525 51.3312 9.4525 53.8925C5.71625 60.28 5.985 64.3988 10.2975 66.855C11.4275 67.5 12.525 67.8288 13.5975 67.8725C14.0425 70.1338 15.1125 71.89 16.8037 73.1038C18.58 74.38 20.9937 75 24.1788 75C28.77 75 31.4912 73.605 33.06 71.6512C34.4938 71.8925 35.98 72.0262 37.5 72.0262C39.0075 72.0262 40.4863 71.8925 41.9163 71.6512C42.3538 72.1987 42.8625 72.6838 43.4475 73.1038C45.2262 74.38 47.6375 75 50.8237 75C58.0625 75 60.6725 71.54 61.405 67.8737C62.4762 67.8288 63.5737 67.4987 64.7038 66.855C69.015 64.3988 69.2838 60.28 65.5462 53.8913C64.0475 51.3275 61.1525 47.8037 59.775 46.1737L62.5588 43.6375C62.7838 43.4325 62.9987 43.22 63.2025 43.0013C63.8162 42.3713 64.2738 41.7925 64.5738 41.26C66.1975 38.8213 66.73 36.4225 66.7863 36.1538L67.53 32.59L66.5425 32.7812C66.6325 32.1287 66.6738 31.4062 66.6437 30.62C71.6888 27.88 75 22.365 75 16.2288ZM24.1788 72.58C19.5813 72.58 15.8525 71.2213 15.855 65.285C15.8525 59.3512 19.58 54.54 24.1788 54.54C28.7788 54.54 32.5037 59.3512 32.5037 65.285C32.5037 71.2225 28.7763 72.58 24.1788 72.58ZM50.8237 72.58C46.2238 72.58 42.4963 71.2237 42.4987 65.2875C42.4963 59.3512 46.2238 54.54 50.8237 54.54C55.4188 54.54 59.1463 59.3512 59.1463 65.2875C59.1463 71.2225 55.4188 72.58 50.8237 72.58ZM63.37 55.0825C67.6362 62.3763 64.7988 63.9938 63.435 64.77C62.8725 65.09 62.2762 65.3237 61.6437 65.41C61.6437 65.37 61.6463 65.3288 61.6463 65.2875C61.6463 58.0262 56.7913 52.1212 50.8237 52.1212C47.8363 52.1212 44.9625 53.6212 42.935 56.2362C41.04 58.6837 39.9975 61.8975 39.9975 65.2887C39.9975 66.8312 40.2325 68.1913 40.6688 69.3825C39.6312 69.5137 38.5775 69.6063 37.4987 69.6063C36.4188 69.6063 35.3675 69.5113 34.335 69.375C34.825 68.0462 35.0025 66.6275 35.0025 65.285C35.0025 58.025 30.1462 52.1212 24.1775 52.1212C21.1912 52.1212 18.3175 53.6212 16.29 56.2362C14.395 58.6825 13.3525 61.8963 13.3537 65.2862C13.3537 65.33 13.3588 65.3688 13.3588 65.4137C12.7238 65.3288 12.1275 65.0913 11.5625 64.77C10.1988 63.9938 7.35875 62.3763 11.6237 55.0838C13.1262 52.5175 16.2738 48.7412 17.4425 47.3688C22.325 50.4012 29.4312 53.3738 37.4963 53.3738C45.5612 53.3738 52.6675 50.4012 57.55 47.3688C58.7238 48.7425 61.87 52.5188 63.37 55.0825ZM62.8288 29.5637C62.5925 30.67 62.315 31.3812 62.315 31.3812L64.055 29.6712C64.6162 34.0137 62.5438 36.02 62.5438 36.02L64.335 35.675C64.335 35.675 63.875 37.88 62.415 40.0338C62.2362 40.375 61.8713 40.84 61.35 41.3737C61.1888 41.5462 61.02 41.715 60.8425 41.8775L60.84 41.8662C57.3388 45.1562 48.7575 50.5488 38.5887 50.9175C43.21 50.6275 45.855 48.295 45.855 40.0938C45.855 33.1588 40.225 30.525 37.5013 30.525C34.7775 30.525 29.1475 33.1588 29.1475 40.0938C29.1475 48.2962 31.7913 50.6275 36.4137 50.9175C26.245 50.5488 17.6637 45.1562 14.1625 41.8662L14.1613 41.8775C13.9825 41.715 13.8137 41.545 13.6512 41.3737C13.1312 40.8387 12.765 40.375 12.5875 40.0338C11.1275 37.8775 10.6675 35.675 10.6675 35.675L12.4587 36.02C12.4587 36.02 10.3875 34.0137 10.9462 29.6712L12.685 31.3812C12.685 31.3812 12.4075 30.6687 12.17 29.5637C6.6075 28.0012 2.5 22.6313 2.5 16.2288C2.5 8.60125 8.315 2.42 15.4862 2.42C20.6938 2.42 25.175 5.69 27.2425 10.3988C30.1125 9.41625 33.495 8.87625 37.5 8.87625C41.5025 8.87625 44.8862 9.4175 47.755 10.3975C49.825 5.69 54.305 2.42 59.515 2.42C66.6837 2.42 72.5 8.60125 72.5 16.2288C72.5 22.6325 68.39 28.0025 62.8288 29.5637Z" fill="#DAA622"/>
<path d="M15.6225 14.9001C17.6937 13.7476 20.1462 14.5488 20.1462 14.5488C20.1462 14.5488 20.0575 13.3363 18.245 13.3838C19.9175 12.0838 22.2537 12.8563 22.2537 12.8563L22.25 12.8688C22.3437 12.8026 22.45 12.7463 22.545 12.6838C21.2962 9.85258 18.6087 7.89008 15.4862 7.89008C11.17 7.89008 7.67749 11.6226 7.67749 16.2301C7.67749 19.5738 9.52499 22.4488 12.1875 23.7763C12.2637 23.4876 12.3512 23.1963 12.4587 22.9088L14.3862 24.2038C14.3862 24.2038 13.8012 22.5463 14.3387 21.4138L15.17 22.0076C15.17 22.0076 13.66 18.2076 15.0337 16.6101C15.8 18.9151 16.7062 18.8801 16.7062 18.8801C16.7062 18.8801 15.5962 17.1551 16.4625 16.4326C17.345 17.7301 18.0762 16.8851 18.0412 16.4963C17.9925 15.9763 18.2162 15.2438 15.6225 14.9001Z" fill="#DAA622"/>
<path d="M59.515 7.89008C56.39 7.89008 53.7037 9.85258 52.455 12.6838C52.5525 12.7488 52.6587 12.8051 52.755 12.8713L52.7475 12.8563C52.7475 12.8563 55.0812 12.0838 56.7537 13.3838C54.9425 13.3363 54.8537 14.5488 54.8537 14.5488C54.8537 14.5488 57.305 13.7476 59.3762 14.9001C56.785 15.2438 57.0062 15.9763 56.955 16.4938C56.9212 16.8838 57.6562 17.7276 58.5375 16.4301C59.405 17.1526 58.2937 18.8776 58.2937 18.8776C58.2937 18.8776 59.2037 18.9113 59.9662 16.6076C61.3412 18.2051 59.8325 22.0051 59.8325 22.0051L60.665 21.4113C61.2025 22.5438 60.6162 24.2013 60.6162 24.2013L62.5425 22.9063C62.65 23.1938 62.735 23.4838 62.8125 23.7738C65.4725 22.4451 67.3225 19.5713 67.3225 16.2276C67.3225 11.6226 63.825 7.89008 59.515 7.89008Z" fill="#DAA622"/>
<path d="M24.1787 59.3C20.93 59.3 18.2937 62.6976 18.295 66.8926C18.2937 71.0876 20.9287 72.0476 24.1787 72.0476C27.4287 72.0476 30.0625 71.0876 30.0625 66.8926C30.0625 62.7001 27.4275 59.3 24.1787 59.3Z" fill="#DAA622"/>
<path d="M50.8238 59.3C47.5713 59.3 44.9375 62.7 44.94 66.895C44.9375 71.09 47.5738 72.05 50.8238 72.05C54.0738 72.05 56.7063 71.09 56.7063 66.8925C56.7063 62.7001 54.0738 59.3 50.8238 59.3Z" fill="#DAA622"/>
</svg>
