<svg width="51" height="51" viewBox="0 0 51 51" fill="none" xmlns="http://www.w3.org/2000/svg">
<path d="M25.25 0C11.35 0 0 11.35 0 25.25C0 39.15 11.35 50.5 25.25 50.5C39.15 50.5 50.5 39.15 50.5 25.25C50.5 11.35 39.15 0 25.25 0ZM25.25 3C37.5 3 47.5 13 47.5 25.25C47.5 37.5 37.5 47.5 25.25 47.5C13 47.5 3 37.5 3 25.25C3 13 13 3 25.25 3ZM25.25 8.75C24.4 8.75 23.75 9.4 23.75 10.25V22.6504C22.85 23.1504 22.25 24.15 22.25 25.25C22.25 26.9 23.6 28.25 25.25 28.25C26.35 28.25 27.3496 27.65 27.8496 26.75H35.25C36.1 26.75 36.75 26.1 36.75 25.25C36.75 24.4 36.1 23.75 35.25 23.75H27.8496C27.5996 23.3 27.2 22.9004 26.75 22.6504V10.25C26.75 9.4 26.1 8.75 25.25 8.75Z" fill="#DAA622"/>
</svg>
