<svg width="75" height="75" viewBox="0 0 75 75" fill="none" xmlns="http://www.w3.org/2000/svg">
<path d="M75 37.5C75 16.7875 58.2125 0 37.5 0C16.7875 0 0 16.7875 0 37.5C0 40.6125 0.38625 43.6338 1.1 46.5263C-2.0125 52.6413 1.97 59.0662 7.4225 59.9C14.2587 69.065 25.1863 75 37.5 75C49.8162 75 60.7412 69.065 67.5775 59.9C73.0287 59.065 77.0088 52.6413 73.8988 46.5287C74.6137 43.635 75 40.6138 75 37.5ZM37.5 3.125C56.455 3.125 71.875 18.545 71.875 37.5C71.875 39.44 71.7063 41.3388 71.3962 43.1913C64.6338 36.575 52.4137 36.2625 52.4137 36.2625C52.4137 36.2625 52.45 37.7588 52.7438 40.0075C38.7575 40.0075 36.2425 40.0075 22.2537 40.0075C22.5487 37.7588 22.5837 36.2625 22.5837 36.2625C22.5837 36.2625 10.37 36.575 3.605 43.1913C3.295 41.3375 3.125 39.4388 3.125 37.5C3.125 18.545 18.5462 3.125 37.5 3.125ZM20.6238 47.5C21.1775 45.7562 21.5763 44.0438 21.8612 42.5H53.1375C53.4237 44.0438 53.8237 45.7562 54.375 47.5C42.7513 47.5 32.2463 47.5 20.6238 47.5ZM47.1413 60.83C44.355 62.0263 41.1425 62.7275 37.5013 62.7275C33.8587 62.7275 30.6462 62.0263 27.86 60.83C30.55 59.5413 33.7487 58.7525 37.5013 58.7525C41.2525 58.7525 44.4538 59.5413 47.1413 60.83ZM37.5 71.875C26.9463 71.875 17.4912 67.09 11.18 59.58C12.6737 59.085 14.1813 58.14 15.6088 56.6375C16.0163 56.21 16.3988 55.7575 16.7587 55.2875C20.2775 60.545 26.99 65 37.5 65C48.0075 65 54.7212 60.5462 58.2388 55.2887C58.6 55.7587 58.9812 56.21 59.3862 56.6375C60.8175 58.1388 62.3262 59.0863 63.82 59.58C57.51 67.09 48.0537 71.875 37.5 71.875Z" fill="#DAA622"/>
<path d="M16.0725 34.5088C18.325 32.1325 21.0188 31.1862 23.8313 31.1862C26.6438 31.1862 29.3363 32.1325 31.59 34.5088C32.1888 35.14 33.3875 33.9788 33.1575 33.3363C30.8338 26.9475 27.3325 23.75 23.8313 23.75C20.33 23.75 16.8288 26.9475 14.5063 33.3363C14.2763 33.98 15.4738 35.14 16.0725 34.5088Z" fill="#DAA622"/>
<path d="M43.4087 34.5088C45.6625 32.1325 48.355 31.1862 51.1675 31.1862C53.98 31.1862 56.6725 32.1325 58.9262 34.5088C59.525 35.14 60.7237 33.9788 60.4937 33.3363C58.1687 26.9475 54.6675 23.75 51.1675 23.75C47.6675 23.75 44.165 26.9475 41.8412 33.3363C41.6112 33.98 42.81 35.14 43.4087 34.5088Z" fill="#DAA622"/>
</svg>
