<svg width="342" height="120" viewBox="0 0 342 120" fill="none" xmlns="http://www.w3.org/2000/svg">
<path d="M0 21.2727V42.5455L2.77154 43.6043C10.5971 46.6203 15.6103 51.2086 17.3221 56.8556C19.4823 64.0107 15.2435 71.5829 6.60279 76.0428C4.93171 76.9091 2.73078 77.8717 1.75259 78.1604L0 78.7059V99.3369V120H170.939H341.837L341.918 99.4652L342 78.9305L340.736 78.3529C340.003 78.0642 338.332 77.2941 337.028 76.6845C324.719 70.9412 320.887 60.385 327.898 51.4973C330.629 48.0642 335.234 44.984 340.044 43.3476L342 42.6738L341.918 22.2353C341.878 10.9733 341.796 1.37968 341.674 0.866315L341.47 4.61936e-06H170.735H0V21.2727ZM287.058 5.13369H293.457V7.09091C293.457 8.82353 293.58 9.14439 294.639 9.97861C296.066 11.0695 297.411 11.1658 298.919 10.2353C299.897 9.62567 299.979 9.36899 299.979 7.3476V5.13369H317.627H335.234L335.356 22.2353L335.479 39.3369L333.848 40.0428C330.873 41.3583 326.593 44.246 324.556 46.2674C320.031 50.7914 318.36 54.2246 318.034 59.6791C317.79 63.8824 318.36 66.3529 320.317 69.754C322.721 73.9572 326.39 77.2941 331.77 80.2139L335.438 82.1711V98.5348L335.397 114.866H317.708H299.979V113.134C299.979 110.888 299.082 109.925 296.962 109.925C294.802 109.925 293.783 110.856 293.539 113.07L293.376 114.866H288.199C280.945 114.866 152.109 114.866 73.079 114.866H6.52127V98.5668V82.2353L9.74115 80.5989C24.0064 73.2834 28.4083 60.6417 20.5828 49.508C18.6264 46.7487 12.5942 41.9679 9.08902 40.4278L6.56203 39.3048L6.52127 22.2353V5.13369L74.8724 5.06952C112.492 5.00535 174.159 5.00535 211.941 5.03744C249.724 5.10161 283.512 5.13369 287.058 5.13369Z" fill="#DAA622"/>
<path d="M295.495 19.0267C293.62 19.7647 293.417 20.5668 293.539 26.5668L293.661 32.1497L294.802 32.9198C296.188 33.8502 297.492 33.9144 298.919 33.016L299.979 32.3743V26.3101C299.979 21.0481 299.897 20.2139 299.286 19.6363C298.348 18.77 296.759 18.5133 295.495 19.0267Z" fill="#DAA622"/>
<path d="M295.495 41.8075C293.62 42.5454 293.417 43.3476 293.539 49.3476L293.661 54.9305L294.802 55.7005C296.188 56.631 297.492 56.6952 298.919 55.7968L299.979 55.1551V49.0909C299.979 43.8289 299.897 42.9946 299.286 42.4171C298.348 41.5508 296.759 41.2941 295.495 41.8075Z" fill="#DAA622"/>
<path d="M295.495 64.5883C293.702 65.2941 293.457 66.1925 293.457 71.9679V77.3904L294.639 78.3209C296.066 79.4118 297.411 79.508 298.919 78.5776L299.979 77.9358V71.8717C299.979 66.6096 299.897 65.7754 299.286 65.1979C298.348 64.3316 296.759 64.0749 295.495 64.5883Z" fill="#DAA622"/>
<path d="M295.495 87.369C293.62 88.107 293.417 88.9091 293.539 94.9091L293.661 100.492L294.802 101.262C296.188 102.193 297.492 102.257 298.919 101.358L299.979 100.717V94.6524C299.979 89.3904 299.897 88.5562 299.286 87.9786C298.348 87.1123 296.759 86.8556 295.495 87.369Z" fill="#DAA622"/>
</svg>
