<svg width="75" height="75" viewBox="0 0 75 75" fill="none" xmlns="http://www.w3.org/2000/svg">
<path d="M70.6944 46.0674C73.4722 41.6979 75 36.7041 75 31.3358C75 14.1074 58.1944 0 37.5 0C16.8056 0 5.46316e-07 14.1074 5.46316e-07 31.4607C5.46316e-07 36.7041 1.52778 41.6979 4.30556 46.1923C2.97726 47.0142 1.89126 48.1142 1.14119 49.3974C0.391116 50.6806 -0.000533935 52.1085 5.46316e-07 53.5581C5.46316e-07 58.6767 5 62.9213 11.1111 62.9213C11.6667 62.9213 12.2222 62.9213 12.7778 62.7965C12.0833 64.2946 11.25 66.0424 11.1111 67.0412C10.2778 70.9114 14.8611 74.1573 19.5833 74.1573C19.5833 74.1573 21.8056 74.2822 22.3611 73.9076C24.1667 72.4095 22.3611 65.9176 22.3611 65.9176C22.3611 64.794 23.4722 63.9201 24.7222 63.9201C25.9722 63.9201 27.0833 64.794 27.0833 65.9176C27.0833 65.9176 25.4167 72.6592 27.0833 74.1573C28.4722 75.2809 33.75 75.2809 35.1389 74.1573C36.9444 72.6592 35.1389 65.9176 35.1389 65.9176C35.1389 64.794 36.25 63.9201 37.5 63.9201C38.75 63.9201 39.8611 64.794 39.8611 65.9176C39.8611 65.9176 38.0556 72.6592 39.8611 74.1573C41.25 75.2809 46.5278 75.2809 47.9167 74.1573C49.7222 72.6592 47.9167 65.9176 47.9167 65.9176C47.9167 64.794 49.0278 63.9201 50.2778 63.9201C51.6667 63.9201 52.6389 64.794 52.6389 65.9176C52.6389 65.9176 50.8333 72.5343 52.6389 73.9076C53.0556 74.2822 55.4167 74.1573 55.4167 74.1573C60.1389 74.1573 64.7222 70.9114 63.8889 67.0412C63.75 66.1673 62.9167 64.2946 62.2222 62.7965C62.7778 62.9213 63.3333 62.9213 63.8889 62.9213C70 62.9213 75 58.6767 75 53.5581C75 50.5618 73.3333 47.8152 70.6944 46.0674ZM17.2222 47.8152C13.0556 45.1935 2.08333 34.3321 11.1111 33.9576C16.6667 33.7079 30.1389 37.8277 30.9722 42.4469C31.6667 45.6929 21.5278 50.437 17.2222 47.8152ZM43.75 57.6779C41.6667 59.4257 33.75 59.4257 31.5278 57.6779C29.5833 55.9301 32.7778 54.6816 34.0278 52.9338C35.4167 50.8115 35.9722 48.9388 37.6389 48.9388C39.3056 48.9388 40 50.8115 41.25 52.9338C42.5 54.6816 45.8333 56.0549 43.75 57.6779ZM58.1944 47.8152C54.0278 50.437 43.8889 45.568 44.4444 42.4469C45.2778 37.8277 58.75 33.7079 64.3055 33.9576C73.3333 34.4569 62.3611 45.3184 58.1944 47.8152Z" fill="#DAA622"/>
</svg>
