<svg width="76" height="75" viewBox="0 0 76 75" fill="none" xmlns="http://www.w3.org/2000/svg">
<path d="M46.6439 59.9998C42.5939 59.9998 34.4952 59.9998 30.4452 59.9998C29.5439 59.9998 29.5439 60.8435 29.5439 60.8435C29.5439 64.216 34.0464 65.9023 38.5452 65.9023C43.0439 65.9023 47.5439 64.216 47.5439 60.8435C47.5452 60.8435 47.5452 59.9998 46.6439 59.9998Z" fill="#DAA622"/>
<path d="M38.5464 57.0498C42.7264 57.0485 44.8164 54.0997 42.7264 54.0997C40.6364 54.0997 36.4564 54.0997 34.3664 54.0997C32.2764 54.0997 34.3664 57.0498 38.5464 57.0498Z" fill="#DAA622"/>
<path d="M38.2189 22.0506C48.0364 22.0506 55.5527 21.5181 61.3352 20.7193C55.2314 9.06173 63.4289 -3.72591 55.5627 1.01289C49.1077 4.90418 42.7527 5.92294 38.2189 5.92294C33.6852 5.92294 27.3352 4.90668 20.8752 1.01289C13.0102 -3.72591 21.2064 9.06173 15.1039 20.7193C20.8852 21.5181 28.4014 22.0506 38.2189 22.0506Z" fill="#DAA622"/>
<path d="M75.7214 31.9983C75.7214 30.4458 75.1702 31.2495 64.3027 24.9594C64.2927 24.9482 64.2852 24.9382 64.2764 24.9294C63.7139 25.0169 49.9689 27.1757 38.2189 27.1757C26.4689 27.1757 12.7264 25.0169 12.1639 24.9294C12.1539 24.9394 12.1464 24.9494 12.1377 24.9594C1.27016 31.2495 0.721405 30.4445 0.721405 31.9983C0.721405 32.4883 0.888905 35.2408 8.24641 37.4658C5.42641 43.8909 7.4789 51.416 13.1914 55.5898L12.3027 57.1073L11.0227 56.3785L4.98141 66.6674C4.42016 66.4961 4.01015 66.4611 3.8989 66.6499L3.56766 67.2124C3.03015 68.1261 10.3252 72.2712 10.8627 71.3549L11.1927 70.7949C11.3039 70.6037 11.0652 70.2712 10.6339 69.8774L16.3689 60.1061C18.8964 65.9624 23.8402 70.1499 32.5264 73.9912C33.9777 74.6325 36.1727 75 38.5464 75C40.9202 75 43.1139 74.6325 44.5664 73.99C55.6602 69.0812 60.8927 63.3598 62.3802 54.3998C65.0464 53.941 67.7939 52.246 67.7939 47.2184C67.7939 42.6571 65.9677 41.2696 64.4114 40.9146C64.3789 40.0633 64.3389 39.2358 64.2914 38.4358C75.5014 36.1321 75.7214 32.5633 75.7214 31.9983ZM10.9264 38.1708C12.6377 38.5633 14.6452 38.9271 16.9764 39.2421C15.4727 40.2259 14.4714 41.7134 14.4714 43.6984C15.2289 41.8346 16.9814 40.5921 19.0714 39.9834C18.3814 40.8546 17.9527 41.9371 17.9527 43.1259C17.9527 45.9647 20.2914 48.2634 23.1752 48.2634C26.0614 48.2634 28.4002 45.9634 28.4002 43.1259C28.4002 42.4971 28.2689 41.9021 28.0589 41.3434C29.2539 42.1971 30.2177 43.3459 30.7227 44.8384C30.7227 42.8846 29.9752 41.3534 28.8077 40.2246C30.6327 40.3021 32.5739 40.3559 34.6427 40.3859C35.4264 43.4209 35.0602 46.7472 33.3427 49.6747C29.8464 55.6298 22.1052 57.671 16.0527 54.2323C10.3152 50.971 8.1614 43.9634 10.9264 38.1708ZM15.3914 58.8623L15.7014 58.3348C15.8002 58.6335 15.9064 58.9286 16.0164 59.2186L15.3914 58.8623ZM65.2939 47.2184C65.2939 50.376 64.0289 51.8722 61.1952 52.0685L60.1777 52.1385L60.0452 53.1347C58.8852 61.7898 54.2577 67.0074 43.5427 71.7487C42.4177 72.2449 40.5502 72.5424 38.5477 72.5424C36.5452 72.5424 34.6777 72.2462 33.5527 71.7487C24.9664 67.9511 20.3639 63.8574 18.2377 58.0123C24.8477 59.8386 32.1214 57.141 35.7152 51.021C37.6752 47.6797 38.1777 43.9109 37.4452 40.4071C37.7077 40.4084 37.9539 40.4121 38.2202 40.4121C41.3552 40.4121 44.2064 40.3546 46.8389 40.2546C44.9377 41.2021 43.5477 42.8984 43.5477 45.3772C43.9839 44.0909 44.8127 43.1034 45.8427 42.3671C45.6602 42.8471 45.5477 43.3596 45.5477 43.9034C45.5477 46.3472 47.5639 48.3284 50.0477 48.3284C52.5352 48.3284 54.5477 46.3472 54.5477 43.9034C54.5477 42.8784 54.1789 41.9471 53.5852 41.1971C55.3852 41.7209 56.8952 42.7896 57.5477 44.3959C57.5477 42.0946 55.9827 40.5671 53.9027 39.8409C55.6489 39.6971 57.2577 39.5283 58.7364 39.3421C58.7914 40.0209 58.8464 40.7371 58.9014 41.5146C59.0027 44.2409 58.7189 46.2234 58.7164 46.2422L58.3702 48.6059L60.5277 47.5109C60.6789 47.4334 62.0302 46.7197 62.7539 45.4034C63.0202 44.9172 63.2439 44.2134 63.4339 43.2684H63.4389C64.6689 43.2659 65.2939 44.5972 65.2939 47.2184Z" fill="#DAA622"/>
</svg>
