<svg width="119" height="123" viewBox="0 0 119 123" fill="none" xmlns="http://www.w3.org/2000/svg">
<g clip-path="url(#clip0_349_30)">
<path d="M16.08 59.26C16.08 61.3924 15.2329 63.4374 13.7251 64.9452C12.2173 66.453 10.1723 67.3 8.04 67.3C5.90766 67.3 3.86265 66.453 2.35486 64.9452C0.847069 63.4374 0 61.3924 0 59.26C0.00445454 48.0082 3.22625 36.9923 9.28547 27.5113C15.3447 18.0303 23.9886 10.4796 34.198 5.74964C44.4074 1.01968 55.7564 -0.6923 66.9067 0.815573C78.057 2.32345 88.5436 6.98829 97.13 14.26V8.00002C97.13 5.86768 97.9771 3.82268 99.4849 2.31488C100.993 0.807091 103.038 -0.039978 105.17 -0.039978C107.302 -0.039978 109.347 0.807091 110.855 2.31488C112.363 3.82268 113.21 5.86768 113.21 8.00002V33.35C113.21 35.4718 112.367 37.5066 110.867 39.0069C109.367 40.5072 107.332 41.35 105.21 41.35L80.82 43.62C79.7727 43.7146 78.717 43.6019 77.7133 43.2885C76.7095 42.9751 75.7773 42.467 74.9699 41.7933C74.1625 41.1196 73.4957 40.2935 73.0076 39.3621C72.5195 38.4307 72.2196 37.4123 72.125 36.365C72.0304 35.3177 72.1431 34.2621 72.4565 33.2583C72.77 32.2546 73.278 31.3224 73.9517 30.515C74.6254 29.7076 75.4515 29.0408 76.3829 28.5526C77.3143 28.0645 78.3327 27.7646 79.38 27.67L87.38 26.94C81.1652 21.5074 73.518 17.9783 65.3517 16.7744C57.1855 15.5704 48.8452 16.7424 41.327 20.1503C33.8088 23.5583 27.4304 29.0582 22.9535 35.9933C18.4766 42.9284 16.0905 51.0055 16.08 59.26V59.26ZM38.85 78.86C40.9717 78.6691 43.0824 79.3288 44.7177 80.6941C46.3531 82.0593 47.379 84.0183 47.57 86.14C47.761 88.2618 47.1012 90.3724 45.736 92.0078C44.3707 93.6431 42.4117 94.6691 40.29 94.86L30.21 95.77C36.3767 101.358 44.034 105.034 52.251 106.352C60.468 107.669 68.8907 106.571 76.4952 103.191C84.0998 99.8105 90.5586 94.2939 95.0864 87.3116C99.6142 80.3293 102.016 72.1819 102 63.86C102 61.7277 102.847 59.6827 104.355 58.1749C105.863 56.6671 107.908 55.82 110.04 55.82C112.172 55.82 114.217 56.6671 115.725 58.1749C117.233 59.6827 118.08 61.7277 118.08 63.86C118.081 74.9659 114.948 85.8466 109.041 95.251C103.133 104.655 94.6912 112.201 84.6858 117.021C74.6804 121.841 63.5177 123.739 52.4815 122.497C41.4453 121.255 30.9838 116.923 22.3 110V114.18C22.3 116.312 21.4529 118.357 19.9451 119.865C18.4373 121.373 16.3923 122.22 14.26 122.22C12.1277 122.22 10.0827 121.373 8.57486 119.865C7.06707 118.357 6.22 116.312 6.22 114.18V89.14C6.21209 87.1358 6.9568 85.2015 8.30678 83.7201C9.65675 82.2386 11.5136 81.3179 13.51 81.14L38.82 78.84L38.85 78.86Z" fill="#DAA622"/>
</g>
<defs>
<clipPath id="clip0_349_30">
<rect width="118.04" height="122.88" fill="white"/>
</clipPath>
</defs>
</svg>
