<svg width="490" height="451" viewBox="0 0 490 451" fill="none" xmlns="http://www.w3.org/2000/svg">
<path d="M375.789 73.4135H166.864L184.371 30.6185C188.095 21.4865 185.371 11.0445 177.68 4.87447C169.979 -1.29153 159.142 -1.63353 151.041 3.99547L9.57358 102.256C3.37657 106.56 -0.221426 113.713 0.0105744 121.251C0.241574 128.784 4.27157 135.697 10.7206 139.61L158.646 229.433C167.063 234.541 177.826 233.526 185.127 226.934C192.439 220.343 194.554 209.622 190.346 200.732L170.903 159.6H375.789C390.908 159.6 403.207 172.136 403.207 187.254V337.106C403.207 352.224 390.908 364.296 375.789 364.296H149.049C128.823 364.296 112.426 380.692 112.426 400.918V413.86C112.426 434.088 128.823 450.484 149.049 450.484H375.789C438.431 450.484 489.393 399.752 489.393 337.105V187.255C489.395 124.608 438.431 73.4135 375.789 73.4135Z" fill="#DAA622"/>
</svg>
