<svg width="75" height="75" viewBox="0 0 75 75" fill="none" xmlns="http://www.w3.org/2000/svg">
<path d="M59.5675 13.6012L58.1525 15.7288C57.9425 16.0413 53.3537 23.0037 51.7837 30.75L48.8688 25.82C52.4538 22.7113 53.6387 16.6488 51.41 10.95C48.835 4.35875 41.97 1.1275 41.6763 0.9925L39.525 0L40.4675 2.21625C40.4738 2.23125 40.6512 2.68125 40.7925 3.455C38.63 1.9675 36.9313 1.08125 36.8438 1.03625L35.92 0.55875L35.575 1.55875C35.5437 1.65375 34.9125 3.51 34.355 6.1275C33.9538 5.5 33.7825 5.06 33.7637 5.0075L32.945 2.7275L32.0612 4.98375C31.9412 5.2875 29.165 12.5237 31.74 19.1162C31.785 19.2325 31.8412 19.3412 31.8888 19.455C31.6938 19.2837 31.5037 19.11 31.2975 18.945C25.82 14.59 18.2987 15.3538 17.9825 15.3888L15.6325 15.645L17.54 17.0712C17.5525 17.0812 17.9312 17.3763 18.4325 17.9713C15.8325 17.8063 13.9287 17.9213 13.8312 17.9288L12.7975 17.995L12.9938 19.0375C13.0125 19.135 13.385 21.0625 14.1963 23.61C13.5413 23.275 13.1763 22.9838 13.135 22.95L11.3013 21.405L11.6512 23.8088C11.6912 24.09 12.5787 29.8338 16.3325 34.2038C9.4775 33.3425 3.4175 37.8913 3.16375 38.0875L1.27 39.53L3.62 39.7638C3.635 39.7663 4.10625 39.8237 4.83625 40.0737C2.5175 41.2887 0.935 42.3788 0.85375 42.435L0 43.0325L0.685 43.825C0.75 43.9013 2.03125 45.3638 3.9975 47.1338C3.26625 47.1863 2.8075 47.1263 2.7525 47.1175L0.4075 46.7438L1.90625 48.6287C2.1075 48.885 6.94125 54.8812 13.8212 55.775C17.7388 56.2837 21.5612 55.3175 24.3162 53.1263C25.9475 51.8262 27.07 50.145 27.615 48.2962L32.6012 49.18C27.8362 51.3375 24.8913 53.7388 23.2075 55.4625C22.1825 56.5112 21.735 57.205 21.7175 57.2337L20.9513 58.43L28.8575 57.0437L27.3512 58.5925C27.3512 58.5925 45.1037 55.5187 55.6525 63.0825L53.4312 65.37L57.9675 70.04L59.7738 68.1812C60.9113 71.1862 61.565 75 61.565 75L65.025 71.4575L67.4337 73.9238L73.9413 67.2625L71.5325 64.7975L75 61.2475C75 61.2475 71.27 60.5537 68.3388 59.3687L70.1475 57.5063L65.61 52.8363L63.385 55.125C56.0325 44.2687 59.0225 25.9987 59.0225 25.9987L57.9275 27.1275L59.5675 13.6012ZM36.9663 3.2275C37.8763 3.75375 39.3488 4.66125 40.9338 5.8375C40.8713 7.1375 40.5725 8.72125 39.7937 10.4838C38.0487 9.7725 36.775 8.8475 35.8587 7.96C36.2113 5.9775 36.6637 4.25875 36.9663 3.2275ZM42.6813 3.68875C44.7687 5.01875 48.1725 7.68125 49.72 11.6425C52 17.4813 50.2762 23.715 45.88 25.5387C45.7037 25.6112 45.525 25.6725 45.3387 25.72C45.3387 25.72 45.3387 25.72 45.3375 25.7212C42.9375 26.3638 39.9237 25.1737 38.4825 23.0137C36.9475 20.715 37.355 17.6812 39.6325 14.4688C42.7988 9.98875 42.9863 6.03 42.6813 3.68875ZM44.175 27.9425L46.3975 33.4238C45.25 31.8162 44.2875 29.9287 43.4813 28.0262C43.715 28.01 43.9437 27.9738 44.175 27.9425ZM33.4325 18.42C31.8875 14.4662 32.5525 10.1025 33.1612 7.64375C34.165 9.045 35.9613 10.8812 38.9463 12.1425C38.7075 12.5462 38.4475 12.955 38.1512 13.3725C34.9975 17.8288 35.5125 21.1575 36.4475 23.1287C35.1912 21.85 34.1475 20.2525 33.4325 18.42ZM37.9987 26.665C38.2487 29.9588 39.175 33.8287 41.4912 37.8337L36.0762 34.0037C37.3013 31.4062 37.24 28.2662 36.06 25.2925C36.675 25.8112 37.3187 26.28 37.9987 26.665ZM43.9837 41.11L41.98 43.1612L34.4362 36.4362C34.6125 36.24 34.79 36.0475 34.9487 35.8375L35.0863 35.635C35.1125 35.6012 35.145 35.5688 35.1712 35.5363C35.28 35.3913 35.3675 35.2363 35.4662 35.0863L43.9837 41.11ZM20.1787 17.1963C22.6375 17.265 26.8875 17.8012 30.1787 20.4187C35.03 24.2762 36.62 30.5475 33.7275 34.3963C33.6113 34.5488 33.4863 34.6938 33.35 34.8338C31.595 36.6313 28.4075 37.1613 26.0963 36.045C23.6375 34.8563 22.49 32.0262 22.8687 28.0775C23.3913 22.5725 21.5962 19.0575 20.1787 17.1963ZM36.605 40.02C35.2875 39.2212 34.0837 38.45 32.9875 37.7188C33.1925 37.5762 33.3737 37.4062 33.5638 37.2463C33.5513 37.2563 33.5425 37.27 33.5312 37.2788L36.605 40.02ZM15.02 19.7537C16.0625 19.7362 17.7838 19.76 19.7313 19.9525C20.3225 21.1063 20.845 22.6288 21.0437 24.5513C19.185 24.8388 17.63 24.7013 16.4 24.41C15.725 22.5163 15.2662 20.8 15.02 19.7537ZM13.9188 25.5325C15.4738 26.2238 17.9325 26.8775 21.13 26.4212C21.1237 26.895 21.1025 27.3838 21.0525 27.895C20.53 33.3725 22.6175 35.9787 24.3987 37.1937C23.9587 37.0775 23.5238 36.935 23.09 36.77C22.1987 36.1463 21.2175 35.6012 20.1513 35.1787C19.9237 35.0175 19.6925 34.8688 19.4712 34.6912C16.185 32.0775 14.605 27.9688 13.9188 25.5325ZM25.86 39.3675C26.6975 39.46 27.53 39.4613 28.35 39.3825C29.2075 40.7675 30.2188 42.265 31.3838 43.7375L27.8438 43.59C27.5312 42.08 26.8525 40.6425 25.86 39.3675ZM2.78625 43.3875C3.67625 42.83 5.1675 41.9512 6.94 41.1025C8.0225 41.79 9.2275 42.825 10.3575 44.3787C8.90125 45.5937 7.49375 46.2863 6.29125 46.675C4.7675 45.3988 3.51875 44.1587 2.78625 43.3875ZM14.0513 53.9212C9.92375 53.385 6.5175 50.6725 4.7125 48.935C6.39625 48.7175 8.83625 48.0012 11.36 45.9412C11.5925 46.35 11.815 46.7825 12.0288 47.2475C14.3025 52.235 17.3962 53.3887 19.535 53.5088C17.835 54.0125 15.9637 54.17 14.0513 53.9212ZM26.065 46.8087V46.8113C25.4475 49.2713 22.97 51.39 20.425 51.6325C17.7175 51.89 15.3225 50.0538 13.6812 46.4563C11.3912 41.4475 8.1 39.3613 5.95125 38.4975C8.10125 37.2738 12.0262 35.5225 16.1612 36.0575C17.26 36.2 18.3038 36.4688 19.2775 36.8363C20.2425 37.5 21.255 38.0463 22.295 38.46C24.9613 40.4138 26.525 43.2775 26.1725 46.2388C26.1475 46.43 26.1137 46.62 26.065 46.8087ZM29.8137 55.6125L23.7512 56.6763C25.4338 54.8687 28.905 51.9238 34.9938 49.5125L36.2675 49.01L29.8137 55.6125ZM36.6375 48.63L27.895 47.0813C27.9088 47.0013 27.9287 46.9212 27.94 46.8412L27.9588 46.5975C27.9638 46.5525 27.9812 46.5088 27.9837 46.465C28.0487 45.92 28.0463 45.38 28.0112 44.8425L34.1237 45.1012L33.195 44.01C31.835 42.415 30.655 40.7263 29.6638 39.1538C30.4213 38.98 31.1488 38.7475 31.8188 38.4163C34.3088 40.1 37.4188 42.04 41.0638 43.9675L41.15 44.0125L36.6375 48.63ZM72.2188 67.265L67.4325 72.165L65.8875 70.575L70.6763 65.675L72.2188 67.265ZM65.61 54.6012L68.4325 57.5063L57.9663 68.275L55.145 65.37L65.61 54.6012ZM44.6838 40.3925L44.2725 39.8387C40.9813 35.39 39.6688 30.9875 39.2763 27.2837C40.2213 27.675 41.1863 27.9275 42.1425 28.015C43.5187 31.3787 45.3975 34.7837 47.8937 36.9287L47.9887 37.0112L44.6838 40.3925ZM48.8237 36.1575L45.3913 27.695C45.6712 27.6138 45.9488 27.5238 46.2213 27.4125L46.44 27.3113C46.48 27.2938 46.525 27.2863 46.5662 27.2688C47.0337 27.075 47.4688 26.8275 47.8875 26.56L51.775 33.1375L48.8237 36.1575ZM52.7738 32.1125C53.6125 26.8938 56.0912 21.7812 57.7025 18.875L56.5675 28.2288L52.7738 32.1125Z" fill="#DAA622"/>
</svg>
