<svg width="84" height="75" viewBox="0 0 84 75" fill="none" xmlns="http://www.w3.org/2000/svg">
<path d="M78.0492 37.4987C78.2671 37.2325 78.4906 36.9663 78.7016 36.7C84.1369 29.755 85.2824 23.3075 81.9326 18.5437C78.8357 14.1425 72.1822 11.7188 63.1918 11.7188C61.6231 11.7188 59.9971 11.8012 58.3348 11.9475C54.2935 4.56375 48.4768 0 41.9072 0C35.3404 0 29.5237 4.56375 25.4825 11.9475C23.8216 11.8012 22.1942 11.7188 20.6269 11.7188C11.6392 11.7188 4.98297 14.1425 1.88604 18.5437C-1.46652 23.3075 -0.319662 29.755 5.11428 36.7C5.32381 36.9663 5.54732 37.2325 5.76663 37.4987C5.54592 37.765 5.32242 38.03 5.11288 38.2988C-0.321059 45.2412 -1.46791 51.6912 1.88465 56.455C4.98157 60.855 11.6378 63.2812 20.6255 63.2812H20.6283C22.1956 63.2812 23.8202 63.1988 25.4811 63.0513C29.5223 70.4375 35.339 75 41.9072 75C48.4782 75 54.2949 70.4375 58.3348 63.0513C59.9957 63.1975 61.6231 63.2812 63.1918 63.2812C72.1822 63.2812 78.8357 60.8575 81.9326 56.455C85.2824 51.6912 84.1369 45.2412 78.7016 38.2988C78.4906 38.03 78.2671 37.765 78.0492 37.4987ZM63.1904 13.8688C71.203 13.8688 77.0532 15.91 79.6612 19.6187C82.4983 23.6512 81.378 29.305 76.4959 35.5387C76.4707 35.57 76.4414 35.6012 76.4162 35.6325C72.8807 31.8225 68.2779 28.155 62.911 24.85C62.0924 20.8737 60.8897 17.2262 59.381 14.0175C60.6802 13.9212 61.9555 13.8688 63.1904 13.8688ZM52.8394 53.0375C49.2549 54.7363 45.5769 56.1675 41.9086 57.3613C38.2404 56.1675 34.5609 54.7363 30.9751 53.0375C28.293 51.765 25.7437 50.3963 23.3396 48.955C22.6454 45.3613 22.2626 41.5112 22.2626 37.5C22.2626 33.4888 22.6454 29.6362 23.3396 26.0425C25.7451 24.6025 28.293 23.2325 30.9751 21.9625C34.5595 20.2638 38.239 18.8312 41.9086 17.64C45.5755 18.8325 49.2535 20.265 52.8394 21.9625C55.5214 23.2325 58.0694 24.6025 60.4734 26.0413C61.1691 29.635 61.5504 33.4875 61.5504 37.5C61.5504 41.51 61.1691 45.3638 60.4734 48.9575C58.0694 50.395 55.5214 51.7675 52.8394 53.0375ZM59.8001 51.985C58.9927 55.1713 57.9255 58.1037 56.6515 60.6987C53.0852 60.2712 49.3555 59.5125 45.5629 58.46C48.4517 57.4225 51.3307 56.2313 54.1483 54.8975C56.0997 53.975 57.9855 53 59.8001 51.985ZM38.2515 58.46C34.4604 59.5125 30.7306 60.2712 27.1657 60.6987C25.889 58.1037 24.8245 55.1713 24.0157 51.985C25.8303 53.0013 27.7161 53.975 29.6662 54.8975C32.4837 56.2325 35.3614 57.4238 38.2515 58.46ZM20.3517 47.0875C15.8271 44.0962 11.98 40.8475 8.98649 37.5C11.98 34.1538 15.8257 30.9013 20.3517 27.9125C19.8907 30.9637 19.6448 34.175 19.6448 37.5013C19.6448 40.825 19.8907 44.0362 20.3517 47.0875ZM24.0143 23.0163C24.8231 19.8312 25.8876 16.8975 27.1643 14.3025C30.7292 14.7288 34.459 15.4875 38.2515 16.54C35.3614 17.5775 32.4837 18.7688 29.6662 20.1038C27.7161 21.0263 25.8303 22 24.0143 23.0163ZM45.5657 16.5387C49.3555 15.4875 53.0852 14.7288 56.6515 14.3013C57.9255 16.8962 58.9927 19.8288 59.8001 23.015C57.9855 21.9988 56.1011 21.025 54.1497 20.1012C51.3335 18.7687 48.4559 17.5763 45.5657 16.5387ZM63.4642 27.9113C67.9874 30.9013 71.8372 34.1525 74.8308 37.5C71.8372 40.8475 67.9915 44.1 63.4642 47.0875C63.9252 44.0362 64.171 40.825 64.171 37.5013C64.171 34.1737 63.9252 30.9625 63.4642 27.9113ZM41.9072 2.34375C47.2057 2.34375 52.0194 6.12375 55.5549 12.2475C51.1645 12.8238 46.5491 13.865 41.9086 15.3175C37.2681 13.865 32.6514 12.8238 28.2609 12.2475C31.7979 6.12375 36.6088 2.34375 41.9072 2.34375ZM7.31719 35.5387C2.43922 29.305 1.31471 23.65 4.15182 19.6187C6.76122 15.91 12.6128 13.8688 20.6255 13.8688C21.8603 13.8688 23.1343 13.9212 24.4334 14.0175C22.922 17.2262 21.7206 20.8737 20.9006 24.85C15.5352 28.155 10.9324 31.8238 7.39681 35.6325C7.37307 35.6012 7.34234 35.57 7.31719 35.5387ZM20.6296 61.13H20.6269C12.6142 61.13 6.76402 59.0888 4.15321 55.38C1.31611 51.3488 2.43922 45.695 7.31859 39.46C7.34373 39.4287 7.37446 39.3988 7.39961 39.3675C10.9352 43.1763 15.5379 46.845 20.9034 50.1512C21.7234 54.1262 22.9248 57.7762 24.4362 60.9837C23.1357 61.0787 21.8631 61.13 20.6296 61.13ZM41.9072 72.6562C36.6102 72.6562 31.7979 68.8775 28.2609 62.7513C32.65 62.175 37.2653 61.1325 41.9058 59.6825C46.5463 61.1325 51.1645 62.175 55.5549 62.7513C52.018 68.8775 47.2057 72.6562 41.9072 72.6562ZM79.664 55.3812C77.0532 59.09 71.203 61.1312 63.1904 61.1312C61.9541 61.1312 60.6802 61.08 59.381 60.985C60.8897 57.775 62.0924 54.1275 62.911 50.1525C68.2779 46.8463 72.8807 43.1775 76.4162 39.3662C76.4414 39.3975 76.4707 39.43 76.4987 39.4613C81.378 45.6963 82.5025 51.35 79.664 55.3812Z" fill="#DAA622"/>
<path d="M41.9072 44.5312C46.2469 44.5312 49.7648 41.3833 49.7648 37.5C49.7648 33.6167 46.2469 30.4688 41.9072 30.4688C37.5676 30.4688 34.0497 33.6167 34.0497 37.5C34.0497 41.3833 37.5676 44.5312 41.9072 44.5312Z" fill="#DAA622"/>
</svg>
