<?xml version="1.0" encoding="UTF-8"?>
<!DOCTYPE svg PUBLIC "-//W3C//DTD SVG 1.1//EN" "http://www.w3.org/Graphics/SVG/1.1/DTD/svg11.dtd">
<svg xmlns="http://www.w3.org/2000/svg" version="1.1" width="1280px" height="1280px" style="shape-rendering:geometricPrecision; text-rendering:geometricPrecision; image-rendering:optimizeQuality; fill-rule:evenodd; clip-rule:evenodd" xmlns:xlink="http://www.w3.org/1999/xlink">
<g><path style="opacity:1" fill="#111111" d="M -0.5,-0.5 C 426.167,-0.5 852.833,-0.5 1279.5,-0.5C 1279.5,426.167 1279.5,852.833 1279.5,1279.5C 852.833,1279.5 426.167,1279.5 -0.5,1279.5C -0.5,852.833 -0.5,426.167 -0.5,-0.5 Z"/></g>
<g><path style="opacity:1" fill="#daa622" d="M 564.5,293.5 C 617.709,289.357 658.876,309.357 688,353.5C 702.477,378.697 707.811,405.697 704,434.5C 700.212,446.646 692.046,451.48 679.5,449C 673.333,446.833 669.167,442.667 667,436.5C 671.609,398.939 659.109,368.772 629.5,346C 599.382,327.835 568.715,326.835 537.5,343C 514.63,356.888 500.797,377.055 496,403.5C 495.667,414.167 495.333,424.833 495,435.5C 492.409,444.88 486.243,449.547 476.5,449.5C 467.384,448.9 461.217,444.233 458,435.5C 452.62,383.102 471.454,341.935 514.5,312C 530.072,302.536 546.738,296.369 564.5,293.5 Z"/></g>
<g><path style="opacity:1" fill="#4d4d4d" d="M 639.5,413.5 C 639.167,458.172 639.5,502.838 640.5,547.5C 641.107,547.376 641.44,547.043 641.5,546.5C 667.352,539.425 689.352,545.758 707.5,565.5C 736.8,548.444 763.3,552.111 787,576.5C 816.823,559.758 843.489,563.758 867,588.5C 873.502,597.51 877.836,607.51 880,618.5C 880.385,680.006 881.218,741.506 882.5,803C 882.154,891.676 839.82,949.676 755.5,977C 691.629,994.563 631.296,986.563 574.5,953C 540.369,931.538 513.869,903.038 495,867.5C 463.652,806.802 432.318,746.135 401,685.5C 390.19,654.944 397.69,630.11 423.5,611C 446.95,598.69 469.616,600.024 491.5,615C 496.367,619.532 500.867,624.366 505,629.5C 510.433,638.7 515.599,648.033 520.5,657.5C 520.56,658.043 520.893,658.376 521.5,658.5C 522.5,577.169 522.833,495.836 522.5,414.5C 525.622,389.43 538.956,372.264 562.5,363C 594.067,355.293 617.9,365.46 634,393.5C 636.957,399.869 638.79,406.536 639.5,413.5 Z"/></g>
<g><path style="opacity:1" fill="#f6f6f6" d="M 575.5,398.5 C 588.854,397.082 597.354,402.749 601,415.5C 601.333,494.5 601.667,573.5 602,652.5C 604.425,666.898 612.925,672.731 627.5,670C 634.382,667.093 638.548,661.926 640,654.5C 640.333,635.5 640.667,616.5 641,597.5C 646.482,583.34 656.316,578.84 670.5,584C 675.445,586.946 678.945,591.112 681,596.5C 681.333,619.5 681.667,642.5 682,665.5C 684.966,678.574 693.132,684.074 706.5,682C 713.428,679.406 717.928,674.573 720,667.5C 720.333,647.833 720.667,628.167 721,608.5C 729.163,592.011 740.83,589.011 756,599.5C 757.92,602.339 759.587,605.339 761,608.5C 761.333,631.5 761.667,654.5 762,677.5C 766.281,691.425 775.447,696.258 789.5,692C 793.719,689.448 796.886,685.948 799,681.5C 800.299,660.898 800.966,640.231 801,619.5C 807.687,605.069 818.187,601.235 832.5,608C 835.762,610.592 838.262,613.759 840,617.5C 841.486,678.133 842.986,738.799 844.5,799.5C 846.291,869.459 814.291,915.959 748.5,939C 684.801,957.054 626.801,946.054 574.5,906C 556.697,890.208 541.863,872.041 530,851.5C 498.652,790.802 467.318,730.135 436,669.5C 432.309,656.051 436.809,646.551 449.5,641C 459.162,639.665 466.995,642.831 473,650.5C 489.828,680.827 507.161,710.827 525,740.5C 532.909,749.344 542.075,750.844 552.5,745C 556.257,741.579 558.757,737.412 560,732.5C 560.333,626.167 560.667,519.833 561,413.5C 564.021,406.647 568.855,401.647 575.5,398.5 Z"/></g>
<g><path style="opacity:1" fill="#7e7e7e" d="M 639.5,413.5 C 640.167,457.833 640.833,502.167 641.5,546.5C 641.44,547.043 641.107,547.376 640.5,547.5C 639.5,502.838 639.167,458.172 639.5,413.5 Z"/></g>
<g><path style="opacity:1" fill="#7c7c7c" d="M 522.5,414.5 C 522.833,495.836 522.5,577.169 521.5,658.5C 520.893,658.376 520.56,658.043 520.5,657.5C 521.167,576.5 521.833,495.5 522.5,414.5 Z"/></g>
</svg>
