<?xml version="1.0" standalone="no"?>
<!DOCTYPE svg PUBLIC "-//W3C//DTD SVG 20010904//EN"
 "http://www.w3.org/TR/2001/REC-SVG-20010904/DTD/svg10.dtd">
<svg version="1.0" xmlns="http://www.w3.org/2000/svg"
 width="1600.000000pt" height="905.000000pt" viewBox="0 0 1280.000000 905.000000"
 preserveAspectRatio="xMidYMid meet">

<g transform="translate(0.000000,905.000000) scale(0.100000,-0.100000)"
fill="#DAA622" stroke="none">
<path d="M0 4530 l0 -4520 6400 0 6400 0 0 4520 0 4520 -2779 0 -2779 0 -94
-92 c-145 -144 -315 -233 -538 -281 -113 -24 -365 -29 -470 -8 -250 48 -470
163 -613 321 l-54 60 -2736 0 -2737 0 0 -4520z m1143 4029 c21 -5 52 -23 70
-39 l32 -28 3 -304 c2 -327 2 -333 -51 -372 -27 -20 -40 -21 -302 -21 -262 0
-275 1 -302 21 -50 37 -55 71 -51 384 2 157 7 293 12 302 10 22 53 50 91 59
48 11 456 10 498 -2z m1642 -10 c72 -40 70 -28 70 -362 0 -337 -2 -348 -65
-379 -31 -16 -67 -18 -285 -18 -274 0 -296 4 -339 63 -19 25 -20 46 -24 295
-5 335 2 366 93 408 47 22 508 15 550 -7z m1562 12 c23 -4 58 -21 77 -37 l35
-29 0 -316 1 -315 -27 -26 c-51 -47 -59 -48 -323 -48 -227 0 -254 2 -288 19
-66 34 -67 39 -67 376 0 341 -3 328 80 366 35 16 67 19 255 18 118 0 234 -4
257 -8z m1624 -1 c19 -5 48 -24 65 -41 l29 -30 0 -314 c0 -414 26 -385 -347
-384 -264 0 -297 5 -332 52 -20 27 -21 40 -21 337 l0 309 28 29 c16 16 43 34
60 40 41 13 471 15 518 2z m1636 -13 c68 -36 68 -39 68 -367 0 -329 -2 -341
-65 -372 -31 -16 -67 -18 -290 -18 -235 0 -257 2 -287 20 -59 35 -63 50 -70
246 -3 99 -2 237 2 309 7 126 8 130 37 157 17 15 44 32 62 37 17 6 139 9 271
8 208 -2 244 -4 272 -20z m1621 -6 c18 -13 38 -34 43 -48 5 -13 9 -160 9 -327
l0 -302 -27 -26 c-51 -47 -59 -48 -323 -48 -233 0 -254 1 -291 21 -68 34 -70
48 -67 384 l3 294 28 29 c45 47 71 51 342 49 245 -2 251 -2 283 -26z m1563 19
c19 -5 48 -24 65 -41 l29 -30 0 -314 0 -313 -24 -26 c-14 -14 -41 -30 -60 -36
-20 -5 -143 -10 -274 -10 -259 0 -286 5 -325 55 -21 27 -22 35 -21 319 0 338
2 350 69 384 42 21 56 22 275 22 126 0 246 -5 266 -10z m1636 -13 c68 -36 68
-39 68 -367 0 -279 -1 -297 -20 -330 -32 -54 -59 -59 -333 -59 -261 -1 -281 2
-334 52 l-28 26 0 289 c0 179 4 301 11 320 9 27 59 70 99 85 8 4 125 5 260 4
213 -2 249 -4 277 -20z m-90 -929 c40 -16 75 -39 114 -78 l57 -56 7 -1574 c10
-2092 3 -4234 -14 -4275 -18 -43 -78 -103 -133 -131 l-47 -24 -5921 0 -5921 0
-49 25 c-55 28 -115 84 -133 123 -17 38 -23 5803 -6 5844 15 36 100 115 147
136 31 14 83 18 302 22 146 3 2801 7 5902 8 l5636 2 59 -22z m-11170 -6351
c57 -30 58 -34 58 -367 0 -279 -2 -308 -18 -334 -34 -51 -63 -56 -332 -56
-261 0 -289 4 -330 50 -19 21 -20 39 -23 314 -4 316 1 352 46 382 40 27 104
33 347 30 184 -2 225 -5 252 -19z m1602 -1 c65 -34 66 -38 66 -371 0 -273 -2
-302 -18 -327 -37 -54 -61 -58 -345 -58 l-259 0 -44 39 -44 39 0 303 c0 326 1
333 52 367 34 21 174 31 400 27 123 -3 168 -7 192 -19z m1604 0 c21 -10 43
-28 50 -40 9 -15 12 -105 12 -326 0 -342 -1 -347 -70 -376 -49 -20 -511 -20
-560 0 -69 29 -70 35 -70 366 0 162 3 307 7 321 10 34 52 61 108 70 25 4 144
6 265 5 189 -2 225 -5 258 -20z m1620 -5 c53 -33 59 -78 55 -400 -3 -238 -5
-270 -21 -295 -35 -53 -63 -57 -347 -54 -244 3 -260 4 -287 24 -15 11 -34 32
-40 45 -17 31 -18 581 -2 627 25 71 76 81 385 78 209 -2 222 -3 257 -25z
m1594 5 c67 -34 68 -38 68 -366 0 -263 -2 -299 -18 -327 -30 -56 -38 -58 -327
-61 -378 -4 -360 -19 -367 307 -3 119 -1 258 5 310 16 155 32 162 382 157 187
-2 230 -6 257 -20z m1606 0 c21 -10 43 -28 50 -40 8 -15 13 -110 15 -326 3
-295 3 -307 -17 -332 -43 -54 -67 -58 -335 -58 -262 0 -290 4 -331 50 -19 21
-20 39 -23 285 -4 293 4 365 43 404 34 35 83 40 340 37 189 -2 225 -5 258 -20z
m1609 0 c60 -29 63 -44 63 -376 0 -270 -2 -298 -18 -324 -35 -53 -63 -57 -347
-54 -244 3 -260 4 -287 24 -51 38 -53 47 -53 361 0 160 4 302 9 316 13 34 58
60 116 68 28 4 147 6 265 5 182 -2 221 -5 252 -20z m1607 0 c65 -34 66 -39 66
-366 0 -259 -2 -299 -17 -326 -30 -55 -55 -59 -348 -59 -296 0 -302 1 -334 68
-14 30 -16 75 -16 304 0 147 5 284 10 304 6 19 22 46 36 60 23 21 37 25 137
30 189 11 430 3 466 -15z"/>
</g>
</svg>
