<?xml version="1.0" encoding="UTF-8"?>
<!DOCTYPE svg PUBLIC "-//W3C//DTD SVG 1.1//EN" "http://www.w3.org/Graphics/SVG/1.1/DTD/svg11.dtd">
<svg xmlns="http://www.w3.org/2000/svg" version="1.1" width="1280px" height="905px" style="shape-rendering:geometricPrecision; text-rendering:geometricPrecision; image-rendering:optimizeQuality; fill-rule:evenodd; clip-rule:evenodd" xmlns:xlink="http://www.w3.org/1999/xlink">
<g><path style="opacity:0.006" fill="#DAA622" d="M 10.5,-0.5 C 11.1667,-0.5 11.8333,-0.5 12.5,-0.5C 12.1667,0.166667 11.8333,0.833333 11.5,1.5C 9.30228,1.59121 8.96895,0.924541 10.5,-0.5 Z"/></g>
<g><path style="opacity:0.977" fill="#DAA622" d="M 15.5,-0.5 C 431.5,-0.5 847.5,-0.5 1263.5,-0.5C 1264.21,0.403972 1265.21,0.737305 1266.5,0.5C 1266.5,1.16667 1266.83,1.5 1267.5,1.5C 1268.29,2.40128 1269.29,3.06795 1270.5,3.5C 1270.5,4.16667 1270.83,4.5 1271.5,4.5C 1272.17,5.83333 1272.83,5.83333 1273.5,4.5C 1275.5,6.5 1277.5,8.5 1279.5,10.5C 1279.5,11.5 1279.5,12.5 1279.5,13.5C 1278.17,14.1667 1278.17,14.8333 1279.5,15.5C 1279.5,26.8333 1279.5,38.1667 1279.5,49.5C 1271.83,49.3336 1264.16,49.5003 1256.5,50C 1255.58,50.2784 1254.92,50.7784 1254.5,51.5C 1253.51,51.3284 1252.84,51.6618 1252.5,52.5C 1251.83,52.5 1251.5,52.8333 1251.5,53.5C 1250.17,53.8333 1250.17,54.1667 1251.5,54.5C 1251.67,55.4916 1251.34,56.1583 1250.5,56.5C 1250.17,55.1667 1249.83,55.1667 1249.5,56.5C 1248.6,57.209 1248.26,58.209 1248.5,59.5C 1247.51,63.97 1247.18,68.6367 1247.5,73.5C 1246.03,71.8657 1244.36,70.3657 1242.5,69C 1224.17,68.3333 1205.83,68.3333 1187.5,69C 1185.31,70.025 1183.65,71.525 1182.5,73.5C 1182.88,68.7027 1182.38,64.036 1181,59.5C 1180.67,60.1667 1180.33,60.8333 1180,61.5C 1179.65,59.7818 1179.15,58.1151 1178.5,56.5C 1179.39,54.6552 1178.73,53.3218 1176.5,52.5C 1176.5,51.8333 1176.17,51.5 1175.5,51.5C 1174.74,50.7321 1173.74,50.2321 1172.5,50C 1165.33,49.8333 1158.17,49.6667 1151,49.5C 1142.76,49.3802 1134.59,49.8802 1126.5,51C 1125.38,53.6084 1123.88,56.4417 1122,59.5C 1121.33,56.8333 1120.67,56.8333 1120,59.5C 1119.5,64.1548 1119.33,68.8215 1119.5,73.5C 1118.16,71.6932 1116.5,70.1932 1114.5,69C 1096.17,68.3333 1077.83,68.3333 1059.5,69C 1057.31,70.025 1055.65,71.525 1054.5,73.5C 1054.67,69.1539 1054.5,64.8206 1054,60.5C 1053.33,59.1667 1052.67,59.1667 1052,60.5C 1051.28,58.8876 1051.45,57.3876 1052.5,56C 1051.75,54.513 1050.91,54.3463 1050,55.5C 1049.76,53.8619 1048.92,52.3619 1047.5,51C 1039.41,49.8802 1031.24,49.3802 1023,49.5C 1014.76,49.3802 1006.59,49.8802 998.5,51C 997.167,52.3333 995.833,53.6667 994.5,55C 995.276,56.7698 995.11,58.6031 994,60.5C 992.984,59.3659 992.317,59.6992 992,61.5C 991.501,65.4862 991.334,69.4862 991.5,73.5C 990.354,71.525 988.687,70.025 986.5,69C 968.167,68.3333 949.833,68.3333 931.5,69C 929.503,70.1932 927.836,71.6932 926.5,73.5C 925.183,83.507 925.183,92.1737 926.5,99.5C 927.977,101.807 929.977,103.64 932.5,105C 950.167,105.667 967.833,105.667 985.5,105C 987.968,104.021 989.968,102.521 991.5,100.5C 991.112,105.628 991.612,110.628 993,115.5C 993.333,115.167 993.667,114.833 994,114.5C 995.11,116.397 995.276,118.23 994.5,120C 995.373,121.045 996.373,121.878 997.5,122.5C 997.5,123.167 997.833,123.5 998.5,123.5C 999.263,124.268 1000.26,124.768 1001.5,125C 1015.83,125.667 1030.17,125.667 1044.5,125C 1045.74,124.768 1046.74,124.268 1047.5,123.5C 1048.17,123.5 1048.5,123.167 1048.5,122.5C 1050.73,121.678 1051.39,120.345 1050.5,118.5C 1051.1,117.205 1051.6,115.872 1052,114.5C 1052.67,115.833 1053.33,115.833 1054,114.5C 1054.5,109.845 1054.67,105.179 1054.5,100.5C 1056.03,102.521 1058.03,104.021 1060.5,105C 1078.17,105.667 1095.83,105.667 1113.5,105C 1115.66,103.668 1117.66,102.168 1119.5,100.5C 1119.33,105.179 1119.5,109.845 1120,114.5C 1122.69,115.702 1123.53,117.536 1122.5,120C 1123.83,121.333 1125.17,122.667 1126.5,124C 1134.59,125.12 1142.76,125.62 1151,125.5C 1158.17,125.333 1165.33,125.167 1172.5,125C 1175.36,124.07 1177.69,122.403 1179.5,120C 1179.04,119.586 1178.71,119.086 1178.5,118.5C 1179.15,116.885 1179.65,115.218 1180,113.5C 1180.67,116.167 1181.33,116.167 1182,113.5C 1182.5,109.179 1182.67,104.846 1182.5,100.5C 1183.84,102.307 1185.5,103.807 1187.5,105C 1205.5,105.667 1223.5,105.667 1241.5,105C 1244.02,103.64 1246.02,101.807 1247.5,99.5C 1247.33,104.844 1247.5,110.177 1248,115.5C 1250.16,116.317 1251.99,118.15 1253.5,121C 1252.83,121.333 1252.17,121.667 1251.5,122C 1253.22,123.559 1255.22,124.392 1257.5,124.5C 1264.65,125.492 1271.98,125.825 1279.5,125.5C 1279.5,343.167 1279.5,560.833 1279.5,778.5C 1272.31,778.175 1265.31,778.509 1258.5,779.5C 1257.21,779.263 1256.21,779.596 1255.5,780.5C 1254.51,780.328 1253.84,780.662 1253.5,781.5C 1252.83,781.5 1252.5,781.833 1252.5,782.5C 1251.83,782.5 1251.5,782.833 1251.5,783.5C 1250.17,783.833 1250.17,784.167 1251.5,784.5C 1251.25,786.674 1250.25,788.341 1248.5,789.5C 1247.52,793.298 1247.18,797.298 1247.5,801.5C 1246.4,799.897 1245.07,798.397 1243.5,797C 1224.5,796.333 1205.5,796.333 1186.5,797C 1184.93,798.397 1183.6,799.897 1182.5,801.5C 1181.18,812.848 1181.18,821.515 1182.5,827.5C 1183.6,829.103 1184.93,830.603 1186.5,832C 1205.17,832.667 1223.83,832.667 1242.5,832C 1244.69,830.975 1246.35,829.475 1247.5,827.5C 1247.08,833.952 1247.58,840.285 1249,846.5C 1249.67,843.833 1250.33,843.833 1251,846.5C 1250.18,850.546 1252.01,852.879 1256.5,853.5C 1263.98,854.492 1271.65,854.825 1279.5,854.5C 1279.5,865.833 1279.5,877.167 1279.5,888.5C 1278.17,889.167 1278.17,889.833 1279.5,890.5C 1279.5,891.5 1279.5,892.5 1279.5,893.5C 1277.5,895.5 1275.5,897.5 1273.5,899.5C 1272.83,898.167 1272.17,898.167 1271.5,899.5C 1270.83,899.5 1270.5,899.833 1270.5,900.5C 1269.83,900.5 1269.5,900.833 1269.5,901.5C 1268.51,901.328 1267.84,901.662 1267.5,902.5C 1266.83,902.5 1266.5,902.833 1266.5,903.5C 1265.21,903.263 1264.21,903.596 1263.5,904.5C 847.5,904.5 431.5,904.5 15.5,904.5C 14.4863,903.326 13.153,902.66 11.5,902.5C 9.87669,901.221 8.21002,899.887 6.5,898.5C 4.60435,899.639 3.60435,898.973 3.5,896.5C 4.83333,896.167 4.83333,895.833 3.5,895.5C 3.5,894.833 3.16667,894.5 2.5,894.5C 2.16667,891.833 1.83333,891.833 1.5,894.5C 0.833333,894.167 0.166667,893.833 -0.5,893.5C -0.5,892.5 -0.5,891.5 -0.5,890.5C 0.833333,889.833 0.833333,889.167 -0.5,888.5C -0.5,877.167 -0.5,865.833 -0.5,854.5C 7.35156,854.825 15.0182,854.492 22.5,853.5C 26.8905,852.805 28.8905,850.471 28.5,846.5C 29.325,845.614 30.325,845.281 31.5,845.5C 31.5,839.5 31.5,833.5 31.5,827.5C 32.8362,829.307 34.5029,830.807 36.5,832C 55.1667,832.667 73.8333,832.667 92.5,832C 94.0703,830.603 95.4036,829.103 96.5,827.5C 97.8268,822.523 97.8268,813.523 96.5,800.5C 95.0384,799.542 93.7051,798.376 92.5,797C 73.5,796.333 54.5,796.333 35.5,797C 33.9297,798.397 32.5964,799.897 31.5,801.5C 31.8885,796.372 31.3885,791.372 30,786.5C 29.3333,787.833 28.6667,787.833 28,786.5C 27.3828,785.551 27.5494,784.718 28.5,784C 27.4567,782.024 26.1233,781.524 24.5,782.5C 23.2054,781.902 21.8721,781.402 20.5,781C 24.5,780.333 24.5,779.667 20.5,779C 13.5079,778.5 6.50793,778.334 -0.5,778.5C -0.5,560.833 -0.5,343.167 -0.5,125.5C 6.8409,125.666 14.1742,125.5 21.5,125C 26.2748,123.735 28.6081,120.901 28.5,116.5C 29.376,115.749 30.376,115.249 31.5,115C 30.181,106.064 29.5143,96.8969 29.5,87.5C 29.6667,78.5 29.8333,69.5 30,60.5C 29.8782,82.5443 30.3782,95.8776 31.5,100.5C 33.34,102.168 35.34,103.668 37.5,105C 55.1667,105.667 72.8333,105.667 90.5,105C 92.9676,104.021 94.9676,102.521 96.5,100.5C 96.3342,105.179 96.5008,109.845 97,114.5C 97.69,115.738 98.19,115.738 98.5,114.5C 99.5375,115.93 100.204,117.597 100.5,119.5C 100.062,119.435 99.7284,119.601 99.5,120C 100.333,120.833 101.167,121.667 102,122.5C 102.399,122.272 102.565,121.938 102.5,121.5C 103.922,121.709 105.255,122.209 106.5,123C 103.833,123.667 103.833,124.333 106.5,125C 120.833,125.667 135.167,125.667 149.5,125C 150.737,124.768 151.737,124.268 152.5,123.5C 153.167,123.5 153.5,123.167 153.5,122.5C 155.35,121.758 156.016,120.758 155.5,119.5C 155.892,117.821 156.392,116.154 157,114.5C 157.667,115.833 158.333,115.833 159,114.5C 159.499,109.845 159.666,105.179 159.5,100.5C 161.032,102.521 163.032,104.021 165.5,105C 183.167,105.667 200.833,105.667 218.5,105C 221.023,103.64 223.023,101.807 224.5,99.5C 225.816,92.1735 225.816,83.5069 224.5,73.5C 223.164,71.6932 221.497,70.1932 219.5,69C 201.167,68.3333 182.833,68.3333 164.5,69C 162.313,70.025 160.646,71.525 159.5,73.5C 159.666,69.1539 159.499,64.8206 159,60.5C 156.842,59.511 155.675,57.8444 155.5,55.5C 154.5,55.1667 153.833,54.5 153.5,53.5C 154.439,52.6726 154.105,52.0059 152.5,51.5C 151.791,50.596 150.791,50.2627 149.5,50.5C 135.167,49.1667 120.833,49.1667 106.5,50.5C 105.209,50.2627 104.209,50.596 103.5,51.5C 101.071,52.8551 99.7377,54.5217 99.5,56.5C 99.7678,58.099 99.4345,59.4324 98.5,60.5C 98.19,59.2617 97.69,59.2617 97,60.5C 96.501,64.8206 96.3343,69.1539 96.5,73.5C 95.3536,71.525 93.687,70.025 91.5,69C 73.1667,68.3333 54.8333,68.3333 36.5,69C 34.5029,70.1932 32.8362,71.6932 31.5,73.5C 31.8967,68.0414 31.3967,62.7081 30,57.5C 29.6667,58.1667 29.3333,58.8333 29,59.5C 27.1172,56.4417 25.6172,53.6084 24.5,51C 23.552,50.5172 22.552,50.3505 21.5,50.5C 14.3524,49.5084 7.01905,49.175 -0.5,49.5C -0.5,38.1667 -0.5,26.8333 -0.5,15.5C 0.338246,15.1583 0.67158,14.4916 0.5,13.5C 1.33825,13.1583 1.67158,12.4916 1.5,11.5C 2.33825,11.1583 2.67158,10.4916 2.5,9.5C 3.16667,9.5 3.5,9.16667 3.5,8.5C 4.83333,8.16667 4.83333,7.83333 3.5,7.5C 3.42702,5.97306 4.09368,4.97306 5.5,4.5C 6.16667,5.83333 6.83333,5.83333 7.5,4.5C 8.16667,4.5 8.5,4.16667 8.5,3.5C 9.70951,3.06795 10.7095,2.40128 11.5,1.5C 13.153,1.3404 14.4863,0.673734 15.5,-0.5 Z M 405.5,50.5 C 405.888,51.8154 407.222,52.8154 409.5,53.5C 409.833,54.5 410.5,55.1667 411.5,55.5C 411.687,57.5643 412.187,59.5643 413,61.5C 413.333,60.5 413.667,59.5 414,58.5C 414.667,77.8333 414.667,97.1667 414,116.5C 413.667,115.5 413.333,114.5 413,113.5C 412.187,115.436 411.687,117.436 411.5,119.5C 409.473,121.18 407.139,122.347 404.5,123C 390.5,123.667 376.5,123.667 362.5,123C 361.099,122.59 359.766,122.09 358.5,121.5C 357.833,120.167 356.833,119.167 355.5,118.5C 355.737,117.209 355.404,116.209 354.5,115.5C 354.5,96.8333 354.5,78.1667 354.5,59.5C 355.404,58.791 355.737,57.791 355.5,56.5C 356.906,56.0269 357.573,55.0269 357.5,53.5C 358.922,53.2914 360.255,52.7914 361.5,52C 360.906,51.5357 360.239,51.369 359.5,51.5C 359.918,50.7784 360.584,50.2784 361.5,50C 376.339,49.1724 391.006,49.3391 405.5,50.5 Z M 533.5,50.5 C 534.492,50.3284 535.158,50.6618 535.5,51.5C 535.062,51.4346 534.728,51.6012 534.5,52C 535.693,53.0946 537.027,53.928 538.5,54.5C 538.709,55.9217 539.209,57.255 540,58.5C 540.667,77.8333 540.667,97.1667 540,116.5C 539.209,117.745 538.709,119.078 538.5,120.5C 536.641,121.594 534.641,122.427 532.5,123C 517.468,123.785 502.468,123.618 487.5,122.5C 486.5,120.833 485.167,119.5 483.5,118.5C 482.178,97.821 482.178,77.1543 483.5,56.5C 484.906,56.0269 485.573,55.0269 485.5,53.5C 486.922,53.2914 488.255,52.7914 489.5,52C 488.906,51.5357 488.239,51.369 487.5,51.5C 487.918,50.7784 488.584,50.2784 489.5,50C 504.339,49.1724 519.006,49.3391 533.5,50.5 Z M 617.5,50.5 C 631.994,49.3391 646.661,49.1724 661.5,50C 662.416,50.2784 663.082,50.7784 663.5,51.5C 662.761,51.369 662.094,51.5357 661.5,52C 662.745,52.7914 664.078,53.2914 665.5,53.5C 665.427,55.0269 666.094,56.0269 667.5,56.5C 667.328,57.4916 667.662,58.1583 668.5,58.5C 668.81,78.546 668.476,98.546 667.5,118.5C 665.833,119.5 664.5,120.833 663.5,122.5C 648.532,123.618 633.532,123.785 618.5,123C 616.359,122.427 614.359,121.594 612.5,120.5C 612.291,119.078 611.791,117.745 611,116.5C 610.333,97.1667 610.333,77.8333 611,58.5C 611.791,57.255 612.291,55.9217 612.5,54.5C 614.14,53.6799 615.807,52.8466 617.5,52C 674.829,51.1668 674.829,50.6668 617.5,50.5 Z M 791.5,51.5 C 790.761,51.369 790.094,51.5357 789.5,52C 790.745,52.7914 792.078,53.2914 793.5,53.5C 793.427,55.0269 794.094,56.0269 795.5,56.5C 795.263,57.791 795.596,58.791 796.5,59.5C 796.5,78.1667 796.5,96.8333 796.5,115.5C 795.596,116.209 795.263,117.209 795.5,118.5C 794.167,119.167 793.167,120.167 792.5,121.5C 791.234,122.09 789.901,122.59 788.5,123C 774.5,123.667 760.5,123.667 746.5,123C 743.861,122.347 741.527,121.18 739.5,119.5C 739.313,117.436 738.813,115.436 738,113.5C 737.667,114.5 737.333,115.5 737,116.5C 736.333,97.1667 736.333,77.8333 737,58.5C 737.333,59.5 737.667,60.5 738,61.5C 738.813,59.5643 739.313,57.5643 739.5,55.5C 740.683,54.4955 742.016,53.6622 743.5,53C 744.738,52.31 744.738,51.81 743.5,51.5C 743.842,50.6618 744.508,50.3284 745.5,50.5C 759.994,49.3391 774.661,49.1724 789.5,50C 790.416,50.2784 791.082,50.7784 791.5,51.5 Z M 103.5,51.5 C 104.209,50.596 105.209,50.2627 106.5,50.5C 120.833,51.8333 135.167,51.8333 149.5,50.5C 150.791,50.2627 151.791,50.596 152.5,51.5C 150.335,52.0623 150.668,52.729 153.5,53.5C 153.833,54.5 154.5,55.1667 155.5,55.5C 155.675,57.8444 156.842,59.511 159,60.5C 159.499,64.8206 159.666,69.1539 159.5,73.5C 159.5,82.5 159.5,91.5 159.5,100.5C 159.666,105.179 159.499,109.845 159,114.5C 158.333,115.833 157.667,115.833 157,114.5C 156.392,116.154 155.892,117.821 155.5,119.5C 154.5,119.833 153.833,120.5 153.5,121.5C 152.078,121.709 150.745,122.209 149.5,123C 150.448,123.483 151.448,123.649 152.5,123.5C 151.737,124.268 150.737,124.768 149.5,125C 135.167,125.667 120.833,125.667 106.5,125C 103.833,124.333 103.833,123.667 106.5,123C 105.255,122.209 103.922,121.709 102.5,121.5C 102.167,120.5 101.5,119.833 100.5,119.5C 100.204,117.597 99.5375,115.93 98.5,114.5C 98.5,96.5 98.5,78.5 98.5,60.5C 99.4345,59.4324 99.7678,58.099 99.5,56.5C 101.34,54.832 103.34,53.332 105.5,52C 104.906,51.5357 104.239,51.369 103.5,51.5 Z M 231.5,51.5 C 232.209,50.596 233.209,50.2627 234.5,50.5C 248.833,51.8333 263.167,51.8333 277.5,50.5C 278.791,50.2627 279.791,50.596 280.5,51.5C 279.761,51.369 279.094,51.5357 278.5,52C 280.323,52.9973 281.99,54.1639 283.5,55.5C 283.892,57.1789 284.392,58.8455 285,60.5C 286.016,59.3659 286.683,59.6992 287,61.5C 287.499,65.4862 287.666,69.4862 287.5,73.5C 286.167,82.5 286.167,91.5 287.5,100.5C 287.789,106.245 287.289,111.912 286,117.5C 285.667,116.5 285.333,115.5 285,114.5C 284.392,116.154 283.892,117.821 283.5,119.5C 281.692,120.907 279.692,122.074 277.5,123C 278.094,123.464 278.761,123.631 279.5,123.5C 279.082,124.222 278.416,124.722 277.5,125C 262.994,125.827 248.661,125.661 234.5,124.5C 290.496,124.333 290.496,123.833 234.5,123C 231.767,122.096 229.433,120.596 227.5,118.5C 226.167,97.8333 226.167,77.1667 227.5,56.5C 229.167,55.5 230.5,54.1667 231.5,52.5C 234.167,52.1667 234.167,51.8333 231.5,51.5 Z M 870.5,51.5 C 871.209,50.596 872.209,50.2627 873.5,50.5C 887.833,51.8333 902.167,51.8333 916.5,50.5C 917.791,50.2627 918.791,50.596 919.5,51.5C 916.833,51.8333 916.833,52.1667 919.5,52.5C 920.5,54.1667 921.833,55.5 923.5,56.5C 924.833,77.1667 924.833,97.8333 923.5,118.5C 921.567,120.596 919.233,122.096 916.5,123C 860.504,123.833 860.504,124.333 916.5,124.5C 902.339,125.661 888.006,125.827 873.5,125C 872.584,124.722 871.918,124.222 871.5,123.5C 872.239,123.631 872.906,123.464 873.5,123C 871.308,122.074 869.308,120.907 867.5,119.5C 867.108,117.821 866.608,116.154 866,114.5C 865.667,115.5 865.333,116.5 865,117.5C 863.783,111.899 863.283,106.232 863.5,100.5C 864.815,91.4017 864.815,82.4017 863.5,73.5C 863.121,68.7027 863.621,64.036 865,59.5C 865.333,59.8333 865.667,60.1667 866,60.5C 866.608,58.8455 867.108,57.1789 867.5,55.5C 868.5,55.1667 869.167,54.5 869.5,53.5C 872.46,52.968 872.793,52.3013 870.5,51.5 Z M 37.5,154.5 C 438.833,155.833 840.167,155.833 1241.5,154.5C 1241.89,155.815 1243.22,156.815 1245.5,157.5C 1245.83,158.5 1246.5,159.167 1247.5,159.5C 1247.86,162.549 1248.86,164.549 1250.5,165.5C 1251.67,356.666 1251.83,548 1251,739.5C 1250.33,740.833 1249.67,740.833 1249,739.5C 1248.39,741.154 1247.89,742.821 1247.5,744.5C 1246.17,745.167 1245.17,746.167 1244.5,747.5C 1243.51,747.328 1242.84,747.662 1242.5,748.5C 840.5,748.5 438.5,748.5 36.5,748.5C 36.1583,747.662 35.4916,747.328 34.5,747.5C 33.8333,746.167 32.8333,745.167 31.5,744.5C 31.1077,742.821 30.6077,741.154 30,739.5C 29.3333,740.833 28.6667,740.833 28,739.5C 27.1671,548 27.3338,356.666 28.5,165.5C 30.145,164.549 31.145,162.549 31.5,159.5C 32.5,159.167 33.1667,158.5 33.5,157.5C 35.7785,156.815 37.1118,155.815 37.5,154.5 Z M 148.5,779.5 C 95.1708,779.667 95.1708,780.167 148.5,781C 151.139,781.653 153.473,782.82 155.5,784.5C 155.525,787.179 156.858,788.512 159.5,788.5C 159.5,792.833 159.5,797.167 159.5,801.5C 159.5,810.167 159.5,818.833 159.5,827.5C 159.666,833.176 159.499,838.843 159,844.5C 158.768,845.737 158.268,846.737 157.5,847.5C 157.167,844.833 156.833,844.833 156.5,847.5C 155.662,847.842 155.328,848.508 155.5,849.5C 154.527,849.987 153.527,850.487 152.5,851C 151.262,851.69 151.262,852.19 152.5,852.5C 152.158,853.338 151.492,853.672 150.5,853.5C 134.962,852.804 119.295,852.137 103.5,851.5C 102.833,850.167 101.833,849.167 100.5,848.5C 99.1307,843.615 98.4641,838.615 98.5,833.5C 99.7121,819.5 99.7121,805.5 98.5,791.5C 99.4511,790.081 99.7845,788.415 99.5,786.5C 100.906,786.027 101.573,785.027 101.5,783.5C 103.027,783.573 104.027,782.906 104.5,781.5C 108.5,781.167 108.5,780.833 104.5,780.5C 105.263,779.732 106.263,779.232 107.5,779C 121.34,778.173 135.006,778.339 148.5,779.5 Z M 276.5,779.5 C 223.171,779.667 223.171,780.167 276.5,781C 279.139,781.653 281.473,782.82 283.5,784.5C 283.855,787.549 284.855,789.549 286.5,790.5C 285.167,808.167 285.167,825.833 286.5,843.5C 284.512,846.128 282.512,848.795 280.5,851.5C 264.167,852.833 247.833,852.833 231.5,851.5C 230.5,849.833 229.167,848.5 227.5,847.5C 227.768,845.901 227.434,844.568 226.5,843.5C 226.333,825.83 226.5,808.164 227,790.5C 227.505,788.482 228.005,786.482 228.5,784.5C 230.527,782.82 232.861,781.653 235.5,781C 234.552,780.517 233.552,780.351 232.5,780.5C 233.263,779.732 234.263,779.232 235.5,779C 249.34,778.173 263.006,778.339 276.5,779.5 Z M 363.5,779.5 C 376.994,778.339 390.66,778.173 404.5,779C 405.737,779.232 406.737,779.732 407.5,780.5C 406.448,780.351 405.448,780.517 404.5,781C 407.139,781.653 409.473,782.82 411.5,784.5C 411.491,786.308 411.991,787.975 413,789.5C 413.483,788.552 413.649,787.552 413.5,786.5C 415.211,790.881 415.877,795.547 415.5,800.5C 415.5,801.167 415.167,801.5 414.5,801.5C 414.197,810.251 414.53,818.918 415.5,827.5C 415.904,833.29 415.404,838.956 414,844.5C 413.667,844.167 413.333,843.833 413,843.5C 412.392,845.154 411.892,846.821 411.5,848.5C 410.167,849.167 409.167,850.167 408.5,851.5C 392.878,852.636 377.211,852.802 361.5,852C 360.255,851.209 358.922,850.709 357.5,850.5C 357.573,848.973 356.906,847.973 355.5,847.5C 354.383,828.191 354.217,808.858 355,789.5C 355.608,787.846 356.108,786.179 356.5,784.5C 358.527,782.82 360.861,781.653 363.5,781C 416.829,780.167 416.829,779.667 363.5,779.5 Z M 491.5,779.5 C 504.994,778.339 518.66,778.173 532.5,779C 533.737,779.232 534.737,779.732 535.5,780.5C 531.5,780.833 531.5,781.167 535.5,781.5C 535.973,782.906 536.973,783.573 538.5,783.5C 539.32,785.812 540.153,788.146 541,790.5C 541.333,789.5 541.667,788.5 542,787.5C 542.667,806.5 542.667,825.5 542,844.5C 541.667,843.833 541.333,843.167 541,842.5C 540.187,844.436 539.687,846.436 539.5,848.5C 537.99,849.836 536.323,851.003 534.5,852C 535.094,852.464 535.761,852.631 536.5,852.5C 536.082,853.222 535.416,853.722 534.5,854C 519.328,854.828 504.328,854.661 489.5,853.5C 488.508,853.672 487.842,853.338 487.5,852.5C 487.938,852.565 488.272,852.399 488.5,852C 487.756,850.961 486.756,850.461 485.5,850.5C 485.573,848.973 484.906,847.973 483.5,847.5C 483.737,846.209 483.404,845.209 482.5,844.5C 482.5,825.833 482.5,807.167 482.5,788.5C 483.404,787.791 483.737,786.791 483.5,785.5C 485.685,783.238 488.352,781.738 491.5,781C 544.829,780.167 544.829,779.667 491.5,779.5 Z M 915.5,779.5 C 862.171,779.667 862.171,780.167 915.5,781C 919.939,781.951 922.939,784.451 924.5,788.5C 924.797,808.2 924.464,827.867 923.5,847.5C 922.094,847.973 921.427,848.973 921.5,850.5C 920.761,850.369 920.094,850.536 919.5,851C 918.262,851.69 918.262,852.19 919.5,852.5C 919.158,853.338 918.492,853.672 917.5,853.5C 902.672,852.669 887.672,852.169 872.5,852C 870.677,851.003 869.01,849.836 867.5,848.5C 867.313,846.436 866.813,844.436 866,842.5C 865.667,843.833 865.333,845.167 865,846.5C 864.333,827.5 864.333,808.5 865,789.5C 865.333,790.167 865.667,790.833 866,791.5C 866.561,788.721 867.394,786.054 868.5,783.5C 869.492,783.672 870.158,783.338 870.5,782.5C 871.167,782.5 871.5,782.167 871.5,781.5C 875.5,781.167 875.5,780.833 871.5,780.5C 872.263,779.732 873.263,779.232 874.5,779C 888.34,778.173 902.006,778.339 915.5,779.5 Z M 1043.5,779.5 C 990.171,779.667 990.171,780.167 1043.5,781C 1046.65,781.738 1049.32,783.238 1051.5,785.5C 1052.45,805.14 1052.78,824.806 1052.5,844.5C 1051.6,845.209 1051.26,846.209 1051.5,847.5C 1050.09,847.973 1049.43,848.973 1049.5,850.5C 1048.76,850.369 1048.09,850.536 1047.5,851C 1046.26,851.69 1046.26,852.19 1047.5,852.5C 1047.16,853.338 1046.49,853.672 1045.5,853.5C 1030.67,852.669 1015.67,852.169 1000.5,852C 999.473,851.487 998.473,850.987 997.5,850.5C 997.167,849.5 996.5,848.833 995.5,848.5C 995.108,846.821 994.608,845.154 994,843.5C 992.984,844.634 992.317,844.301 992,842.5C 991.501,837.511 991.334,832.511 991.5,827.5C 992.815,818.598 992.815,809.598 991.5,800.5C 991.335,797.482 991.502,794.482 992,791.5C 993.466,790.011 994.633,787.678 995.5,784.5C 997.527,782.82 999.861,781.653 1002.5,781C 1001.55,780.517 1000.55,780.351 999.5,780.5C 1000.26,779.732 1001.26,779.232 1002.5,779C 1016.34,778.173 1030.01,778.339 1043.5,779.5 Z M 1174.5,780.5 C 1173.45,780.351 1172.45,780.517 1171.5,781C 1174.14,781.653 1176.47,782.82 1178.5,784.5C 1178.8,786.403 1179.46,788.07 1180.5,789.5C 1180.78,808.86 1180.45,828.194 1179.5,847.5C 1177.83,848.5 1176.5,849.833 1175.5,851.5C 1159.17,852.833 1142.83,852.833 1126.5,851.5C 1124.57,848.641 1122.4,845.974 1120,843.5C 1119.5,838.177 1119.33,832.844 1119.5,827.5C 1119.5,818.5 1119.5,809.5 1119.5,800.5C 1119.19,796.958 1119.52,793.625 1120.5,790.5C 1120.46,786.107 1120.96,785.774 1122,789.5C 1122.61,787.846 1123.11,786.179 1123.5,784.5C 1125.53,782.82 1127.86,781.653 1130.5,781C 1129.55,780.517 1128.55,780.351 1127.5,780.5C 1128.26,779.732 1129.26,779.232 1130.5,779C 1144.17,778.333 1157.83,778.333 1171.5,779C 1172.74,779.232 1173.74,779.732 1174.5,780.5 Z M 659.5,779.5 C 661.099,779.232 662.432,779.566 663.5,780.5C 662.448,780.351 661.448,780.517 660.5,781C 661.901,781.41 663.234,781.91 664.5,782.5C 665.167,783.833 666.167,784.833 667.5,785.5C 668.822,806.488 668.822,827.488 667.5,848.5C 665.99,849.836 664.323,851.003 662.5,852C 663.094,852.464 663.761,852.631 664.5,852.5C 663.791,853.404 662.791,853.737 661.5,853.5C 646.833,852.167 632.167,852.167 617.5,853.5C 617.112,852.185 615.778,851.185 613.5,850.5C 613.5,849.833 613.167,849.5 612.5,849.5C 612.34,847.847 611.674,846.514 610.5,845.5C 610.202,825.466 610.536,805.466 611.5,785.5C 612.833,784.833 613.833,783.833 614.5,782.5C 616.403,782.204 618.07,781.537 619.5,780.5C 633.01,780.829 646.344,780.496 659.5,779.5 Z M 787.5,780.5 C 788.93,781.537 790.597,782.204 792.5,782.5C 793.167,783.833 794.167,784.833 795.5,785.5C 796.464,805.466 796.798,825.466 796.5,845.5C 795.326,846.514 794.66,847.847 794.5,849.5C 793.833,849.5 793.5,849.833 793.5,850.5C 791.222,851.185 789.888,852.185 789.5,853.5C 774.833,852.167 760.167,852.167 745.5,853.5C 744.209,853.737 743.209,853.404 742.5,852.5C 743.239,852.631 743.906,852.464 744.5,852C 742.677,851.003 741.01,849.836 739.5,848.5C 738.178,827.488 738.178,806.488 739.5,785.5C 740.833,784.833 741.833,783.833 742.5,782.5C 744.086,781.852 745.753,781.352 747.5,781C 760.829,780.5 774.163,780.333 787.5,780.5 Z M 871.5,780.5 C 871.5,780.833 871.5,781.167 871.5,781.5C 870.833,781.5 870.5,781.833 870.5,782.5C 869.833,782.5 869.167,782.5 868.5,782.5C 868.973,781.094 869.973,780.427 871.5,780.5 Z"/></g>
<g><path style="opacity:0.007" fill="#000000" d="M 1266.5,0.5 C 1266.5,0.166667 1266.5,-0.166667 1266.5,-0.5C 1267.17,-0.5 1267.83,-0.5 1268.5,-0.5C 1270.03,0.924541 1269.7,1.59121 1267.5,1.5C 1266.83,1.5 1266.5,1.16667 1266.5,0.5 Z"/></g>
<g><path style="opacity:0.007" fill="#000000" d="M 8.5,3.5 C 7.83333,3.5 7.5,3.83333 7.5,4.5C 6.83333,4.5 6.16667,4.5 5.5,4.5C 6.22104,2.61818 7.22104,2.28485 8.5,3.5 Z"/></g>
<g><path style="opacity:0.006" fill="#000000" d="M 1270.5,3.5 C 1271.78,2.28485 1272.78,2.61818 1273.5,4.5C 1272.83,4.5 1272.17,4.5 1271.5,4.5C 1270.83,4.5 1270.5,4.16667 1270.5,3.5 Z"/></g>
<g><path style="opacity:0.009" fill="#000000" d="M 3.5,7.5 C 3.5,7.83333 3.5,8.16667 3.5,8.5C 2.83333,8.5 2.5,8.83333 2.5,9.5C 2.16667,9.5 1.83333,9.5 1.5,9.5C 1.5,8.16667 2.16667,7.5 3.5,7.5 Z"/></g>
<g><path style="opacity:0.007" fill="#000000" d="M 1.5,9.5 C 1.5,10.1667 1.5,10.8333 1.5,11.5C 0.661754,11.8417 0.32842,12.5084 0.5,13.5C 0.166667,13.5 -0.166667,13.5 -0.5,13.5C -0.5,12.5 -0.5,11.5 -0.5,10.5C 0.166667,10.1667 0.833333,9.83333 1.5,9.5 Z"/></g>
<g><path style="opacity:0.012" fill="#000000" d="M -0.5,51.5 C -0.5,51.1667 -0.5,50.8333 -0.5,50.5C 6.83333,50.5 14.1667,50.5 21.5,50.5C 14.3524,51.4916 7.01905,51.825 -0.5,51.5 Z"/></g>
<g><path style="opacity:0.012" fill="#000000" d="M 1279.5,50.5 C 1279.5,50.8333 1279.5,51.1667 1279.5,51.5C 1250.17,51.1667 1250.17,50.8333 1279.5,50.5 Z"/></g>
<g><path style="opacity:0.009" fill="#000000" d="M 870.5,51.5 C 872.793,52.3013 872.46,52.968 869.5,53.5C 869.5,53.1667 869.5,52.8333 869.5,52.5C 870.167,52.5 870.5,52.1667 870.5,51.5 Z"/></g>
<g><path style="opacity:0.01" fill="#000000" d="M 1175.5,51.5 C 1176.17,51.5 1176.5,51.8333 1176.5,52.5C 1175.5,53.7125 1174.5,53.5458 1173.5,52C 1174.09,51.5357 1174.76,51.369 1175.5,51.5 Z"/></g>
<g><path style="opacity:0.012" fill="#000000" d="M 1254.5,52.5 C 1254.5,52.1667 1254.5,51.8333 1254.5,51.5C 1257.17,51.8333 1257.17,52.1667 1254.5,52.5 Z"/></g>
<g><path style="opacity:0.009" fill="#000000" d="M 1252.5,52.5 C 1253.17,52.5 1253.83,52.5 1254.5,52.5C 1254.03,53.9063 1253.03,54.573 1251.5,54.5C 1251.5,54.1667 1251.5,53.8333 1251.5,53.5C 1252.17,53.5 1252.5,53.1667 1252.5,52.5 Z"/></g>
<g><path style="opacity:0.012" fill="#000000" d="M 484.5,53.5 C 484.833,53.5 485.167,53.5 485.5,53.5C 485.573,55.0269 484.906,56.0269 483.5,56.5C 483.5,55.8333 483.5,55.1667 483.5,54.5C 484.167,54.5 484.5,54.1667 484.5,53.5 Z"/></g>
<g><path style="opacity:0.012" fill="#000000" d="M 665.5,53.5 C 665.833,53.5 666.167,53.5 666.5,53.5C 666.5,54.1667 666.833,54.5 667.5,54.5C 667.5,55.1667 667.5,55.8333 667.5,56.5C 666.094,56.0269 665.427,55.0269 665.5,53.5 Z"/></g>
<g><path style="opacity:0.01" fill="#000000" d="M 1249.5,56.5 C 1249.83,56.5 1250.17,56.5 1250.5,56.5C 1250.17,59.1667 1249.83,59.1667 1249.5,56.5 Z"/></g>
<g><path style="opacity:1" fill="#656565" d="M 96.5,73.5 C 96.5,82.5 96.5,91.5 96.5,100.5C 94.9676,102.521 92.9676,104.021 90.5,105C 72.8333,105.667 55.1667,105.667 37.5,105C 35.34,103.668 33.34,102.168 31.5,100.5C 31.5,91.5 31.5,82.5 31.5,73.5C 32.8362,71.6932 34.5029,70.1932 36.5,69C 54.8333,68.3333 73.1667,68.3333 91.5,69C 93.687,70.025 95.3536,71.525 96.5,73.5 Z"/></g>
<g><path style="opacity:1" fill="#656565" d="M 224.5,73.5 C 224.5,82.1667 224.5,90.8333 224.5,99.5C 223.023,101.807 221.023,103.64 218.5,105C 200.833,105.667 183.167,105.667 165.5,105C 163.032,104.021 161.032,102.521 159.5,100.5C 159.5,91.5 159.5,82.5 159.5,73.5C 160.646,71.525 162.313,70.025 164.5,69C 182.833,68.3333 201.167,68.3333 219.5,69C 221.497,70.1932 223.164,71.6932 224.5,73.5 Z"/></g>
<g><path style="opacity:1" fill="#646464" d="M 352.5,74.5 C 352.5,82.8333 352.5,91.1667 352.5,99.5C 351.023,101.807 349.023,103.64 346.5,105C 328.5,105.667 310.5,105.667 292.5,105C 290.503,103.807 288.836,102.307 287.5,100.5C 286.167,91.5 286.167,82.5 287.5,73.5C 288.646,71.525 290.313,70.025 292.5,69C 310.833,68.3333 329.167,68.3333 347.5,69C 349.744,70.4055 351.41,72.2389 352.5,74.5 Z"/></g>
<g><path style="opacity:1" fill="#656565" d="M 480.5,74.5 C 480.5,82.8333 480.5,91.1667 480.5,99.5C 479.023,101.807 477.023,103.64 474.5,105C 456.5,105.667 438.5,105.667 420.5,105C 418.333,104.167 416.833,102.667 416,100.5C 415.333,91.5 415.333,82.5 416,73.5C 416.833,71.3333 418.333,69.8333 420.5,69C 438.833,68.3333 457.167,68.3333 475.5,69C 477.402,70.7297 479.069,72.563 480.5,74.5 Z"/></g>
<g><path style="opacity:1" fill="#666666" d="M 608.5,74.5 C 608.5,82.5 608.5,90.5 608.5,98.5C 607.314,101.34 605.314,103.506 602.5,105C 584.5,105.667 566.5,105.667 548.5,105C 545.977,103.64 543.977,101.807 542.5,99.5C 542.5,91.1667 542.5,82.8333 542.5,74.5C 543.931,72.563 545.598,70.7297 547.5,69C 565.833,68.3333 584.167,68.3333 602.5,69C 605.023,70.3597 607.023,72.193 608.5,74.5 Z"/></g>
<g><path style="opacity:1" fill="#656565" d="M 670.5,99.5 C 670.5,91.1667 670.5,82.8333 670.5,74.5C 671.931,72.563 673.598,70.7297 675.5,69C 693.833,68.3333 712.167,68.3333 730.5,69C 732.667,69.8333 734.167,71.3333 735,73.5C 735.667,82.5 735.667,91.5 735,100.5C 734.167,102.667 732.667,104.167 730.5,105C 712.5,105.667 694.5,105.667 676.5,105C 673.977,103.64 671.977,101.807 670.5,99.5 Z"/></g>
<g><path style="opacity:1" fill="#646464" d="M 863.5,73.5 C 864.815,82.4017 864.815,91.4017 863.5,100.5C 862.326,102.441 860.659,103.941 858.5,105C 840.5,105.667 822.5,105.667 804.5,105C 801.977,103.64 799.977,101.807 798.5,99.5C 798.5,91.1667 798.5,82.8333 798.5,74.5C 799.931,72.563 801.598,70.7297 803.5,69C 821.833,68.3333 840.167,68.3333 858.5,69C 860.687,70.025 862.354,71.525 863.5,73.5 Z"/></g>
<g><path style="opacity:1" fill="#656565" d="M 991.5,73.5 C 991.5,82.5 991.5,91.5 991.5,100.5C 989.968,102.521 987.968,104.021 985.5,105C 967.833,105.667 950.167,105.667 932.5,105C 929.977,103.64 927.977,101.807 926.5,99.5C 926.5,90.8333 926.5,82.1667 926.5,73.5C 927.836,71.6932 929.503,70.1932 931.5,69C 949.833,68.3333 968.167,68.3333 986.5,69C 988.687,70.025 990.354,71.525 991.5,73.5 Z"/></g>
<g><path style="opacity:1" fill="#656565" d="M 1119.5,73.5 C 1119.5,82.5 1119.5,91.5 1119.5,100.5C 1117.66,102.168 1115.66,103.668 1113.5,105C 1095.83,105.667 1078.17,105.667 1060.5,105C 1058.03,104.021 1056.03,102.521 1054.5,100.5C 1054.5,91.5 1054.5,82.5 1054.5,73.5C 1055.65,71.525 1057.31,70.025 1059.5,69C 1077.83,68.3333 1096.17,68.3333 1114.5,69C 1116.5,70.1932 1118.16,71.6932 1119.5,73.5 Z"/></g>
<g><path style="opacity:1" fill="#666666" d="M 1247.5,73.5 C 1247.5,82.1667 1247.5,90.8333 1247.5,99.5C 1246.02,101.807 1244.02,103.64 1241.5,105C 1223.5,105.667 1205.5,105.667 1187.5,105C 1185.5,103.807 1183.84,102.307 1182.5,100.5C 1182.5,91.5 1182.5,82.5 1182.5,73.5C 1183.65,71.525 1185.31,70.025 1187.5,69C 1205.83,68.3333 1224.17,68.3333 1242.5,69C 1244.36,70.3657 1246.03,71.8657 1247.5,73.5 Z"/></g>
<g><path style="opacity:0.016" fill="#2f2f2f" d="M 1248.5,59.5 C 1249.66,77.662 1249.83,95.9954 1249,114.5C 1248.5,96.1697 1248.33,77.8364 1248.5,59.5 Z"/></g>
<g><path style="opacity:0.008" fill="#000000" d="M 153.5,121.5 C 153.5,121.833 153.5,122.167 153.5,122.5C 152.833,122.5 152.5,122.833 152.5,123.5C 151.448,123.649 150.448,123.483 149.5,123C 150.745,122.209 152.078,121.709 153.5,121.5 Z"/></g>
<g><path style="opacity:0.008" fill="#000000" d="M 997.5,122.5 C 998.721,121.535 1000.05,121.702 1001.5,123C 1000.55,123.483 999.552,123.649 998.5,123.5C 997.833,123.5 997.5,123.167 997.5,122.5 Z"/></g>
<g><path style="opacity:0.008" fill="#000000" d="M 1048.5,122.5 C 1047.83,122.5 1047.5,122.833 1047.5,123.5C 1043.66,123.388 1043.66,122.721 1047.5,121.5C 1048.11,121.624 1048.44,121.957 1048.5,122.5 Z"/></g>
<g><path style="opacity:0.015" fill="#000000" d="M 1257.5,124.5 C 1264.65,123.508 1271.98,123.175 1279.5,123.5C 1279.5,123.833 1279.5,124.167 1279.5,124.5C 1272.17,124.5 1264.83,124.5 1257.5,124.5 Z"/></g>
<g><path style="opacity:0.004" fill="#000000" d="M 36.5,749.5 C 36.5,749.167 36.5,748.833 36.5,748.5C 438.5,748.5 840.5,748.5 1242.5,748.5C 1242.5,748.833 1242.5,749.167 1242.5,749.5C 1240.59,749.216 1238.92,749.549 1237.5,750.5C 838.833,750.5 440.167,750.5 41.5,750.5C 40.0813,749.549 38.4147,749.216 36.5,749.5 Z"/></g>
<g><path style="opacity:0.011" fill="#000000" d="M 1258.5,780.5 C 1258.5,780.167 1258.5,779.833 1258.5,779.5C 1265.5,779.5 1272.5,779.5 1279.5,779.5C 1279.5,779.833 1279.5,780.167 1279.5,780.5C 1272.5,780.5 1265.5,780.5 1258.5,780.5 Z"/></g>
<g><path style="opacity:0.007" fill="#000000" d="M 615.5,780.5 C 616.833,780.5 618.167,780.5 619.5,780.5C 618.07,781.537 616.403,782.204 614.5,782.5C 614.5,782.167 614.5,781.833 614.5,781.5C 615.167,781.5 615.5,781.167 615.5,780.5 Z"/></g>
<g><path style="opacity:0.008" fill="#000000" d="M 787.5,780.5 C 788.833,780.5 790.167,780.5 791.5,780.5C 791.5,781.167 791.833,781.5 792.5,781.5C 792.5,781.833 792.5,782.167 792.5,782.5C 790.597,782.204 788.93,781.537 787.5,780.5 Z"/></g>
<g><path style="opacity:0.007" fill="#000000" d="M 1255.5,781.5 C 1255.5,781.167 1255.5,780.833 1255.5,780.5C 1256.5,780.5 1257.5,780.5 1258.5,780.5C 1257.79,781.404 1256.79,781.737 1255.5,781.5 Z"/></g>
<g><path style="opacity:0.009" fill="#000000" d="M 102.5,781.5 C 103.167,781.5 103.833,781.5 104.5,781.5C 104.027,782.906 103.027,783.573 101.5,783.5C 101.5,783.167 101.5,782.833 101.5,782.5C 102.167,782.5 102.5,782.167 102.5,781.5 Z"/></g>
<g><path style="opacity:0.01" fill="#000000" d="M 535.5,781.5 C 536.167,781.5 536.833,781.5 537.5,781.5C 537.5,782.167 537.833,782.5 538.5,782.5C 538.5,782.833 538.5,783.167 538.5,783.5C 536.973,783.573 535.973,782.906 535.5,781.5 Z"/></g>
<g><path style="opacity:0.01" fill="#000000" d="M 1253.5,782.5 C 1253.5,782.167 1253.5,781.833 1253.5,781.5C 1254.17,781.5 1254.83,781.5 1255.5,781.5C 1255.16,782.338 1254.49,782.672 1253.5,782.5 Z"/></g>
<g><path style="opacity:0.012" fill="#000000" d="M 1252.5,782.5 C 1252.83,782.5 1253.17,782.5 1253.5,782.5C 1253.31,783.17 1252.98,783.17 1252.5,782.5 Z"/></g>
<g><path style="opacity:0.016" fill="#000000" d="M 1251.5,783.5 C 1251.83,783.5 1252.17,783.5 1252.5,783.5C 1252.31,784.17 1251.98,784.17 1251.5,783.5 Z"/></g>
<g><path style="opacity:0.008" fill="#000000" d="M 411.5,784.5 C 411.833,784.5 412.167,784.5 412.5,784.5C 412.328,785.492 412.662,786.158 413.5,786.5C 413.649,787.552 413.483,788.552 413,789.5C 411.991,787.975 411.491,786.308 411.5,784.5 Z"/></g>
<g><path style="opacity:1" fill="#676767" d="M 96.5,800.5 C 96.5,809.5 96.5,818.5 96.5,827.5C 95.4036,829.103 94.0703,830.603 92.5,832C 73.8333,832.667 55.1667,832.667 36.5,832C 34.5029,830.807 32.8362,829.307 31.5,827.5C 31.5,818.833 31.5,810.167 31.5,801.5C 32.5964,799.897 33.9297,798.397 35.5,797C 54.5,796.333 73.5,796.333 92.5,797C 93.7051,798.376 95.0384,799.542 96.5,800.5 Z"/></g>
<g><path style="opacity:1" fill="#656565" d="M 480.5,801.5 C 480.5,810.167 480.5,818.833 480.5,827.5C 479.164,829.307 477.497,830.807 475.5,832C 456.833,832.667 438.167,832.667 419.5,832C 417.93,830.603 416.596,829.103 415.5,827.5C 414.53,818.918 414.197,810.251 414.5,801.5C 415.167,801.5 415.5,801.167 415.5,800.5C 416.962,799.542 418.295,798.376 419.5,797C 438.5,796.333 457.5,796.333 476.5,797C 478.07,798.397 479.404,799.897 480.5,801.5 Z"/></g>
<g><path style="opacity:1" fill="#656565" d="M 991.5,800.5 C 992.815,809.598 992.815,818.598 991.5,827.5C 990.404,829.103 989.07,830.603 987.5,832C 968.833,832.667 950.167,832.667 931.5,832C 929.503,830.807 927.836,829.307 926.5,827.5C 926.5,818.833 926.5,810.167 926.5,801.5C 927.596,799.897 928.93,798.397 930.5,797C 949.5,796.333 968.5,796.333 987.5,797C 988.705,798.376 990.038,799.542 991.5,800.5 Z"/></g>
<g><path style="opacity:1" fill="#676767" d="M 224.5,801.5 C 224.5,810.167 224.5,818.833 224.5,827.5C 223.354,829.475 221.687,830.975 219.5,832C 201.167,832.667 182.833,832.667 164.5,832C 162.313,830.975 160.646,829.475 159.5,827.5C 159.5,818.833 159.5,810.167 159.5,801.5C 160.596,799.897 161.93,798.397 163.5,797C 182.5,796.333 201.5,796.333 220.5,797C 222.07,798.397 223.404,799.897 224.5,801.5 Z"/></g>
<g><path style="opacity:1" fill="#676767" d="M 352.5,801.5 C 352.5,810.167 352.5,818.833 352.5,827.5C 351.354,829.475 349.687,830.975 347.5,832C 328.833,832.667 310.167,832.667 291.5,832C 289.93,830.603 288.596,829.103 287.5,827.5C 287.5,818.5 287.5,809.5 287.5,800.5C 288.962,799.542 290.295,798.376 291.5,797C 310.5,796.333 329.5,796.333 348.5,797C 350.07,798.397 351.404,799.897 352.5,801.5 Z"/></g>
<g><path style="opacity:1" fill="#666666" d="M 608.5,802.5 C 608.5,810.5 608.5,818.5 608.5,826.5C 607.416,828.815 605.749,830.648 603.5,832C 584.833,832.667 566.167,832.667 547.5,832C 546.333,830.833 545.167,829.667 544,828.5C 543.333,819.167 543.333,809.833 544,800.5C 544.833,799 546,797.833 547.5,797C 566.167,796.333 584.833,796.333 603.5,797C 605.749,798.352 607.416,800.185 608.5,802.5 Z"/></g>
<g><path style="opacity:0.999" fill="#676767" d="M 736.5,801.5 C 736.5,809.833 736.5,818.167 736.5,826.5C 735.04,828.463 733.373,830.296 731.5,832C 712.833,832.667 694.167,832.667 675.5,832C 673.598,830.27 671.931,828.437 670.5,826.5C 670.5,818.5 670.5,810.5 670.5,802.5C 671.584,800.185 673.251,798.352 675.5,797C 694.167,796.333 712.833,796.333 731.5,797C 733.497,798.193 735.164,799.693 736.5,801.5 Z"/></g>
<g><path style="opacity:1" fill="#666666" d="M 798.5,826.5 C 798.5,818.167 798.5,809.833 798.5,801.5C 799.836,799.693 801.503,798.193 803.5,797C 822.167,796.333 840.833,796.333 859.5,797C 861,797.833 862.167,799 863,800.5C 863.667,809.833 863.667,819.167 863,828.5C 861.833,829.667 860.667,830.833 859.5,832C 840.833,832.667 822.167,832.667 803.5,832C 801.251,830.648 799.584,828.815 798.5,826.5 Z"/></g>
<g><path style="opacity:1" fill="#676767" d="M 1119.5,800.5 C 1119.5,809.5 1119.5,818.5 1119.5,827.5C 1118.35,829.475 1116.69,830.975 1114.5,832C 1096.17,832.667 1077.83,832.667 1059.5,832C 1057.31,830.975 1055.65,829.475 1054.5,827.5C 1054.5,818.833 1054.5,810.167 1054.5,801.5C 1055.6,799.897 1056.93,798.397 1058.5,797C 1077.5,796.333 1096.5,796.333 1115.5,797C 1116.71,798.376 1118.04,799.542 1119.5,800.5 Z"/></g>
<g><path style="opacity:1" fill="#676767" d="M 1247.5,801.5 C 1247.5,810.167 1247.5,818.833 1247.5,827.5C 1246.35,829.475 1244.69,830.975 1242.5,832C 1223.83,832.667 1205.17,832.667 1186.5,832C 1184.93,830.603 1183.6,829.103 1182.5,827.5C 1182.5,818.833 1182.5,810.167 1182.5,801.5C 1183.6,799.897 1184.93,798.397 1186.5,797C 1205.5,796.333 1224.5,796.333 1243.5,797C 1245.07,798.397 1246.4,799.897 1247.5,801.5 Z"/></g>
<g><path style="opacity:0.012" fill="#1b1b1b" d="M 29.5,789.5 C 30.6621,807.662 30.8288,825.995 30,844.5C 29.5001,826.17 29.3334,807.836 29.5,789.5 Z"/></g>
<g><path style="opacity:0.012" fill="#272727" d="M 1248.5,789.5 C 1249.66,807.329 1249.83,825.329 1249,843.5C 1248.5,825.503 1248.33,807.503 1248.5,789.5 Z"/></g>
<g><path style="opacity:0.012" fill="#000000" d="M 483.5,847.5 C 484.906,847.973 485.573,848.973 485.5,850.5C 485.167,850.5 484.833,850.5 484.5,850.5C 484.5,849.833 484.167,849.5 483.5,849.5C 483.5,848.833 483.5,848.167 483.5,847.5 Z"/></g>
<g><path style="opacity:0.012" fill="#000000" d="M 923.5,847.5 C 923.5,848.167 923.5,848.833 923.5,849.5C 922.833,849.5 922.5,849.833 922.5,850.5C 922.167,850.5 921.833,850.5 921.5,850.5C 921.427,848.973 922.094,847.973 923.5,847.5 Z"/></g>
<g><path style="opacity:0.008" fill="#000000" d="M -0.5,853.5 C -0.5,853.167 -0.5,852.833 -0.5,852.5C 7.35156,852.175 15.0182,852.508 22.5,853.5C 14.8333,853.5 7.16667,853.5 -0.5,853.5 Z"/></g>
<g><path style="opacity:0.008" fill="#000000" d="M 1256.5,853.5 C 1263.98,852.508 1271.65,852.175 1279.5,852.5C 1279.5,852.833 1279.5,853.167 1279.5,853.5C 1271.83,853.5 1264.17,853.5 1256.5,853.5 Z"/></g>
<g><path style="opacity:0.009" fill="#000000" d="M 1.5,894.5 C 1.83333,894.5 2.16667,894.5 2.5,894.5C 3.16667,894.5 3.5,894.833 3.5,895.5C 3.5,895.833 3.5,896.167 3.5,896.5C 2.16667,896.5 1.5,895.833 1.5,894.5 Z"/></g>
<g><path style="opacity:0.006" fill="#000000" d="M 1271.5,900.5 C 1271.5,900.167 1271.5,899.833 1271.5,899.5C 1272.17,899.5 1272.83,899.5 1273.5,899.5C 1273.16,900.338 1272.49,900.672 1271.5,900.5 Z"/></g>
<g><path style="opacity:0.008" fill="#000000" d="M 1270.5,900.5 C 1270.83,900.5 1271.17,900.5 1271.5,900.5C 1271.31,901.17 1270.98,901.17 1270.5,900.5 Z"/></g>
<g><path style="opacity:0.012" fill="#000000" d="M 1269.5,901.5 C 1269.83,901.5 1270.17,901.5 1270.5,901.5C 1270.31,902.17 1269.98,902.17 1269.5,901.5 Z"/></g>
<g><path style="opacity:0.006" fill="#000000" d="M 11.5,902.5 C 11.8333,903.167 12.1667,903.833 12.5,904.5C 11.8333,904.5 11.1667,904.5 10.5,904.5C 8.96895,903.075 9.30228,902.409 11.5,902.5 Z"/></g>
<g><path style="opacity:0.007" fill="#000000" d="M 1267.5,902.5 C 1268.17,902.5 1268.83,902.5 1269.5,902.5C 1269.17,903.167 1268.83,903.833 1268.5,904.5C 1267.83,904.5 1267.17,904.5 1266.5,904.5C 1266.5,904.167 1266.5,903.833 1266.5,903.5C 1267.17,903.5 1267.5,903.167 1267.5,902.5 Z"/></g>
</svg>
