<?xml version="1.0" standalone="no"?>
<!DOCTYPE svg PUBLIC "-//W3C//DTD SVG 20010904//EN"
 "http://www.w3.org/TR/2001/REC-SVG-20010904/DTD/svg10.dtd">
<svg version="1.0" xmlns="http://www.w3.org/2000/svg"
 width="1280px" height="905px" viewBox="0 0 1280.000000 1174.000000"
 >

<g transform="translate(0.000000,1174.000000) scale(0.100000,-0.100000)"
fill="#DAA622" stroke="none">
<path d="M0 5870 l0 -5870 6400 0 6400 0 0 5870 0 5870 -2782 -1 -2783 0 -45
-71 c-89 -140 -245 -275 -402 -347 -111 -51 -167 -69 -274 -86 -325 -53 -657  
60 -887 304 -42 45 -93 109 -113 142 l-37 59 -2738 0 -2739 0 0 -5870z m1170
5224 c19 -11 45 -35 57 -54 23 -33 23 -34 23 -435 0 -401 0 -402 -23 -436 -44
-66 -62 -70 -344 -67 -369 4 -343 -34 -343 501 0 411 2 429 48 470 46 41 86
47 322 44 206 -2 228 -4 260 -23z m1609 1 c19 -11 43 -33 55 -48 20 -28 21
-39 24 -430 3 -553 27 -519 -365 -515 -238 3 -253 4 -280 24 -15 12 -37 36
-48 55 -19 32 -20 55 -23 384 -4 426 -2 445 47 497 21 23 51 43 71 48 19 5
136 8 260 7 205 -2 228 -4 259 -22z m1595 5 c16 -8 42 -31 58 -51 l29 -36 2
-406 c2 -397 2 -406 -19 -434 -11 -15 -36 -38 -54 -50 -32 -22 -40 -23 -278
-23 -233 0 -246 1 -283 22 -25 14 -46 37 -59 63 -19 39 -20 62 -20 426 0 355
1 387 19 419 22 42 57 69 102 80 19 5 133 8 254 7 173 -2 226 -5 249 -17z
m1623 -6 c15 -11 38 -36 51 -54 22 -33 22 -35 22 -435 0 -401 0 -402 -23 -436
-44 -66 -62 -70 -344 -67 -369 4 -343 -35 -343 508 0 374 1 397 20 427 22 37
57 62 103 74 17 4 134 7 259 6 213 -2 228 -3 255 -23z m1603 0 c19 -11 45 -38
57 -60 22 -39 23 -44 23 -429 0 -537 23 -505 -361 -505 -239 0 -247 1 -279 23
-19 12 -43 38 -54 57 -20 34 -21 50 -21 430 0 369 1 397 19 426 19 32 58 60
104 75 15 4 128 7 252 6 207 -2 228 -4 260 -23z m1607 4 c17 -10 41 -33 53
-53 21 -34 22 -43 23 -439 2 -396 2 -405 -19 -433 -11 -15 -36 -38 -54 -50
-32 -22 -40 -23 -278 -23 -233 0 -246 1 -283 22 -25 14 -46 37 -59 63 -19 39
-20 62 -20 426 0 355 1 387 19 419 22 42 57 69 102 80 19 5 135 8 259 7 192
-2 230 -5 257 -19z m1610 -4 c15 -11 38 -36 51 -54 22 -33 22 -35 22 -435 0
-400 0 -402 -22 -435 -46 -66 -65 -70 -333 -70 -269 0 -289 4 -332 69 -23 34
-23 35 -23 433 0 439 -1 434 62 482 18 13 44 26 58 29 14 3 129 4 257 4 218
-2 233 -3 260 -23z m1603 0 c19 -11 45 -38 57 -60 22 -38 23 -44 23 -423 0
-541 21 -511 -360 -511 -269 0 -277 2 -327 67 l-28 36 -3 376 c-2 264 0 388 8
418 14 49 66 102 112 113 18 5 134 8 258 7 207 -2 228 -4 260 -23z m-85 -1212
c63 -29 119 -83 153 -147 l27 -50 3 -3765 c2 -3421 1 -3769 -14 -3812 -22 -68
-81 -138 -145 -173 l-54 -30 -5905 0 -5905 0 -54 30 c-64 35 -123 105 -145
173 -15 43 -16 391 -14 3812 l3 3765 24 45 c47 90 125 152 214 170 23 4 2679
7 5902 6 l5860 -1 50 -23z m-11174 -8245 c69 -46 69 -47 69 -482 0 -435 0
-436 -69 -482 -33 -22 -41 -23 -285 -23 -233 0 -253 2 -284 20 -18 11 -41 34
-52 52 -19 31 -20 51 -20 433 0 382 1 402 20 433 11 18 34 41 52 52 31 18 51
20 284 20 244 0 252 -1 285 -23z m1599 5 c22 -12 44 -35 58 -62 22 -44 22 -50
22 -425 0 -349 -2 -383 -19 -421 -11 -24 -33 -50 -53 -62 -34 -21 -47 -22
-292 -22 l-256 0 -40 36 c-23 21 -44 51 -50 72 -13 48 -13 745 0 791 10 37 53
88 85 101 11 5 130 9 265 9 219 1 249 -1 280 -17z m1610 -5 c72 -48 71 -40 71
-482 0 -442 1 -434 -71 -482 -32 -22 -40 -23 -285 -23 -245 0 -253 1 -286 23
-69 46 -69 47 -69 480 0 434 0 436 69 483 35 24 37 24 287 24 244 0 252 -1
284 -23z m1611 0 c69 -46 69 -47 69 -482 0 -435 0 -436 -69 -482 -33 -22 -41
-23 -285 -23 -233 0 -253 2 -284 20 -18 11 -41 34 -52 52 -19 31 -20 51 -20
433 0 382 1 402 20 433 11 18 34 41 52 52 31 18 51 20 284 20 244 0 252 -1
285 -23z m1599 4 c20 -10 44 -36 57 -61 23 -43 23 -47 23 -423 0 -538 22 -507
-361 -507 -244 0 -254 1 -285 22 -70 48 -69 38 -69 483 0 541 -26 504 355 505
220 0 249 -2 280 -19z m1610 -4 c72 -48 71 -40 73 -486 2 -391 1 -400 -19
-428 -11 -15 -36 -38 -54 -51 -32 -21 -40 -22 -285 -22 -245 0 -253 1 -286 23
-70 46 -70 45 -67 492 4 533 -24 494 359 495 239 0 247 -1 279 -23z m1611 0
c69 -46 69 -47 69 -482 0 -435 0 -436 -69 -482 -33 -22 -41 -23 -285 -23 -233
0 -253 2 -284 20 -18 11 -41 34 -52 52 -19 31 -20 51 -20 433 0 382 1 402 20
433 11 18 34 41 52 52 31 18 51 20 284 20 244 0 252 -1 285 -23z m1599 4 c20
-10 44 -36 57 -61 23 -43 23 -47 23 -423 0 -538 22 -507 -360 -507 -288 0
-300 3 -339 84 -20 40 -21 58 -21 419 0 405 2 419 51 467 13 12 33 26 44 30
11 5 130 9 265 9 221 1 249 -1 280 -18z"/>
</g>
</svg>
