<?xml version="1.0" standalone="no"?>
<!DOCTYPE svg PUBLIC "-//W3C//DTD SVG 20010904//EN"
 "http://www.w3.org/TR/2001/REC-SVG-20010904/DTD/svg10.dtd">
<svg version="1.0" xmlns="http://www.w3.org/2000/svg"
 width="1280.000000pt" height="905.000000pt" viewBox="0 0 1280.000000 905.000000"
 preserveAspectRatio="xMidYMid meet">

<g transform="translate(0.000000,905.000000) scale(0.100000,-0.100000)"
fill="#DAA622" stroke="none">
<path d="M106 9025 c-20 -14 -43 -25 -51 -25 -8 0 -15 -7 -15 -15 0 -8 -9 -29
-20 -47 -18 -30 -20 -51 -20 -204 l0 -172 108 -6 c59 -4 114 -9 123 -12 9 -2
24 -22 34 -44 10 -22 21 -37 25 -35 17 11 23 -40 26 -225 1 -129 -1 -178 -6
-145 -6 35 -7 14 -4 -71 3 -99 1 -124 -11 -134 -8 -7 -15 -21 -15 -30 0 -40
-43 -57 -165 -65 l-115 -7 0 -3258 0 -3257 77 -7 c42 -3 94 -6 116 -6 30 0 38
-3 34 -14 -4 -10 2 -16 21 -18 17 -2 28 -10 31 -23 2 -11 8 -23 13 -26 20 -13
27 -99 28 -336 0 -155 -4 -243 -10 -243 -5 0 -18 -17 -27 -37 -21 -44 -35 -48
-178 -58 l-105 -7 0 -193 c0 -184 1 -193 20 -198 12 -3 20 -14 20 -26 0 -12 6
-21 15 -21 8 0 31 -11 51 -25 l37 -25 6252 0 6252 0 37 25 c20 14 40 25 43 25
4 0 20 12 35 27 l28 27 0 191 0 191 -125 11 c-70 6 -131 16 -140 23 -8 7 -15
24 -15 38 0 13 -8 31 -17 38 -16 11 -18 36 -18 271 0 230 2 261 18 283 9 13
17 33 17 42 0 35 54 55 171 63 l109 7 0 3258 0 3257 -102 7 c-128 9 -171 21
-163 46 4 12 -3 25 -21 39 l-28 22 -4 188 c-5 223 4 375 24 396 8 7 14 18 14
24 0 23 60 39 168 46 l112 7 0 192 0 192 -28 27 c-15 15 -31 27 -35 27 -3 0
-23 11 -43 25 l-37 25 -6252 0 -6252 0 -37 -25z m3977 -507 c20 -16 37 -38 37
-48 0 -10 5 -20 10 -22 13 -4 14 -539 1 -547 -5 -3 -10 -15 -12 -25 -2 -11
-18 -28 -35 -38 -28 -16 -57 -18 -248 -18 -137 0 -224 4 -237 10 -11 6 -29 26
-39 43 -18 30 -20 52 -20 300 0 288 2 301 55 354 19 20 34 23 121 25 54 2 151
1 214 -1 110 -3 117 -5 153 -33z m1282 0 l30 -29 5 -157 c3 -86 3 -228 0 -314
-4 -133 -8 -160 -23 -175 -16 -16 -43 -18 -254 -21 l-236 -3 -28 27 -29 28 0
301 0 301 33 37 32 36 100 3 c55 2 154 1 220 -1 117 -3 120 -4 150 -33z m1271
8 c58 -59 57 -50 49 -365 l-8 -290 -27 -26 -27 -26 -236 3 c-211 3 -238 5
-254 21 -15 15 -19 42 -23 175 -3 86 -3 228 0 315 6 206 -3 196 199 199 l146
2 -105 6 -105 6 75 4 c41 3 125 3 185 1 96 -3 113 -6 131 -25z m1280 0 c52
-52 54 -66 54 -353 0 -248 -2 -270 -20 -300 -10 -17 -28 -37 -39 -43 -13 -6
-100 -10 -237 -10 -191 0 -220 2 -248 18 -17 10 -33 27 -35 38 -2 10 -7 22
-13 25 -13 8 -12 543 2 547 5 2 10 11 10 19 0 9 15 31 34 49 34 33 35 33 143
36 59 2 158 1 218 -1 96 -3 113 -6 131 -25z m2490 19 c55 -4 70 -9 90 -30 13
-14 24 -34 24 -45 0 -10 6 -20 13 -23 9 -3 12 -66 12 -270 0 -237 -2 -268 -17
-279 -9 -7 -18 -24 -20 -37 -2 -13 -14 -32 -28 -43 -23 -17 -46 -19 -250 -19
-204 0 -227 2 -250 19 -14 11 -27 29 -28 42 -2 13 -11 35 -20 49 -15 22 -17
59 -17 279 0 231 2 254 18 263 9 6 17 20 17 33 0 13 9 31 20 41 31 28 212 36
436 20z m1354 -14 c14 -10 27 -29 28 -42 2 -13 11 -32 20 -43 15 -16 17 -50
17 -277 0 -230 -2 -260 -17 -271 -9 -7 -18 -24 -20 -37 -2 -13 -14 -32 -28
-43 -23 -16 -46 -18 -225 -18 -110 -1 -216 2 -235 6 -42 8 -70 30 -70 55 0 10
-8 25 -17 35 -33 32 -31 583 2 570 8 -3 20 11 30 35 10 21 23 40 29 40 68 8
245 13 341 11 96 -2 125 -7 145 -21z m-10251 2 c3 -4 15 -16 28 -26 13 -10 23
-25 23 -32 0 -8 7 -18 15 -22 16 -10 18 -37 18 -273 0 -239 -3 -274 -18 -286
-8 -6 -15 -15 -15 -20 0 -5 -15 -24 -34 -42 l-34 -32 -174 2 c-156 2 -163 2
-73 8 100 6 99 6 -47 8 -146 2 -148 2 -178 30 l-31 27 1 298 0 298 31 37 31
37 226 -2 c125 -1 229 -5 231 -10z m1280 0 c3 -4 15 -16 28 -26 13 -10 23 -25
23 -32 0 -8 7 -18 15 -22 16 -10 18 -37 18 -273 0 -239 -3 -274 -18 -286 -8
-6 -15 -15 -15 -20 0 -5 -15 -24 -34 -41 -33 -31 -35 -32 -137 -33 -57 -1
-140 0 -184 1 -80 3 -80 3 30 9 l110 6 -147 2 c-146 2 -148 2 -178 30 l-31 27
1 298 0 298 31 37 31 37 226 -2 c125 -1 229 -5 231 -10z m6421 -26 l30 -35 0
-299 1 -298 -31 -27 c-30 -28 -32 -28 -178 -30 l-147 -2 110 -6 c110 -6 110
-6 30 -9 -44 -1 -127 -2 -184 -1 -102 1 -104 2 -137 33 -19 17 -34 36 -34 41
0 5 -7 14 -15 20 -15 12 -18 52 -18 286 0 222 2 253 18 270 8 9 15 22 15 28 0
6 12 20 26 31 15 12 24 21 20 21 -4 0 -5 3 -3 8 3 4 109 6 236 5 l231 -2 30
-34z m-8243 -384 c-2 -37 -3 -9 -3 62 0 72 1 102 3 68 2 -34 2 -93 0 -130z
m1280 0 c-2 -37 -3 -9 -3 62 0 72 1 102 3 68 2 -34 2 -93 0 -130z m7020 0 c-2
-37 -3 -9 -3 62 0 72 1 102 3 68 2 -34 2 -93 0 -130z m3173 -643 c16 -11 38
-40 49 -64 l21 -43 0 -2859 c0 -2549 -1 -2859 -15 -2866 -8 -5 -15 -15 -15
-23 0 -7 -14 -25 -31 -39 l-31 -26 -6023 0 -6023 0 -31 26 c-17 14 -31 32 -31
39 0 8 -7 18 -15 23 -14 7 -16 308 -16 2868 1 2851 1 2859 21 2899 11 22 34
51 50 65 l31 25 6015 -2 c6010 -3 6016 -3 6044 -23z m-11075 -6222 c46 -1 37
-3 -40 -8 l-100 -6 133 -2 c142 -2 159 -7 208 -56 l30 -31 -2 -279 -3 -278
-41 -40 -41 -40 -234 7 c-221 7 -235 8 -253 29 -11 11 -22 34 -26 50 -11 45
-7 542 4 572 6 14 23 39 39 54 27 28 34 29 127 33 55 2 108 2 119 0 11 -1 47
-4 80 -5z m1280 0 c46 -1 37 -3 -40 -8 l-100 -6 133 -2 c225 -3 222 2 222
-371 l0 -266 -31 -38 -30 -37 -238 0 c-323 0 -306 -21 -296 360 3 140 8 268
11 283 4 16 18 36 33 45 16 9 28 22 27 27 -1 10 187 25 229 18 11 -1 47 -4 80
-5z m1414 -4 c8 -2 11 -7 7 -11 -3 -3 8 -14 24 -24 17 -11 30 -25 30 -33 0 -8
5 -16 11 -18 18 -6 30 -97 17 -133 -8 -24 -8 -69 0 -176 14 -188 5 -239 -52
-306 -19 -23 -23 -23 -258 -23 l-239 0 -24 26 -25 27 0 288 c0 159 4 299 10
313 17 45 56 56 202 58 l133 2 -100 6 -100 6 70 4 c77 5 272 1 294 -6z m1308
-31 c18 -19 33 -40 33 -48 0 -7 5 -15 10 -17 14 -4 14 -542 0 -546 -5 -2 -10
-12 -10 -22 0 -10 -12 -28 -26 -39 -15 -12 -23 -21 -18 -21 4 0 3 -5 -2 -10
-7 -7 -95 -10 -233 -10 -219 0 -224 0 -246 22 -53 54 -55 67 -55 355 0 250 1
270 20 301 11 18 32 37 46 42 14 6 85 11 157 12 l132 2 -100 6 -100 6 70 4
c39 3 119 3 180 1 l110 -3 32 -35z m3668 35 c46 -1 37 -3 -40 -8 l-100 -6 133
-2 c230 -3 226 4 217 -378 l-8 -283 -28 -32 -28 -31 -231 7 c-207 7 -233 9
-255 27 -14 11 -25 28 -25 39 0 11 -4 17 -10 14 -15 -9 -16 534 -1 545 4 3 13
24 20 47 8 25 22 44 35 49 24 9 210 22 241 17 11 -1 47 -4 80 -5z m1330 -3 c6
-2 -35 -5 -90 -6 -95 -3 -92 -3 47 -8 211 -8 193 20 202 -335 7 -257 6 -287
-9 -317 -38 -74 -30 -72 -288 -64 -215 7 -234 9 -254 28 -13 11 -23 26 -23 33
0 7 -7 17 -15 21 -10 6 -15 30 -16 88 -2 77 -3 307 -1 392 1 52 34 118 67 135
13 7 23 18 22 23 -3 16 314 25 358 10z m1363 0 c7 -3 11 -9 8 -13 -3 -5 6 -14
19 -20 13 -6 32 -28 40 -49 14 -33 16 -73 10 -313 l-7 -275 -26 -27 -26 -28
-237 0 -237 0 -37 46 -38 46 1 236 c0 131 1 249 1 264 1 15 8 33 16 42 8 8 15
19 15 25 0 6 13 19 29 29 15 9 28 22 27 27 -2 17 395 26 442 10z m-5087 -32
l39 -37 0 -307 0 -308 -26 -20 c-14 -11 -25 -23 -25 -26 1 -4 -101 -6 -225 -6
-328 3 -309 -21 -299 380 8 307 9 311 62 332 13 5 112 11 220 14 109 4 200 8
202 11 8 7 12 4 52 -33z m1250 13 c67 -28 66 -22 74 -337 10 -401 29 -377
-299 -380 -124 0 -226 2 -225 6 0 3 -11 15 -25 26 l-26 20 0 308 0 308 26 24
c23 22 37 25 142 30 227 11 298 10 333 -5z m-6924 -393 c-2 -37 -3 -9 -3 62 0
72 1 102 3 68 2 -34 2 -93 0 -130z m10860 0 c-2 -37 -3 -9 -3 62 0 72 1 102 3
68 2 -34 2 -93 0 -130z"/>
</g>
</svg>
