<svg width="75" height="75" viewBox="0 0 75 75" fill="none" xmlns="http://www.w3.org/2000/svg">
<path d="M45.846 37.5287C51.811 30.9737 55.4473 25.3675 56.6611 20.8212C57.9811 15.8837 55.2386 11.7375 51.8473 10.1937C48.5172 8.67625 45.016 9.7 42.9147 12.81C40.5572 16.3025 41.4172 19.5387 42.8684 21.25C44.4147 23.07 46.7935 23.6775 48.7885 22.7625C49.8197 22.2862 50.2685 21.0725 49.796 20.0425C49.3235 19.0138 48.106 18.5613 47.076 19.0325C46.781 19.1675 46.326 18.985 45.9947 18.5925C45.286 17.7563 45.4047 16.4513 46.3147 15.1025C47.6285 13.1562 49.2785 13.53 50.1473 13.925C51.9685 14.755 53.4285 17.025 52.6985 19.7612C51.6823 23.5637 48.3897 28.5863 43.0959 34.4538C42.9522 34.1737 42.7759 33.9062 42.5422 33.6725L16.2694 4.47625C16.2544 3.69625 15.9557 2.9225 15.3619 2.3275L15.1332 2.1025C14.5244 1.4925 13.7256 1.18875 12.9269 1.18875C12.4856 1.18875 12.0444 1.28125 11.6356 1.4675C10.3431 0.48875 8.79934 0 7.25557 0C5.39931 0 3.54304 0.70625 2.12552 2.12375C-0.468254 4.72 -0.689506 8.78875 1.46927 11.635C0.946761 12.785 1.15801 14.1875 2.10177 15.1338L2.33052 15.36C2.92428 15.9563 3.69929 16.2537 4.4768 16.27L33.6746 42.545C33.9096 42.78 34.1758 42.955 34.4558 43.0975C28.587 48.39 23.5645 51.6825 19.7619 52.7012C17.0269 53.4312 14.7569 51.9688 13.9269 50.1488C13.5319 49.2825 13.1581 47.6313 15.1032 46.3175C16.4532 45.4062 17.7569 45.2887 18.5944 45.9975C18.9844 46.33 19.1682 46.785 19.0344 47.08C18.5619 48.1075 19.0119 49.325 20.0432 49.7988C21.0732 50.2713 22.287 49.8225 22.762 48.7913C23.6782 46.795 23.0695 44.415 21.2495 42.8713C19.5394 41.42 16.3032 40.5612 12.8106 42.9163C9.7006 45.0187 8.67809 48.5187 10.1944 51.8488C11.7381 55.2388 15.8844 57.9813 20.822 56.6637C25.367 55.4488 30.9746 51.8125 37.5296 45.8488C41.6009 51.2413 52.7335 63.7863 75 75C63.7861 52.735 51.2398 41.6037 45.846 37.5287ZM13.7006 5.08875L5.0893 13.7013C4.8893 13.9013 4.6568 13.9313 4.53555 13.9313C4.3893 13.9313 4.17554 13.8925 3.97429 13.6912L3.76054 13.4812C3.49679 13.2162 3.49054 12.8512 3.60179 12.6087L4.18054 11.335L3.33553 10.2213C1.86302 8.27875 2.05552 5.50875 3.78179 3.7825C4.7093 2.855 5.94306 2.345 7.25557 2.345C8.33808 2.345 9.3631 2.6875 10.2206 3.3375L11.3331 4.18L12.6044 3.6025C12.7031 3.55875 12.8144 3.53375 12.9269 3.53375C13.0469 3.53375 13.2781 3.5625 13.4931 3.77875L13.7031 3.98375C14.0069 4.28875 14.0069 4.78375 13.7006 5.08875ZM44.2347 39.2625C48.526 42.49 58.2236 50.9113 67.8574 66.91L42.2509 41.3037C42.9297 40.6162 43.5984 39.9325 44.2347 39.2625ZM39.2609 44.2363C39.9309 43.6012 40.6147 42.9312 41.3034 42.2512L66.9099 67.8575C50.9085 58.2238 42.4847 48.5238 39.2609 44.2363Z" fill="#DAA622"/>
</svg>
