<svg width="192" height="70" viewBox="0 0 192 70" fill="none" xmlns="http://www.w3.org/2000/svg">
<g clip-path="url(#clip0_160_85)">
<path fill-rule="evenodd" clip-rule="evenodd" d="M164.235 15.3058C163.166 15.1381 162.278 14.7814 161.569 14.2355C161.173 14.291 160.859 14.4337 160.627 14.6636C160.792 14.0124 160.739 13.3702 160.471 12.737C160.157 12.737 159.843 12.737 159.529 12.737C159.354 11.521 159.145 10.308 158.902 9.09787C146.463 9.11887 134.019 9.19024 121.569 9.31194C119.477 9.38329 117.386 9.45466 115.294 9.52601C117.451 9.87256 119.647 10.051 121.882 10.0612C118.379 10.2991 114.928 10.1207 111.529 9.52601C110.282 9.6681 109.027 9.73945 107.765 9.74007C107.811 9.51487 107.759 9.30081 107.608 9.09787C97.9595 9.09145 88.2861 9.12713 78.5882 9.20491C76.5932 9.24117 74.6061 9.3482 72.6274 9.52601C80.5691 9.38117 88.5167 9.38117 96.4706 9.52601C100.246 9.60487 104.011 9.78325 107.765 10.0612C106.935 10.1677 106.098 10.2033 105.255 10.1682C105.255 10.7391 105.255 11.3099 105.255 11.8807C104.209 11.8807 103.163 11.8807 102.118 11.8807C102.267 12.4144 102.685 12.8426 103.373 13.1651C103.208 13.3134 102.999 13.4204 102.745 13.4863C103.751 13.5497 104.744 13.6567 105.725 13.8074C106.238 13.7265 106.709 13.5838 107.137 13.3792C106.928 12.9511 106.719 12.5229 106.51 12.0948C106.883 11.896 107.301 11.8247 107.765 11.8807C107.765 12.5229 107.765 13.1651 107.765 13.8074C108.731 13.8587 109.672 13.7874 110.588 13.5933C111.003 12.4691 111.213 11.3274 111.216 10.1682C111.529 10.1682 111.843 10.1682 112.157 10.1682C112.34 10.8473 112.34 11.5608 112.157 12.3089C112.185 12.8363 112.394 13.3001 112.784 13.7003C124.877 13.7039 137.008 13.6683 149.176 13.5933C150.431 13.7003 151.686 13.8074 152.941 13.9144C151.211 13.9515 149.538 14.0585 147.922 14.2355C141.229 14.2355 134.536 14.2355 127.843 14.2355C122.824 14.2355 117.804 14.2355 112.784 14.2355C86.7849 14.0922 60.7457 13.9495 34.6667 13.8074C34.2996 14.0629 34.4041 14.2056 34.9804 14.2355C34.7579 14.429 34.4442 14.5004 34.0392 14.4496C33.6715 14.1915 33.2533 14.1915 32.7843 14.4496C32.5063 14.2729 32.4019 14.0589 32.4706 13.8074C32.1019 13.7605 31.7882 13.8318 31.5294 14.0214C31.8714 14.2587 31.8714 14.4728 31.5294 14.6636C31.1111 14.5209 30.6928 14.3782 30.2745 14.2355C29.9966 14.4121 29.8921 14.6262 29.9608 14.8777C29.1014 14.8335 28.3694 14.6194 27.7647 14.2355C27.4247 14.2751 27.111 14.3464 26.8235 14.4496C27.0635 13.9296 27.5863 13.6442 28.3921 13.5933C29.5829 12.151 30.2104 10.5812 30.2745 8.8838C73.2549 8.84812 116.235 8.8838 159.216 8.99084C159.731 10.7232 160.463 12.4001 161.412 14.0214C161.742 13.9894 162.056 14.0251 162.353 14.1285C163.063 14.4746 163.69 14.867 164.235 15.3058Z" fill="#DAA622"/>
<path fill-rule="evenodd" clip-rule="evenodd" d="M164.235 15.3058C164.851 15.5802 165.479 15.8656 166.118 16.1621C167.571 16.4109 169.036 16.625 170.51 16.8043C170.764 17.1406 170.868 17.4974 170.824 17.8746C169.185 17.9698 168.662 18.5407 169.255 19.5872C169.515 19.783 169.828 19.9257 170.196 20.0153C170.506 20.7149 170.61 21.4286 170.51 22.156C169.459 22.1883 168.936 22.5809 168.941 23.3333C169.127 23.9248 169.65 24.2459 170.51 24.2966C170.609 24.9543 170.505 25.5965 170.196 26.2233C168.686 26.895 168.686 27.6085 170.196 28.3639C170.614 29.0774 170.614 29.7911 170.196 30.5046C169.808 30.6643 169.39 30.7356 168.941 30.7187C168.89 31.2232 168.942 31.7226 169.098 32.2171C169.523 32.4055 169.994 32.477 170.51 32.4312C170.61 33.1586 170.506 33.8723 170.196 34.5719C168.53 35.2252 168.53 35.8674 170.196 36.4985C170.506 37.2706 170.611 38.0556 170.51 38.8532C169.898 38.7948 169.427 38.9374 169.098 39.2814C169.092 39.7731 169.145 40.2727 169.255 40.7798C170.337 40.7955 170.755 41.1878 170.51 41.9572C170.457 42.2783 170.405 42.5994 170.353 42.9205C169.098 43.2091 168.68 43.78 169.098 44.633C169.523 44.8214 169.994 44.8929 170.51 44.8471C170.611 45.6447 170.506 46.4297 170.196 47.2018C168.869 47.6467 168.66 48.2531 169.569 49.0214C169.866 49.1248 170.18 49.1604 170.51 49.1285C170.61 49.8559 170.506 50.5696 170.196 51.2691C168.349 52.308 168.558 53.0217 170.824 53.4098C170.824 53.8379 170.824 54.2661 170.824 54.6942C169.877 54.6589 168.936 54.6946 168 54.8012C166.187 55.1705 164.514 55.7057 162.98 56.4067C162.17 56.7775 161.386 57.2056 160.627 57.6911C159.536 59.0644 158.856 60.5271 158.588 62.0795C115.922 62.1866 73.2549 62.2223 30.5882 62.1866C30.6828 61.6388 30.5782 61.1391 30.2745 60.6881C29.4279 59.7166 28.6959 58.6818 28.0784 57.5841C25.7237 55.7994 22.7957 54.7648 19.2941 54.4801C19.0402 54.1438 18.9356 53.787 18.9804 53.4098C20.294 53.1934 20.7646 52.6225 20.3921 51.6973C20.044 51.3682 19.5734 51.2257 18.9804 51.2691C18.9286 50.552 18.9809 49.8385 19.1372 49.1285C20.5092 48.8859 20.8752 48.315 20.2353 47.4159C19.8474 47.2562 19.4292 47.1849 18.9804 47.2018C18.9804 46.4884 18.9804 45.7747 18.9804 45.0612C19.6367 45.0481 20.1073 44.834 20.3921 44.419C20.49 43.8177 20.3331 43.2467 19.9215 42.7064C19.6078 42.7064 19.2941 42.7064 18.9804 42.7064C18.9804 42.0642 18.9804 41.422 18.9804 40.7798C20.0312 40.7475 20.5541 40.3549 20.549 39.6025C20.4833 39.2019 20.1696 38.9521 19.6078 38.8532C19.5033 38.4964 19.3987 38.1397 19.2941 37.7829C19.552 36.9624 19.9703 36.1774 20.549 35.4281C20.2519 35.0214 19.7813 34.7361 19.1372 34.5719C18.9809 33.8618 18.9286 33.1483 18.9804 32.4312C20.5857 32.096 20.8994 31.4538 19.9215 30.5046C19.6627 30.3149 19.349 30.2437 18.9804 30.2905C18.9287 29.6445 18.981 29.0023 19.1372 28.3639C21.0133 27.5939 21.0133 26.8092 19.1372 26.0092C18.981 25.3708 18.9287 24.7286 18.9804 24.0826C19.9828 24.0798 20.5056 23.7229 20.549 23.0122C20.3981 22.4099 19.8752 22.1243 18.9804 22.156C18.9804 21.3711 18.9804 20.5862 18.9804 19.8012C20.3856 19.7161 20.8039 19.2166 20.2353 18.3028C19.8474 18.1431 19.4292 18.0717 18.9804 18.0887C18.9804 17.5178 18.9804 16.947 18.9804 16.3762C20.1354 16.4115 21.2858 16.3759 22.4314 16.2691C24.0453 15.7989 25.5094 15.1923 26.8235 14.4496C27.111 14.3464 27.4247 14.2751 27.7647 14.2355C28.3694 14.6194 29.1014 14.8335 29.9608 14.8777C29.8921 14.6262 29.9966 14.4121 30.2745 14.2355C30.6928 14.3782 31.1111 14.5209 31.5294 14.6636C31.8714 14.4728 31.8714 14.2587 31.5294 14.0214C31.7882 13.8318 32.1019 13.7605 32.4706 13.8074C32.4019 14.0589 32.5063 14.2729 32.7843 14.4496C33.2533 14.1915 33.6715 14.1915 34.0392 14.4496C31.9507 15.2284 30.9051 16.4414 30.9019 18.0887C30.8496 30.148 30.9019 42.2072 31.0588 54.2661C31.471 55.6532 32.6735 56.5095 34.6666 56.8349C37.2543 57.0423 39.8688 57.1136 42.5098 57.0489C79.6342 57.0847 116.758 57.0489 153.882 56.9419C155.556 56.6763 156.863 56.0698 157.804 55.1223C158.416 53.8709 158.678 52.5865 158.588 51.2691C158.641 39.8521 158.588 28.435 158.431 17.0184C157.893 15.9376 156.899 15.117 155.451 14.5566C152.963 14.2647 150.454 14.1577 147.922 14.2355C149.538 14.0585 151.211 13.9515 152.941 13.9144C151.686 13.8074 150.431 13.7003 149.176 13.5933C137.008 13.6683 124.877 13.7039 112.784 13.7003C112.394 13.3001 112.185 12.8363 112.157 12.3089C112.34 11.5608 112.34 10.8473 112.157 10.1682C111.843 10.1682 111.529 10.1682 111.216 10.1682C111.213 11.3274 111.003 12.4691 110.588 13.5933C109.672 13.7874 108.731 13.8587 107.765 13.8074C107.765 13.1652 107.765 12.5229 107.765 11.8807C107.301 11.8247 106.883 11.896 106.51 12.0948C106.719 12.5229 106.928 12.9511 107.137 13.3792C106.709 13.5838 106.238 13.7265 105.725 13.8074C104.744 13.6567 103.751 13.5497 102.745 13.4863C102.999 13.4204 103.208 13.3134 103.373 13.1652C102.685 12.8426 102.267 12.4144 102.118 11.8807C103.163 11.8807 104.209 11.8807 105.255 11.8807C105.255 11.3099 105.255 10.7391 105.255 10.1682C106.098 10.2033 106.935 10.1677 107.765 10.0612C104.011 9.78325 100.246 9.60487 96.4706 9.52601C88.5167 9.38117 80.5691 9.38117 72.6274 9.52601C74.6061 9.3482 76.5932 9.24117 78.5882 9.20491C88.2861 9.12714 97.9595 9.09145 107.608 9.09787C107.759 9.30081 107.811 9.51488 107.765 9.74007C109.027 9.73945 110.282 9.6681 111.529 9.52601C114.928 10.1207 118.379 10.2991 121.882 10.0612C119.647 10.051 117.451 9.87256 115.294 9.52601C117.386 9.45466 119.477 9.38329 121.569 9.31194C134.018 9.19024 146.463 9.11887 158.902 9.09787C159.145 10.308 159.354 11.521 159.529 12.737C159.843 12.737 160.157 12.737 160.471 12.737C160.739 13.3702 160.792 14.0125 160.627 14.6636C160.859 14.4337 161.173 14.291 161.569 14.2355C162.278 14.7814 163.166 15.1381 164.235 15.3058Z" fill="#DAA622"/>
<path fill-rule="evenodd" clip-rule="evenodd" d="M164.235 15.3058C164.851 15.5802 165.479 15.8656 166.118 16.1621C167.571 16.4109 169.036 16.625 170.51 16.8043C170.764 17.1406 170.868 17.4974 170.824 17.8746C169.185 17.9698 168.662 18.5407 169.255 19.5872C169.515 19.783 169.828 19.9257 170.196 20.0153C170.506 20.7149 170.61 21.4286 170.51 22.156C169.459 22.1883 168.936 22.5809 168.941 23.3333C169.127 23.9248 169.65 24.2459 170.51 24.2966C170.609 24.9543 170.505 25.5965 170.196 26.2233C168.686 26.895 168.686 27.6085 170.196 28.3639C170.614 29.0774 170.614 29.7911 170.196 30.5046C169.808 30.6643 169.39 30.7356 168.941 30.7187C168.89 31.2232 168.942 31.7226 169.098 32.2171C169.523 32.4055 169.994 32.477 170.51 32.4312C170.61 33.1586 170.506 33.8723 170.196 34.5719C168.53 35.2252 168.53 35.8674 170.196 36.4985C170.506 37.2706 170.611 38.0556 170.51 38.8532C169.898 38.7948 169.427 38.9374 169.098 39.2814C169.092 39.7731 169.145 40.2727 169.255 40.7798C170.337 40.7955 170.755 41.1878 170.51 41.9572C170.457 42.2783 170.405 42.5994 170.353 42.9205C169.098 43.2091 168.68 43.78 169.098 44.633C169.523 44.8214 169.994 44.8929 170.51 44.8471C170.611 45.6447 170.506 46.4297 170.196 47.2018C168.869 47.6467 168.66 48.2531 169.569 49.0214C169.866 49.1248 170.18 49.1604 170.51 49.1285C170.61 49.8559 170.506 50.5696 170.196 51.2691C168.349 52.308 168.558 53.0217 170.824 53.4098C170.824 53.8379 170.824 54.2661 170.824 54.6942C169.877 54.6589 168.936 54.6946 168 54.8012C166.187 55.1705 164.514 55.7057 162.98 56.4067C162.17 56.7775 161.386 57.2056 160.627 57.6911C159.536 59.0644 158.856 60.5271 158.588 62.0795C115.922 62.1866 73.2549 62.2223 30.5882 62.1866C30.6828 61.6388 30.5782 61.1391 30.2745 60.6881C29.4279 59.7166 28.6959 58.6818 28.0784 57.5841C25.7237 55.7994 22.7957 54.7648 19.2941 54.4801C19.0402 54.1438 18.9356 53.787 18.9804 53.4098C20.294 53.1934 20.7646 52.6225 20.3921 51.6973C20.044 51.3682 19.5734 51.2257 18.9804 51.2691C18.9286 50.552 18.9809 49.8385 19.1372 49.1285C20.5092 48.8859 20.8752 48.315 20.2353 47.4159C19.8474 47.2562 19.4292 47.1849 18.9804 47.2018C18.9804 46.4884 18.9804 45.7747 18.9804 45.0612C19.6367 45.0481 20.1073 44.834 20.3921 44.419C20.49 43.8177 20.3331 43.2467 19.9215 42.7064C19.6078 42.7064 19.2941 42.7064 18.9804 42.7064C18.9804 42.0642 18.9804 41.422 18.9804 40.7798C20.0312 40.7475 20.5541 40.3549 20.549 39.6025C20.4833 39.2019 20.1696 38.9521 19.6078 38.8532C19.5033 38.4964 19.3987 38.1397 19.2941 37.7829C19.552 36.9624 19.9703 36.1774 20.549 35.4281C20.2519 35.0214 19.7813 34.7361 19.1372 34.5719C18.9809 33.8618 18.9286 33.1483 18.9804 32.4312C20.5857 32.096 20.8994 31.4538 19.9215 30.5046C19.6627 30.3149 19.349 30.2437 18.9804 30.2905C18.9287 29.6445 18.981 29.0023 19.1372 28.3639C21.0133 27.5939 21.0133 26.8092 19.1372 26.0092C18.981 25.3708 18.9287 24.7286 18.9804 24.0826C19.9828 24.0798 20.5056 23.7229 20.549 23.0122C20.3981 22.4099 19.8752 22.1243 18.9804 22.156C18.9804 21.3711 18.9804 20.5862 18.9804 19.8012C20.3856 19.7161 20.8039 19.2166 20.2353 18.3028C19.8474 18.1431 19.4292 18.0717 18.9804 18.0887C18.9804 17.5178 18.9804 16.947 18.9804 16.3762C20.1354 16.4115 21.2858 16.3759 22.4314 16.2691C24.0453 15.7989 25.5094 15.1923 26.8235 14.4496C27.111 14.3464 27.4247 14.2751 27.7647 14.2355C28.3694 14.6194 29.1014 14.8335 29.9608 14.8777C29.8921 14.6262 29.9966 14.4121 30.2745 14.2355C30.6928 14.3782 31.1111 14.5209 31.5294 14.6636C31.8714 14.4728 31.8714 14.2587 31.5294 14.0214C31.7882 13.8318 32.1019 13.7605 32.4706 13.8074C32.4019 14.0589 32.5063 14.2729 32.7843 14.4496C33.2533 14.1915 33.6715 14.1915 34.0392 14.4496C31.9507 15.2284 30.9051 16.4414 30.9019 18.0887C30.8496 30.148 30.9019 42.2072 31.0588 54.2661C31.471 55.6532 32.6735 56.5095 34.6666 56.8349C37.2543 57.0423 39.8688 57.1136 42.5098 57.0489C79.6342 57.0847 116.758 57.0489 153.882 56.9419C155.556 56.6763 156.863 56.0698 157.804 55.1223C158.416 53.8709 158.678 52.5865 158.588 51.2691C158.641 39.8521 158.588 28.435 158.431 17.0184C157.893 15.9376 156.899 15.117 155.451 14.5566C152.963 14.2647 150.454 14.1577 147.922 14.2355C149.538 14.0585 151.211 13.9515 152.941 13.9144C151.686 13.8074 150.431 13.7003 149.176 13.5933C137.008 13.6683 124.877 13.7039 112.784 13.7003C112.394 13.3001 112.185 12.8363 112.157 12.3089C112.34 11.5608 112.34 10.8473 112.157 10.1682C111.843 10.1682 111.529 10.1682 111.216 10.1682C111.213 11.3274 111.003 12.4691 110.588 13.5933C109.672 13.7874 108.731 13.8587 107.765 13.8074C107.765 13.1652 107.765 12.5229 107.765 11.8807C107.301 11.8247 106.883 11.896 106.51 12.0948C106.719 12.5229 106.928 12.9511 107.137 13.3792C106.709 13.5838 106.238 13.7265 105.725 13.8074C104.744 13.6567 103.751 13.5497 102.745 13.4863C102.999 13.4204 103.208 13.3134 103.373 13.1652C102.685 12.8426 102.267 12.4144 102.118 11.8807C103.163 11.8807 104.209 11.8807 105.255 11.8807C105.255 11.3099 105.255 10.7391 105.255 10.1682C106.098 10.2033 106.935 10.1677 107.765 10.0612C104.011 9.78325 100.246 9.60487 96.4706 9.52601C88.5167 9.38117 80.5691 9.38117 72.6274 9.52601C74.6061 9.3482 76.5932 9.24117 78.5882 9.20491C88.2861 9.12714 97.9595 9.09145 107.608 9.09787C107.759 9.30081 107.811 9.51488 107.765 9.74007C109.027 9.73945 110.282 9.6681 111.529 9.52601C114.928 10.1207 118.379 10.2991 121.882 10.0612C119.647 10.051 117.451 9.87256 115.294 9.52601C117.386 9.45466 119.477 9.38329 121.569 9.31194C134.018 9.19024 146.463 9.11887 158.902 9.09787C159.145 10.308 159.354 11.521 159.529 12.737C159.843 12.737 160.157 12.737 160.471 12.737C160.739 13.3702 160.792 14.0125 160.627 14.6636C160.859 14.4337 161.173 14.291 161.569 14.2355C162.278 14.7814 163.166 15.1381 164.235 15.3058Z" fill="#DAA622"/>
<path fill-rule="evenodd" clip-rule="evenodd" d="M34.9804 14.2355C40 14.2355 45.0196 14.2355 50.0392 14.2355C55.1234 14.3811 60.2475 14.5238 65.4118 14.6636C86.2168 14.4847 107.027 14.4133 127.843 14.4495C136.848 14.3533 145.842 14.4603 154.824 14.7706C136.575 14.8064 118.379 14.9135 100.235 15.0917C90.9788 15.0208 81.7763 15.0921 72.6274 15.3058C60.0781 15.2701 47.5291 15.3058 34.9804 15.4128C34.4012 15.6333 33.8783 15.883 33.4118 16.1621C32.8565 16.5074 32.4907 16.9356 32.3137 17.4465C32.1568 19.3718 32.1048 21.2984 32.1568 23.2263C32.0157 21.8006 31.7019 20.6589 31.2157 19.8012C31.2483 19.3284 31.3528 18.8646 31.5294 18.4098C31.424 18.1893 31.2148 18.0823 30.9019 18.0887C30.9051 16.4414 31.9507 15.2283 34.0392 14.4495C34.4442 14.5003 34.7579 14.429 34.9804 14.2355Z" fill="#A23918"/>
<path fill-rule="evenodd" clip-rule="evenodd" d="M50.0392 14.2355C70.9544 14.2355 91.8692 14.2355 112.784 14.2355C117.804 14.2355 122.824 14.2355 127.843 14.2355C127.843 14.3068 127.843 14.3782 127.843 14.4495C107.027 14.4133 86.2168 14.4847 65.4118 14.6636C60.2475 14.5238 55.1235 14.3811 50.0392 14.2355Z" fill="#DAA622"/>
<path fill-rule="evenodd" clip-rule="evenodd" d="M112.784 14.2355C91.8692 14.2355 70.9544 14.2355 50.0392 14.2355C45.0196 14.2355 40 14.2355 34.9804 14.2355C34.4041 14.2056 34.2996 14.0629 34.6667 13.8073C60.7457 13.9495 86.785 14.0922 112.784 14.2355Z" fill="#DAA622"/>
<path fill-rule="evenodd" clip-rule="evenodd" d="M72.6275 15.3058C82.1462 15.2345 91.6624 15.3058 101.176 15.5199C102.031 15.7578 102.92 15.9005 103.843 15.948C109.396 15.8451 114.886 15.7737 120.314 15.7339C120.314 15.948 120.314 16.1621 120.314 16.3761C121.677 16.4116 123.037 16.3759 124.392 16.2691C124.926 16.1096 125.449 15.9312 125.961 15.7339C128.359 15.7963 130.764 15.7963 133.176 15.7339C134.145 16.1018 135.086 16.1375 136 15.841C137.645 15.841 139.266 15.8053 140.863 15.7339C142.391 15.557 143.07 15.9851 142.902 17.0183C143.739 17.0183 144.575 17.0183 145.412 17.0183C145.331 17.5091 145.436 17.9729 145.725 18.4098C144.499 18.9253 143.557 19.6032 142.902 20.4434C142.065 20.4434 141.229 20.4434 140.392 20.4434C140.392 19.8726 140.392 19.3017 140.392 18.7309C139.543 18.7469 138.707 18.8183 137.882 18.9449C137.955 19.6288 137.746 20.271 137.255 20.8715C137.355 21.1171 137.564 21.2955 137.882 21.4067C137.591 21.4898 137.382 21.6326 137.255 21.8348C138.271 22.4749 138.376 23.1529 137.569 23.8685C136.603 23.7383 135.661 23.8811 134.745 24.2966C134.222 24.0826 133.699 23.8685 133.176 23.6544C132.57 23.7925 132.204 24.0781 132.078 24.5107C131.794 24.0956 131.323 23.8815 130.667 23.8685C130.713 24.0937 130.661 24.3078 130.51 24.5107C129.836 24.3795 129.156 24.2369 128.471 24.0826C129.736 23.6071 131.096 23.3573 132.549 23.3333C131.866 23.076 131.134 22.969 130.353 23.0122C130.397 22.6646 130.188 22.415 129.725 22.263C128.989 22.1915 128.257 22.2272 127.529 22.37C127.462 22.7219 127.567 23.043 127.843 23.3333C127.124 23.855 126.235 24.1761 125.176 24.2966C124.869 23.9201 124.66 23.5632 124.549 23.2263C124.229 23.5241 123.968 23.8452 123.765 24.1896C123.309 24.1333 122.891 24.169 122.51 24.2966C122.785 24.4574 123.098 24.5644 123.451 24.6177C123.137 24.796 122.824 24.9746 122.51 25.1529C122.675 25.301 122.884 25.4081 123.137 25.474C122.714 25.6392 122.453 25.8891 122.353 26.2232C122.066 25.4436 121.805 24.6588 121.569 23.8685C121.304 24.6629 120.99 25.4477 120.627 26.2232C120.732 26.4373 120.837 26.6514 120.941 26.8654C121.192 26.5276 121.348 26.171 121.412 25.7951C121.565 26.0719 121.618 26.3574 121.569 26.6514C121.987 26.6514 122.405 26.6514 122.824 26.6514C122.824 26.366 122.824 26.0804 122.824 25.7951C123.893 25.9079 124.939 26.0149 125.961 26.1162C126.711 25.836 126.711 25.6219 125.961 25.474C125.222 25.4408 124.49 25.4408 123.765 25.474C124.351 25.1527 124.926 24.8316 125.49 24.5107C125.608 24.7068 125.764 24.8853 125.961 25.0459C127.096 25.0142 127.881 25.3353 128.314 26.0092C128.418 25.8664 128.523 25.7238 128.627 25.581C128.717 26.0929 128.874 26.5923 129.098 27.0795C128.844 27.2328 128.634 27.4113 128.471 27.6147C128.673 28.2813 128.987 28.9235 129.412 29.5413C129.273 29.9319 129.168 30.3243 129.098 30.7186C128.68 30.7186 128.261 30.7186 127.843 30.7186C127.843 30.3618 127.843 30.0052 127.843 29.6483C127.529 29.6483 127.216 29.6483 126.902 29.6483C126.971 29.3968 126.866 29.1827 126.588 29.0061C126.206 29.2514 125.788 29.4655 125.333 29.6483C125.828 29.8191 126.351 29.9262 126.902 29.9694C126.797 30.0407 126.693 30.1122 126.588 30.1835C125.42 30.2173 124.27 30.1103 123.137 29.8624C122.719 30.1477 122.719 30.4333 123.137 30.7186C123.842 30.5315 124.574 30.46 125.333 30.5046C125.752 31.004 125.752 31.5036 125.333 32.003C125.003 32.0349 124.69 31.9994 124.392 31.896C124.14 31.5169 123.774 31.1958 123.294 30.9327C123.338 31.436 123.495 31.9354 123.765 32.4312C123.451 32.4312 123.137 32.4312 122.824 32.4312C122.824 32.6452 122.824 32.8593 122.824 33.0734C123.908 33.1091 124.013 33.3232 123.137 33.7156C122.713 33.2583 122.19 33.1868 121.569 33.5015C120.891 33.387 120.263 33.2087 119.686 32.9663C119.94 32.9004 120.149 32.7934 120.314 32.6452C120 32.5025 119.686 32.3599 119.373 32.2171C119.731 32.0191 119.731 31.8406 119.373 31.6819C120.079 31.6926 120.602 31.9422 120.941 32.4312C121.046 32.2884 121.15 32.1458 121.255 32.003C120.931 31.6002 120.67 31.172 120.471 30.7186C120.366 30.9327 120.261 31.1468 120.157 31.3608C119.948 31.0755 119.739 31.0755 119.529 31.3608C119.061 30.5465 118.799 30.6178 118.745 31.5749C118.028 31.6229 117.348 31.7656 116.706 32.003C115.841 31.7472 115.371 31.9613 115.294 32.6452C116.653 32.4808 117.698 32.7662 118.431 33.5015C117.403 33.7102 116.305 33.7102 115.137 33.5015C114.227 33.5895 113.39 33.8036 112.627 34.1437C112.434 34.3469 112.486 34.5252 112.784 34.6789C115.45 34.8441 115.554 34.7014 113.098 34.2507C113.743 34.1842 114.371 34.0771 114.98 33.9296C115.288 34.6688 115.758 34.7401 116.392 34.1437C116.646 34.5888 116.593 35.0169 116.235 35.4281C115.57 35.1344 115.256 35.2772 115.294 35.8563C115.817 35.8563 116.34 35.8563 116.863 35.8563C116.92 36.3218 117.129 36.75 117.49 37.1407C117.386 37.2834 117.281 37.426 117.176 37.5688C116.758 36.7125 116.34 36.7125 115.922 37.5688C114.888 37.3656 113.842 37.3656 112.784 37.5688C112.951 38.7391 113.526 38.9532 114.51 38.211C115.479 38.6622 115.531 39.1617 114.667 39.7095C114.804 40.0528 115.014 40.3739 115.294 40.6728C115.19 40.7798 115.085 40.8868 114.98 40.9939C113.82 40.311 112.565 39.7045 111.216 39.1743C111.634 38.6749 112.052 38.1752 112.471 37.6758C111.11 37.5148 109.75 37.4433 108.392 37.4618C108.032 37.9081 108.242 38.2292 109.02 38.4251C108.554 38.9487 108.189 38.8772 107.922 38.211C107.605 38.5374 107.448 38.8943 107.451 39.2813C107.882 39.2477 108.3 39.2835 108.706 39.3884C108.202 39.6129 107.993 39.934 108.078 40.3517C107.339 40.3168 106.607 40.3523 105.882 40.4587C106.262 40.697 106.262 40.9468 105.882 41.2079C106.092 41.422 106.301 41.6361 106.51 41.8501C106.267 42.1094 106.006 42.1094 105.725 41.8501C105.468 41.2899 105.311 40.719 105.255 40.1376C106.119 40.0768 106.955 39.934 107.765 39.7095C106.372 39.5928 105.012 39.5213 103.686 39.4954C103.324 38.2474 103.742 38.1404 104.941 39.1743C105.56 39.2803 106.188 39.316 106.824 39.2813C106.917 38.8309 106.813 38.4028 106.51 37.9969C105.99 38.442 105.363 38.4777 104.627 38.104C105.421 37.8863 105.421 37.6364 104.627 37.3547C104.966 36.7937 105.489 36.3298 106.196 35.9633C105.736 35.7282 105.474 35.4071 105.412 35C105.453 35.7563 104.93 36.1844 103.843 36.2844C103.37 35.7479 102.899 35.2128 102.431 34.6789C102.811 34.4877 102.811 34.3094 102.431 34.1437C101.125 34.3402 99.8704 34.2332 98.6667 33.8226C99.5034 33.5373 99.5034 33.2517 98.6667 32.9663C99.1689 32.9079 99.6395 32.8009 100.078 32.6452C100.196 32.8413 100.353 33.0199 100.549 33.1804C101.281 33.3232 102.013 33.3232 102.745 33.1804C102.536 32.9663 102.327 32.7523 102.118 32.5382C102.508 32.4406 102.769 32.5476 102.902 32.8593C103.792 31.9981 104.995 31.57 106.51 31.5749C106.51 31.2896 106.51 31.004 106.51 30.7186C107.775 30.6818 109.03 30.5748 110.275 30.3975C110.468 29.8071 110.52 29.2007 110.431 28.578C110.745 28.8633 111.059 28.8633 111.373 28.578C111.477 28.1498 111.582 27.7217 111.686 27.2936C111.791 27.3648 111.896 27.4363 112 27.5076C112.232 27.2777 112.546 27.1349 112.941 27.0795C113.484 27.3255 114.007 27.3255 114.51 27.0795C115.856 27.538 116.065 28.1089 115.137 28.792C114.641 28.1385 113.909 27.9957 112.941 28.3639C112.815 28.6576 112.658 28.943 112.471 29.2202C112.575 29.7911 112.68 30.3618 112.784 30.9327C111.449 31.439 111.554 31.653 113.098 31.5749C113.165 31.9268 113.06 32.2479 112.784 32.5382C113.082 32.6416 113.395 32.6771 113.725 32.6452C113.812 32.0142 113.708 31.4077 113.412 30.8257C113.516 30.7899 113.621 30.7544 113.725 30.7186C114.09 31.2161 114.456 31.7158 114.824 32.2171C114.98 31.8247 115.347 31.5749 115.922 31.4679C115.352 30.9368 115.144 30.3301 115.294 29.6483C114.925 29.6014 114.612 29.6727 114.353 29.8624C114.669 30.0542 114.669 30.1967 114.353 30.2905C113.882 30.1657 113.464 29.9874 113.098 29.7553C113.97 29.3867 114.911 29.1369 115.922 29.0061C116.008 29.6372 115.904 30.2436 115.608 30.8257C116.112 30.8216 116.635 30.7861 117.176 30.7186C117.24 30.0668 117.24 29.4601 117.176 28.8991C117.637 28.664 117.898 28.3429 117.961 27.9358C118.559 27.9189 119.187 27.9901 119.843 28.1498C119.896 28.0428 119.948 27.9358 120 27.8287C119.582 27.3293 119.163 26.8297 118.745 26.3303C118.819 26.1434 118.924 25.9648 119.059 25.7951C119.689 25.6741 120.212 25.4601 120.627 25.1529C120.392 24.6081 120.497 24.0729 120.941 23.5474C120.672 23.3999 120.463 23.2216 120.314 23.0122C121.15 22.7269 121.987 22.7269 122.824 23.0122C121.557 23.5386 121.661 23.7882 123.137 23.7615C123.033 23.6902 122.928 23.6187 122.824 23.5474C123.511 23.2565 124.034 22.8641 124.392 22.37C123.907 22.1662 123.384 22.0949 122.824 22.1559C122.677 21.7918 122.677 21.4707 122.824 21.1926C121.901 21.0031 121.587 21.1814 121.882 21.7278C121.778 21.9419 121.569 22.0847 121.255 22.1559C120.8 21.867 120.591 21.5103 120.627 21.0856C119.477 21.0856 118.327 21.0856 117.176 21.0856C117.259 21.402 117.154 21.6874 116.863 21.9419C116.607 21.4568 116.451 20.9573 116.392 20.4434C115.779 21.0723 115.831 21.6788 116.549 22.263C116.143 22.3679 115.725 22.4036 115.294 22.37C114.852 22.3578 114.904 22.8574 115.451 23.8685C115.998 23.6225 116.051 23.337 115.608 23.0122C115.841 22.8437 116.102 22.7012 116.392 22.5841C116.741 22.8433 117.107 22.8433 117.49 22.5841C117.83 22.7692 117.882 22.9833 117.647 23.2263C117.174 23.0047 116.704 23.0405 116.235 23.3333C116.4 23.4815 116.609 23.5885 116.863 23.6544C117.395 23.4016 117.918 23.4016 118.431 23.6544C118.046 23.8216 117.628 23.9286 117.176 23.9755C118.024 24.1787 118.285 24.5713 117.961 25.1529C117.262 24.8151 116.583 24.4585 115.922 24.0826C115.197 24.3825 114.413 24.5965 113.569 24.7248C113.128 24.7228 112.762 24.6158 112.471 24.4037C113.018 24.3028 113.541 24.16 114.039 23.9755C113.344 23.9391 112.717 23.7963 112.157 23.5474C111.268 23.4776 110.432 23.5846 109.647 23.8685C109.647 24.1538 109.647 24.4394 109.647 24.7248C109.124 24.7248 108.601 24.7248 108.078 24.7248C107.694 24.8059 107.59 25.3768 107.765 26.4373C106.809 26.2992 106.129 26.5133 105.725 27.0795C105.524 26.5953 105.263 26.1314 104.941 25.6881C104.209 25.5453 103.477 25.5453 102.745 25.6881C102.819 26.1778 102.819 26.713 102.745 27.2936C102.039 27.2253 101.412 27.3323 100.863 27.6147C101.567 28.2346 101.672 28.9126 101.176 29.6483C101.386 30.0764 101.595 30.5046 101.804 30.9327C101.647 31.004 101.49 31.0755 101.333 31.1468C100.192 30.7861 98.9895 30.6435 97.7255 30.7186C97.814 29.8435 97.6047 29.7365 97.098 30.3975C97.4265 30.7353 97.4265 31.0564 97.098 31.3608C96.8201 31.1842 96.7156 30.9702 96.7843 30.7186C96.1484 30.7533 95.5209 30.7176 94.902 30.6116C95.0064 30.5403 95.1112 30.4688 95.2157 30.3975C94.6993 30.0976 94.1763 30.0619 93.6471 30.2905C94.4417 30.6172 94.3373 30.8312 93.3333 30.9327C92.6071 30.8687 92.6071 30.6904 93.3333 30.3975C92.8097 30.3714 92.2871 30.4429 91.7647 30.6116C92.411 30.9312 92.5155 31.3236 92.0784 31.789C91.4993 31.284 91.0811 30.7133 90.8235 30.0764C92.9315 29.9078 94.9707 29.765 96.9412 29.6483C97.0927 29.4454 97.1448 29.2313 97.098 29.0061C95.1737 28.8586 93.3958 29.1084 91.7647 29.7553C90.5139 29.8279 90.0433 29.4355 90.3529 28.578C90.8417 28.18 91.4168 27.8589 92.0784 27.6147C92.7379 27.7472 93.4177 27.9257 94.1177 28.1498C94.4348 27.9707 94.8009 27.8994 95.2157 27.9358C95.2596 27.5881 95.0504 27.3385 94.5882 27.1865C94.9409 27.1332 95.2546 27.0262 95.5294 26.8654C95.6938 26.4474 96.0075 26.0905 96.4706 25.7951C96.1569 25.581 95.8431 25.367 95.5294 25.1529C95.3123 25.2653 95.1555 25.4081 95.0588 25.581C94.891 25.2019 94.6293 25.1306 94.2745 25.367C94.3401 25.4924 94.4449 25.5994 94.5882 25.6881C93.5674 26.0907 93.4626 26.5544 94.2745 27.0795C94.0085 27.4612 93.5903 27.5682 93.0196 27.4006C93.4058 27.1474 93.4058 26.8978 93.0196 26.6514C92.277 27.3636 91.3358 27.6489 90.1961 27.5076C90.7272 27.3518 91.1978 27.1377 91.6078 26.8654C91.8237 26.6873 91.7713 26.5448 91.451 26.4373C91.0369 26.8162 90.5663 26.8875 90.0392 26.6514C89.7318 27.0279 89.5225 27.3848 89.4118 27.7217C88.4464 27.3359 88.3944 26.9078 89.2549 26.4373C88.6466 26.0901 88.5421 25.6975 88.9412 25.2599C88.0794 25.0242 87.3471 24.8102 86.7451 24.6177C86.9926 24.2696 87.3064 23.9485 87.6863 23.6544C87.5818 23.5831 87.477 23.5116 87.3726 23.4404C86.5139 23.9537 85.782 24.5244 85.1765 25.1529C85.1655 25.6318 85.4268 25.703 85.9608 25.367C86.6356 25.4237 87.1586 25.6378 87.5294 26.0092C88.0339 25.8094 88.2952 25.952 88.3137 26.4373C87.9398 27.2758 87.5213 27.2758 87.0588 26.4373C86.6751 27.1859 86.6751 27.9351 87.0588 28.685C86.8458 29.6918 86.4273 29.7988 85.8039 29.0061C85.5649 29.2476 85.3556 29.4974 85.1765 29.7553C84.1528 29.769 83.2116 29.9476 82.3529 30.2905C82.0932 30.0946 81.7795 29.9521 81.4118 29.8624C80.9625 29.9122 80.8057 30.055 80.9412 30.2905C81.2759 30.4384 81.642 30.5455 82.0392 30.6116C81.5162 30.7544 80.9936 30.7544 80.4706 30.6116C80.2952 30.4564 80.1908 30.2781 80.1569 30.0764C81.0202 28.4966 82.6937 27.7831 85.1765 27.9358C85.1897 27.4329 84.8235 27.1476 84.0784 27.0795C83.5187 27.2527 82.9437 27.3955 82.3529 27.5076C80.6751 27.0926 79.9953 27.4494 80.3137 28.578C80.1679 28.2716 79.9062 28.022 79.5294 27.8287C79.7782 27.5965 79.9875 27.3467 80.1569 27.0795C79.5231 26.6302 79.4184 26.1305 79.8431 25.581C80.3928 26.0899 81.0202 26.1256 81.7255 25.6881C80.7928 25.426 80.5835 24.9979 81.098 24.4037C81.6584 24.2356 82.1289 23.986 82.5098 23.6544C82.9832 23.7807 83.4538 23.9233 83.9216 24.0826C83.2489 24.25 82.6215 24.4998 82.0392 24.8318C82.2877 25.3318 82.7059 25.4389 83.2941 25.1529C83.6857 25.2685 84.0518 25.4113 84.3922 25.581C84.6582 24.9645 85.1288 24.4293 85.8039 23.9755C85.2383 23.8392 84.8201 23.5896 84.549 23.2263C84.176 23.0274 83.7578 22.9561 83.2941 23.0122C83.2941 22.7981 83.2941 22.5841 83.2941 22.37C83.7123 22.37 84.1308 22.37 84.549 22.37C84.4944 21.8646 84.39 21.3651 84.2353 20.8715C82.1845 20.5666 82.1845 20.4595 84.2353 20.5504C84.4 20.6987 84.6093 20.8057 84.8628 20.8715C85.2838 20.5494 85.8064 20.4067 86.4314 20.4434C86.5926 20.0128 86.6447 19.5847 86.5882 19.159C86.2711 18.9799 85.9049 18.9085 85.4902 18.9449C85.5404 19.3087 85.4883 19.6655 85.3333 20.0153C85.2546 19.6015 85.0977 19.209 84.8628 18.8379C85.5376 18.7812 86.0606 18.5671 86.4314 18.1957C85.6119 17.7712 85.6643 17.3788 86.5882 17.0183C86.8584 17.7332 87.0152 18.4111 87.0588 19.052C87.5118 19.4875 88.1393 19.6659 88.9412 19.5871C88.9412 19.8726 88.9412 20.158 88.9412 20.4434C89.4507 20.4734 89.8165 20.3307 90.0392 20.0153C90.0857 20.6764 90.347 21.283 90.8235 21.8348C90.7191 21.9419 90.6143 22.0489 90.5098 22.1559C89.3387 21.5236 88.4496 21.6662 87.8431 22.5841C87.6882 22.2343 87.6361 21.8774 87.6863 21.5137C90.1635 21.3212 90.1635 21.1072 87.6863 20.8715C87.8406 20.0603 87.5793 19.9176 86.902 20.4434C86.6582 21.0705 86.7106 21.6771 87.0588 22.263C85.7048 22.9767 85.8096 23.2263 87.3726 23.0122C87.9304 23.5356 88.6623 23.8922 89.5686 24.0826C90.2962 23.9618 91.0284 23.8548 91.7647 23.7615C91.4027 23.5658 91.4551 23.3875 91.9216 23.2263C92.053 23.4772 92.262 23.6912 92.549 23.8685C92.8477 23.0946 92.4295 22.5952 91.2941 22.37C90.9688 21.6912 91.2301 21.156 92.0784 20.7645C91.7239 20.3877 91.4102 19.9953 91.1373 19.5871C90.928 19.6585 90.7191 19.7299 90.5098 19.8012C90.2111 19.4704 90.1067 19.1136 90.1961 18.7309C89.7779 18.7309 89.3594 18.7309 88.9412 18.7309C88.8367 18.0887 89.2549 17.8033 90.1961 17.8746C90.1961 17.5892 90.1961 17.3037 90.1961 17.0183C89.3556 17.0553 88.6234 17.2693 88 17.6605C87.7086 17.4061 87.6041 17.1206 87.6863 16.8043C87.0303 16.8431 86.4028 16.7718 85.8039 16.5902C85.4215 16.7536 85.1078 16.9677 84.8628 17.2324C84.1578 17.0453 83.4259 16.9739 82.6667 17.0183C82.693 18.0816 83.1115 18.153 83.9216 17.2324C84.2105 17.7153 84.7335 17.9294 85.4902 17.8746C85.4902 18.0887 85.4902 18.3027 85.4902 18.5168C82.8894 18.5957 80.2751 18.5957 77.6471 18.5168C77.5806 17.8421 77.5806 17.1285 77.6471 16.3761C75.9429 16.224 74.2695 16.1883 72.6275 16.2691C72.054 15.6392 71.2173 15.3895 70.1177 15.5199C70.1177 15.7339 70.1177 15.948 70.1177 16.1621C70.4477 16.1301 70.7614 16.1657 71.0588 16.2691C70.7962 16.4856 70.6918 16.7353 70.7451 17.0183C72.2093 17.0183 73.6731 17.0183 75.1373 17.0183C75.1373 17.5892 75.1373 18.16 75.1373 18.7309C74.4053 18.7309 73.6731 18.7309 72.9412 18.7309C72.9926 19.3061 72.9402 19.877 72.7843 20.4434C72.6435 19.7847 72.4866 19.2139 72.3137 18.7309C71.4642 18.6593 70.6275 18.7663 69.8039 19.052C70.0935 19.4888 70.198 19.9527 70.1177 20.4434C69.2809 20.4434 68.4446 20.4434 67.6078 20.4434C67.3318 19.3248 67.3318 18.1831 67.6078 17.0183C68.4446 17.0183 69.2809 17.0183 70.1177 17.0183C70.1635 16.4955 69.9021 16.3528 69.3333 16.5902C66.4788 15.8572 63.3936 15.5718 60.0784 15.7339C60.0784 16.8756 60.0784 18.0173 60.0784 19.159C59.0275 19.1943 57.9818 19.1586 56.9412 19.052C57.5338 18.2308 57.7428 17.3388 57.5686 16.3761C56.7319 16.3761 55.8955 16.3761 55.0588 16.3761C55.0588 17.1611 55.0588 17.9459 55.0588 18.7309C54.5258 18.6966 54.0028 18.7323 53.4902 18.8379C53.6995 18.9093 53.9084 18.9806 54.1177 19.052C52.586 19.3834 52.1675 20.0613 52.8628 21.0856C53.4582 21.3499 53.9812 21.2785 54.4314 20.8715C54.6871 21.2517 55.0532 21.3944 55.5294 21.2997C55.3562 22.2026 55.4086 23.0946 55.6863 23.9755C55.1555 24.2754 54.9462 24.6678 55.0588 25.1529C56.9992 25.1781 58.8816 24.9641 60.7059 24.5107C61.3854 24.4957 61.4899 24.6383 61.0196 24.9388C61.4033 25.1773 61.8215 25.213 62.2745 25.0459C61.8946 24.8547 61.8946 24.6764 62.2745 24.5107C62.5101 24.6982 62.667 24.9123 62.7451 25.1529C62.8417 24.9799 62.9986 24.8371 63.2157 24.7248C63.4607 24.9878 63.6176 25.2732 63.6863 25.581C63.9824 25.4177 64.1393 25.2036 64.1569 24.9388C63.6624 23.5947 63.9762 23.5234 65.098 24.7248C65.8962 24.4604 65.8962 24.2108 65.098 23.9755C65.4118 23.9398 65.7255 23.9042 66.0392 23.8685C67.3384 24.3416 68.698 24.6982 70.1177 24.9388C70.1177 24.582 70.1177 24.2253 70.1177 23.8685C70.9544 23.8685 71.7908 23.8685 72.6275 23.8685C72.406 22.9544 72.9289 22.3837 74.1961 22.1559C75.3042 22.47 76.4543 22.6128 77.6471 22.5841C77.6471 22.8694 77.6471 23.155 77.6471 23.4404C80.7636 23.7983 80.8684 24.2979 77.9608 24.9388C77.6577 24.5329 77.5533 24.1048 77.6471 23.6544C76.0671 23.6733 74.4985 23.7803 72.9412 23.9755C72.6479 24.4852 72.5434 25.0204 72.6275 25.581C71.9166 25.6579 71.3415 25.5151 70.902 25.1529C69.9043 25.6801 69.643 26.3938 70.1177 27.2936C69.5846 27.3278 69.0617 27.2923 68.549 27.1865C68.517 26.688 68.6215 26.1528 68.8628 25.581C70.0301 25.5183 69.978 25.3757 68.7059 25.1529C68.5864 25.3631 68.325 25.5057 67.9216 25.581C67.2822 25.3383 66.6548 25.3383 66.0392 25.581C65.9862 25.389 65.8817 25.1749 65.7255 24.9388C65.4353 25.1831 65.1737 25.1831 64.9412 24.9388C64.6726 25.4457 64.411 25.9454 64.1569 26.4373C64.7843 26.4373 65.4118 26.4373 66.0392 26.4373C66.1588 26.96 65.9495 27.1028 65.4118 26.8654C65.098 26.9725 64.7843 27.0795 64.4706 27.1865C64.8505 27.3777 64.8505 27.556 64.4706 27.7217C64.2613 27.5789 64.0524 27.4363 63.8431 27.2936C63.7387 27.4006 63.6339 27.5076 63.5294 27.6147C63.7387 27.9715 63.9476 28.3281 64.1569 28.685C64.0524 28.792 63.9476 28.8991 63.8431 29.0061C62.7479 28.1982 62.6431 27.3419 63.5294 26.4373C62.5581 26.3476 61.7214 26.0622 61.0196 25.581C59.637 25.715 59.4281 26.1074 60.3922 26.7584C59.9024 26.8265 59.5363 27.0048 59.2941 27.2936C58.7658 26.8224 58.1384 26.6798 57.4118 26.8654C57.1768 26.6225 57.2289 26.4084 57.5686 26.2232C57.9868 26.366 58.4053 26.5086 58.8235 26.6514C58.8935 26.3373 58.998 26.0162 59.1373 25.6881C58.7696 25.6125 58.4038 25.648 58.0392 25.7951C57.328 25.4188 56.5437 25.3117 55.6863 25.474C56.0615 25.614 56.0615 25.721 55.6863 25.7951C55.1451 25.6848 54.6221 25.5421 54.1177 25.367C54.1832 25.2415 54.288 25.1345 54.4314 25.0459C53.9711 24.8108 53.7095 24.4897 53.6471 24.0826C52.5079 23.6865 51.3054 23.5795 50.0392 23.7615C50.0392 24.0468 50.0392 24.3324 50.0392 24.6177C48.5553 24.6216 47.1435 24.3718 45.8039 23.8685C45.1238 24.083 44.4439 24.297 43.7647 24.5107C43.5112 24.4448 43.302 24.3377 43.1373 24.1896C43.3224 23.8666 43.5313 23.5455 43.7647 23.2263C44.1992 24.0564 44.565 24.0564 44.8628 23.2263C45.413 23.6009 46.0929 23.7437 46.902 23.6544C46.7815 23.1344 46.5722 22.6348 46.2745 22.1559C46.5882 22.1559 46.902 22.1559 47.2157 22.1559C47.2157 21.585 47.2157 21.0143 47.2157 20.4434C46.4838 20.4434 45.7515 20.4434 45.0196 20.4434C44.8615 19.6224 44.5478 19.6224 44.0784 20.4434C43.974 20.3364 43.8692 20.2293 43.7647 20.1223C43.9947 19.7443 44.0995 19.3518 44.0784 18.9449C43.2502 18.9563 42.4659 19.0991 41.7255 19.3731C40.7928 19.2721 40.8449 19.0937 41.8824 18.8379C41.1577 18.7316 40.4257 18.6959 39.6863 18.7309C39.6022 19.2916 39.7067 19.8268 40 20.3364C39.4871 20.4519 39.0689 20.3449 38.7451 20.0153C38.5359 20.158 38.3269 20.3007 38.1177 20.4434C37.8962 19.9584 37.9486 19.4589 38.2745 18.9449C38.3711 19.1179 38.528 19.2606 38.7451 19.3731C39.0202 18.4496 39.6477 17.6648 40.6275 17.0183C40.9707 17.3112 40.8659 17.5609 40.3137 17.7676C40.523 17.8033 40.7319 17.8389 40.9412 17.8746C41.4447 17.6755 41.9153 17.6755 42.3529 17.8746C42.5757 17.5592 42.9415 17.4165 43.451 17.4465C43.3572 17.8969 43.4617 18.325 43.7647 18.7309C44.202 18.1991 44.6726 18.1991 45.1765 18.7309C45.4745 18.6191 45.7362 18.4763 45.9608 18.3027C47.0118 18.6825 47.5344 18.4684 47.5294 17.6605C47.2157 17.6605 46.902 17.6605 46.5882 17.6605C46.5882 17.4465 46.5882 17.2324 46.5882 17.0183C45.2496 16.9548 43.9423 17.0261 42.6667 17.2324C42.57 17.0594 42.4132 16.9167 42.1961 16.8043C40.3282 16.2222 38.341 16.1152 36.2353 16.4832C36.528 16.8273 36.3191 17.0057 35.6079 17.0183C35.0949 16.9014 34.5722 16.83 34.0392 16.8043C34.1067 16.4449 33.8974 16.2308 33.4118 16.1621C33.8783 15.883 34.4013 15.6333 34.9804 15.4128C47.5291 15.3058 60.0781 15.2701 72.6275 15.3058Z" fill="#DAA622"/>
<path fill-rule="evenodd" clip-rule="evenodd" d="M72.6274 15.3058C81.7763 15.0921 90.9788 15.0208 100.235 15.0917C118.118 15.056 136 15.0917 153.882 15.1987C155.578 15.5444 156.676 16.2936 157.176 17.4465C157.333 28.7205 157.386 39.9946 157.333 51.2691C158.089 53.3171 157.148 54.8511 154.51 55.8715C149.805 55.9786 145.099 56.0143 140.392 55.9786C105.255 55.9786 70.1176 55.9786 34.9804 55.9786C33.5984 55.5693 32.7093 54.8558 32.3137 53.8379C32.1569 43.6342 32.1045 33.4304 32.1569 23.2263C32.1048 21.2983 32.1569 19.3717 32.3137 17.4465C32.4907 16.9355 32.8565 16.5074 33.4118 16.162C33.8974 16.2308 34.1067 16.4449 34.0392 16.8043C34.5722 16.83 35.0949 16.9014 35.6078 17.0183C36.3191 17.0057 36.528 16.8273 36.2353 16.4831C38.341 16.1152 40.3282 16.2222 42.1961 16.8043C42.4132 16.9167 42.57 17.0594 42.6667 17.2324C43.9423 17.0261 45.2496 16.9547 46.5882 17.0183C46.5882 17.2324 46.5882 17.4465 46.5882 17.6605C46.902 17.6605 47.2157 17.6605 47.5294 17.6605C47.5344 18.4684 47.0118 18.6825 45.9608 18.3027C45.7362 18.4763 45.4745 18.619 45.1765 18.7309C44.6726 18.1991 44.202 18.1991 43.7647 18.7309C43.4616 18.325 43.3572 17.8969 43.451 17.4465C42.9415 17.4165 42.5757 17.5592 42.3529 17.8746C41.9153 17.6754 41.4447 17.6754 40.9412 17.8746C40.7319 17.8389 40.523 17.8032 40.3137 17.7676C40.8659 17.5609 40.9707 17.3112 40.6274 17.0183C39.6477 17.6647 39.0202 18.4496 38.7451 19.3731C38.528 19.2606 38.3711 19.1179 38.2745 18.9449C37.9485 19.4589 37.8962 19.9584 38.1176 20.4434C38.3269 20.3007 38.5358 20.158 38.7451 20.0153C39.0689 20.3448 39.4871 20.4519 40 20.3364C39.7067 19.8268 39.6022 19.2916 39.6863 18.7309C40.4257 18.6959 41.1576 18.7316 41.8823 18.8379C40.8449 19.0937 40.7928 19.272 41.7255 19.3731C42.4659 19.0991 43.2502 18.9563 44.0784 18.9449C44.0994 19.3518 43.9947 19.7443 43.7647 20.1223C43.8692 20.2293 43.974 20.3364 44.0784 20.4434C44.5478 19.6224 44.8615 19.6224 45.0196 20.4434C45.7515 20.4434 46.4838 20.4434 47.2157 20.4434C47.2157 21.0142 47.2157 21.585 47.2157 22.1559C46.902 22.1559 46.5882 22.1559 46.2745 22.1559C46.5722 22.6348 46.7815 23.1344 46.902 23.6544C46.0929 23.7437 45.413 23.6009 44.8627 23.2263C44.565 24.0564 44.1992 24.0564 43.7647 23.2263C43.5313 23.5454 43.3223 23.8665 43.1373 24.1896C43.302 24.3377 43.5112 24.4447 43.7647 24.5107C44.4439 24.297 45.1238 24.083 45.8039 23.8685C47.1435 24.3717 48.5553 24.6216 50.0392 24.6177C50.0392 24.3324 50.0392 24.0468 50.0392 23.7614C51.3054 23.5795 52.5079 23.6865 53.6471 24.0825C53.7095 24.4897 53.9711 24.8108 54.4314 25.0458C54.288 25.1345 54.1832 25.2415 54.1176 25.3669C54.6221 25.542 55.1451 25.6848 55.6863 25.7951C56.0615 25.721 56.0615 25.614 55.6863 25.474C56.5437 25.3117 57.328 25.4187 58.0392 25.7951C58.4038 25.648 58.7696 25.6125 59.1373 25.688C58.998 26.0162 58.8935 26.3373 58.8235 26.6513C58.4053 26.5086 57.9868 26.366 57.5686 26.2232C57.2289 26.4084 57.1768 26.6224 57.4118 26.8654C58.1383 26.6798 58.7658 26.8224 59.2941 27.2935C59.5363 27.0048 59.9024 26.8265 60.3922 26.7584C59.4281 26.1074 59.637 25.715 61.0196 25.581C61.7214 26.0622 62.5581 26.3476 63.5294 26.4373C62.6431 27.3419 62.7479 28.1982 63.8431 29.0061C63.9476 28.8991 64.0524 28.792 64.1569 28.685C63.9476 28.3281 63.7387 27.9715 63.5294 27.6146C63.6339 27.5076 63.7387 27.4006 63.8431 27.2935C64.0524 27.4363 64.2613 27.5789 64.4706 27.7217C64.8505 27.556 64.8505 27.3777 64.4706 27.1865C64.7843 27.0795 65.098 26.9724 65.4118 26.8654C65.9495 27.1028 66.1587 26.96 66.0392 26.4373C65.4118 26.4373 64.7843 26.4373 64.1569 26.4373C64.411 25.9454 64.6726 25.4457 64.9412 24.9388C65.1736 25.1831 65.4353 25.1831 65.7255 24.9388C65.8817 25.1749 65.9862 25.389 66.0392 25.581C66.6547 25.3383 67.2822 25.3383 67.9216 25.581C68.325 25.5057 68.5863 25.3631 68.7059 25.1529C69.978 25.3757 70.0301 25.5183 68.8627 25.581C68.6215 26.1528 68.517 26.688 68.549 27.1865C69.0616 27.2923 69.5846 27.3278 70.1176 27.2935C69.643 26.3938 69.9043 25.6801 70.902 25.1529C71.3415 25.5151 71.9165 25.6579 72.6274 25.581C72.5434 25.0204 72.6478 24.4852 72.9412 23.9755C74.4985 23.7803 76.0671 23.6732 77.6471 23.6544C77.5533 24.1048 77.6577 24.5329 77.9608 24.9388C80.8684 24.2979 80.7636 23.7983 77.6471 23.4403C77.6471 23.155 77.6471 22.8694 77.6471 22.5841C76.4543 22.6128 75.3042 22.47 74.1961 22.1559C72.9289 22.3837 72.406 22.9544 72.6274 23.8685C71.7907 23.8685 70.9543 23.8685 70.1176 23.8685C70.1176 24.2253 70.1176 24.582 70.1176 24.9388C68.698 24.6982 67.3383 24.3416 66.0392 23.8685C65.7255 23.9042 65.4118 23.9398 65.098 23.9755C65.8962 24.2108 65.8962 24.4604 65.098 24.7247C63.9762 23.5234 63.6624 23.5947 64.1569 24.9388C64.1393 25.2036 63.9824 25.4177 63.6863 25.581C63.6176 25.2732 63.4607 24.9878 63.2157 24.7247C62.9986 24.8371 62.8417 24.9799 62.7451 25.1529C62.667 24.9123 62.5101 24.6982 62.2745 24.5107C61.8946 24.6764 61.8946 24.8547 62.2745 25.0458C61.8215 25.213 61.4033 25.1773 61.0196 24.9388C61.4899 24.6383 61.3854 24.4957 60.7059 24.5107C58.8816 24.9641 56.9992 25.1781 55.0588 25.1529C54.9462 24.6678 55.1554 24.2754 55.6863 23.9755C55.4086 23.0946 55.3562 22.2026 55.5294 21.2997C55.0532 21.3944 54.6871 21.2517 54.4314 20.8715C53.9812 21.2785 53.4582 21.3499 52.8627 21.0856C52.1675 20.0613 52.586 19.3834 54.1176 19.052C53.9084 18.9806 53.6994 18.9092 53.4902 18.8379C54.0028 18.7322 54.5258 18.6966 55.0588 18.7309C55.0588 17.9459 55.0588 17.161 55.0588 16.3761C55.8955 16.3761 56.7319 16.3761 57.5686 16.3761C57.7427 17.3388 57.5338 18.2308 56.9412 19.052C57.9818 19.1586 59.0274 19.1943 60.0784 19.159C60.0784 18.0173 60.0784 16.8756 60.0784 15.7339C63.3936 15.5717 66.4787 15.8572 69.3333 16.5902C69.9021 16.3528 70.1634 16.4955 70.1176 17.0183C69.2809 17.0183 68.4445 17.0183 67.6078 17.0183C67.3318 18.183 67.3318 19.3247 67.6078 20.4434C68.4445 20.4434 69.2809 20.4434 70.1176 20.4434C70.198 19.9526 70.0935 19.4888 69.8039 19.052C70.6274 18.7663 71.4642 18.6593 72.3137 18.7309C72.4866 19.2139 72.6434 19.7847 72.7843 20.4434C72.9402 19.877 72.9926 19.3061 72.9412 18.7309C73.6731 18.7309 74.4053 18.7309 75.1373 18.7309C75.1373 18.16 75.1373 17.5892 75.1373 17.0183C73.6731 17.0183 72.2093 17.0183 70.7451 17.0183C70.6918 16.7353 70.7962 16.4856 71.0588 16.2691C70.7614 16.1657 70.4477 16.13 70.1176 16.162C70.1176 15.948 70.1176 15.7339 70.1176 15.5198C71.2173 15.3895 72.054 15.6392 72.6274 16.2691C74.2695 16.1883 75.9429 16.224 77.6471 16.3761C77.5805 17.1285 77.5805 17.842 77.6471 18.5168C80.2751 18.5957 82.8894 18.5957 85.4902 18.5168C85.4902 18.3027 85.4902 18.0887 85.4902 17.8746C84.7335 17.9294 84.2105 17.7153 83.9216 17.2324C83.1115 18.1529 82.693 18.0816 82.6667 17.0183C83.4259 16.9739 84.1578 17.0452 84.8627 17.2324C85.1078 16.9677 85.4215 16.7536 85.8039 16.5902C86.4028 16.7718 87.0303 16.8431 87.6863 16.8043C87.6041 17.1206 87.7085 17.406 88 17.6605C88.6234 17.2693 89.3556 17.0553 90.1961 17.0183C90.1961 17.3037 90.1961 17.5892 90.1961 17.8746C89.2549 17.8032 88.8367 18.0887 88.9412 18.7309C89.3594 18.7309 89.7779 18.7309 90.1961 18.7309C90.1067 19.1136 90.2111 19.4704 90.5098 19.8012C90.7191 19.7298 90.928 19.6585 91.1373 19.5871C91.4102 19.9953 91.7239 20.3877 92.0784 20.7645C91.2301 21.1559 90.9688 21.6912 91.2941 22.37C92.4295 22.5952 92.8477 23.0946 92.549 23.8685C92.262 23.6912 92.053 23.4772 91.9216 23.2263C91.4551 23.3875 91.4027 23.5658 91.7647 23.7614C91.0284 23.8548 90.2962 23.9618 89.5686 24.0825C88.6623 23.8922 87.9304 23.5356 87.3725 23.0122C85.8096 23.2263 85.7048 22.9767 87.0588 22.263C86.7106 21.6771 86.6582 21.0705 86.902 20.4434C87.5793 19.9176 87.8406 20.0603 87.6863 20.8715C90.1634 21.1072 90.1634 21.3212 87.6863 21.5137C87.6361 21.8774 87.6882 22.2343 87.8431 22.5841C88.4496 21.6661 89.3387 21.5236 90.5098 22.1559C90.6143 22.0489 90.7191 21.9419 90.8235 21.8348C90.347 21.2829 90.0856 20.6764 90.0392 20.0153C89.8165 20.3306 89.4507 20.4733 88.9412 20.4434C88.9412 20.158 88.9412 19.8725 88.9412 19.5871C88.1393 19.6659 87.5118 19.4875 87.0588 19.052C87.0152 18.4111 86.8583 17.7332 86.5882 17.0183C85.6643 17.3788 85.6119 17.7712 86.4314 18.1957C86.0605 18.5671 85.5376 18.7812 84.8627 18.8379C85.0977 19.209 85.2546 19.6015 85.3333 20.0153C85.4883 19.6655 85.5404 19.3087 85.4902 18.9449C85.9049 18.9085 86.2711 18.9799 86.5882 19.159C86.6447 19.5846 86.5926 20.0128 86.4314 20.4434C85.8064 20.4067 85.2838 20.5494 84.8627 20.8715C84.6093 20.8057 84.4 20.6986 84.2353 20.5504C82.1845 20.4595 82.1845 20.5666 84.2353 20.8715C84.39 21.3651 84.4944 21.8646 84.549 22.37C84.1308 22.37 83.7123 22.37 83.2941 22.37C83.2941 22.5841 83.2941 22.7981 83.2941 23.0122C83.7578 22.9561 84.176 23.0274 84.549 23.2263C84.8201 23.5895 85.2383 23.8391 85.8039 23.9755C85.1288 24.4293 84.6582 24.9645 84.3922 25.581C84.0518 25.4113 83.6856 25.2685 83.2941 25.1529C82.7059 25.4389 82.2877 25.3318 82.0392 24.8318C82.6215 24.4998 83.2489 24.2499 83.9216 24.0825C83.4538 23.9233 82.9832 23.7807 82.5098 23.6544C82.1289 23.986 81.6583 24.2356 81.098 24.4036C80.5835 24.9979 80.7928 25.426 81.7255 25.688C81.0202 26.1256 80.3928 26.0898 79.8431 25.581C79.4184 26.1305 79.5231 26.6302 80.1569 27.0795C79.9874 27.3466 79.7782 27.5965 79.5294 27.8287C79.9062 28.022 80.1678 28.2716 80.3137 28.578C79.9953 27.4494 80.6751 27.0925 82.3529 27.5076C82.9437 27.3954 83.5187 27.2527 84.0784 27.0795C84.8235 27.1476 85.1896 27.4329 85.1765 27.9357C82.6936 27.7831 81.0202 28.4966 80.1569 30.0764C80.1907 30.2781 80.2952 30.4564 80.4706 30.6116C80.9936 30.7544 81.5162 30.7544 82.0392 30.6116C81.642 30.5454 81.2759 30.4384 80.9412 30.2905C80.8056 30.055 80.9625 29.9122 81.4118 29.8624C81.7794 29.952 82.0932 30.0946 82.3529 30.2905C83.2116 29.9476 84.1528 29.769 85.1765 29.7553C85.3556 29.4974 85.5649 29.2476 85.8039 29.0061C86.4273 29.7988 86.8458 29.6917 87.0588 28.685C86.6751 27.9351 86.6751 27.1859 87.0588 26.4373C87.5213 27.2758 87.9398 27.2758 88.3137 26.4373C88.2952 25.952 88.0339 25.8094 87.5294 26.0091C87.1586 25.6377 86.6356 25.4237 85.9608 25.3669C85.4268 25.703 85.1655 25.6317 85.1765 25.1529C85.782 24.5244 86.5139 23.9537 87.3725 23.4403C87.477 23.5116 87.5818 23.5831 87.6863 23.6544C87.3064 23.9485 86.9926 24.2696 86.7451 24.6177C87.3471 24.8102 88.0794 25.0242 88.9412 25.2599C88.5421 25.6975 88.6466 26.0901 89.2549 26.4373C88.3944 26.9078 88.4464 27.3359 89.4118 27.7217C89.5225 27.3847 89.7318 27.0279 90.0392 26.6513C90.5663 26.8875 91.0369 26.8162 91.451 26.4373C91.7713 26.5447 91.8237 26.6873 91.6078 26.8654C91.1978 27.1377 90.7272 27.3518 90.1961 27.5076C91.3358 27.6489 92.277 27.3635 93.0196 26.6513C93.4058 26.8977 93.4058 27.1473 93.0196 27.4006C93.5903 27.5682 94.0085 27.4612 94.2745 27.0795C93.4626 26.5544 93.5674 26.0907 94.5882 25.688C94.4449 25.5994 94.3401 25.4924 94.2745 25.3669C94.6293 25.1306 94.891 25.2019 95.0588 25.581C95.1554 25.408 95.3123 25.2653 95.5294 25.1529C95.8431 25.3669 96.1569 25.581 96.4706 25.7951C96.0075 26.0905 95.6938 26.4473 95.5294 26.8654C95.2546 27.0262 94.9409 27.1332 94.5882 27.1865C95.0504 27.3385 95.2596 27.5881 95.2157 27.9357C94.8009 27.8994 94.4348 27.9706 94.1176 28.1498C93.4177 27.9257 92.7379 27.7472 92.0784 27.6146C91.4168 27.8589 90.8417 28.18 90.3529 28.578C90.0433 29.4355 90.5139 29.8279 91.7647 29.7553C93.3958 29.1084 95.1736 28.8586 97.098 29.0061C97.1448 29.2313 97.0927 29.4454 96.9412 29.6483C94.9707 29.765 92.9314 29.9077 90.8235 30.0764C91.0811 30.7133 91.4993 31.284 92.0784 31.789C92.5154 31.3236 92.411 30.9312 91.7647 30.6116C92.2871 30.4429 92.8097 30.3714 93.3333 30.3975C92.6071 30.6904 92.6071 30.8687 93.3333 30.9327C94.3373 30.8312 94.4417 30.6172 93.6471 30.2905C94.1763 30.0619 94.6993 30.0976 95.2157 30.3975C95.1112 30.4688 95.0064 30.5403 94.902 30.6116C95.5209 30.7176 96.1484 30.7533 96.7843 30.7186C96.7156 30.9702 96.8201 31.1842 97.098 31.3608C97.4265 31.0564 97.4265 30.7353 97.098 30.3975C97.6047 29.7365 97.814 29.8435 97.7255 30.7186C98.9895 30.6435 100.192 30.7861 101.333 31.1468C101.49 31.0755 101.647 31.004 101.804 30.9327C101.595 30.5046 101.386 30.0764 101.176 29.6483C101.672 28.9125 101.567 28.2346 100.863 27.6146C101.412 27.3323 102.039 27.2253 102.745 27.2935C102.819 26.713 102.819 26.1778 102.745 25.688C103.477 25.5453 104.209 25.5453 104.941 25.688C105.263 26.1314 105.524 26.5953 105.725 27.0795C106.129 26.5133 106.809 26.2992 107.765 26.4373C107.59 25.3768 107.694 24.8059 108.078 24.7247C108.601 24.7247 109.124 24.7247 109.647 24.7247C109.647 24.4394 109.647 24.1538 109.647 23.8685C110.432 23.5846 111.268 23.4776 112.157 23.5474C112.717 23.7963 113.344 23.9391 114.039 23.9755C113.541 24.16 113.018 24.3028 112.471 24.4036C112.762 24.6158 113.128 24.7228 113.569 24.7247C114.413 24.5965 115.197 24.3824 115.922 24.0825C116.583 24.4584 117.262 24.8151 117.961 25.1529C118.285 24.5713 118.024 24.1787 117.176 23.9755C117.628 23.9286 118.046 23.8216 118.431 23.6544C117.918 23.4016 117.395 23.4016 116.863 23.6544C116.609 23.5885 116.4 23.4814 116.235 23.3333C116.704 23.0405 117.174 23.0047 117.647 23.2263C117.882 22.9833 117.83 22.7692 117.49 22.5841C117.107 22.8433 116.741 22.8433 116.392 22.5841C116.102 22.7012 115.841 22.8437 115.608 23.0122C116.051 23.3369 115.998 23.6225 115.451 23.8685C114.904 22.8574 114.852 22.3578 115.294 22.37C115.725 22.4036 116.143 22.3679 116.549 22.263C115.831 21.6788 115.779 21.0722 116.392 20.4434C116.451 20.9573 116.607 21.4568 116.863 21.9419C117.154 21.6873 117.259 21.4019 117.176 21.0856C118.327 21.0856 119.477 21.0856 120.627 21.0856C120.591 21.5103 120.8 21.8669 121.255 22.1559C121.569 22.0846 121.778 21.9419 121.882 21.7278C121.587 21.1814 121.901 21.0031 122.824 21.1926C122.677 21.4707 122.677 21.7918 122.824 22.1559C123.384 22.0949 123.907 22.1662 124.392 22.37C124.034 22.8641 123.511 23.2565 122.824 23.5474C122.928 23.6187 123.033 23.6902 123.137 23.7614C121.661 23.7882 121.557 23.5386 122.824 23.0122C121.987 22.7268 121.15 22.7268 120.314 23.0122C120.463 23.2216 120.672 23.3999 120.941 23.5474C120.497 24.0729 120.392 24.6081 120.627 25.1529C120.212 25.4601 119.689 25.6741 119.059 25.7951C118.924 25.9648 118.819 26.1434 118.745 26.3302C119.163 26.8297 119.582 27.3293 120 27.8287C119.948 27.9357 119.896 28.0428 119.843 28.1498C119.187 27.9901 118.559 27.9188 117.961 27.9357C117.898 28.3429 117.637 28.664 117.176 28.8991C117.24 29.4601 117.24 30.0668 117.176 30.7186C116.635 30.7861 116.112 30.8216 115.608 30.8257C115.904 30.2436 116.008 29.6372 115.922 29.0061C114.911 29.1369 113.97 29.3867 113.098 29.7553C113.464 29.9874 113.882 30.1657 114.353 30.2905C114.669 30.1967 114.669 30.0542 114.353 29.8624C114.612 29.6727 114.925 29.6014 115.294 29.6483C115.144 30.3301 115.352 30.9368 115.922 31.4679C115.347 31.5749 114.98 31.8247 114.824 32.2171C114.456 31.7157 114.09 31.2161 113.725 30.7186C113.621 30.7544 113.516 30.7899 113.412 30.8257C113.708 31.4077 113.812 32.0142 113.725 32.6452C113.395 32.6771 113.082 32.6416 112.784 32.5382C113.06 32.2479 113.165 31.9268 113.098 31.5749C111.554 31.653 111.449 31.439 112.784 30.9327C112.68 30.3618 112.575 29.7911 112.471 29.2202C112.658 28.9429 112.815 28.6576 112.941 28.3639C113.909 27.9957 114.641 28.1385 115.137 28.792C116.065 28.1089 115.856 27.538 114.51 27.0795C114.007 27.3254 113.484 27.3254 112.941 27.0795C112.546 27.1349 112.232 27.2777 112 27.5076C111.896 27.4363 111.791 27.3648 111.686 27.2935C111.582 27.7217 111.477 28.1498 111.373 28.578C111.059 28.8633 110.745 28.8633 110.431 28.578C110.52 29.2007 110.468 29.8071 110.275 30.3975C109.03 30.5748 107.775 30.6818 106.51 30.7186C106.51 31.004 106.51 31.2895 106.51 31.5749C104.995 31.57 103.792 31.9981 102.902 32.8593C102.769 32.5476 102.508 32.4406 102.118 32.5382C102.327 32.7523 102.536 32.9663 102.745 33.1804C102.013 33.3232 101.281 33.3232 100.549 33.1804C100.353 33.0198 100.196 32.8413 100.078 32.6452C99.6395 32.8009 99.1689 32.9079 98.6667 32.9663C99.5034 33.2517 99.5034 33.5372 98.6667 33.8226C99.8704 34.2332 101.125 34.3402 102.431 34.1437C102.811 34.3094 102.811 34.4877 102.431 34.6789C102.899 35.2128 103.37 35.7479 103.843 36.2844C104.93 36.1844 105.453 35.7563 105.412 35C105.474 35.4071 105.736 35.7282 106.196 35.9633C105.489 36.3298 104.966 36.7936 104.627 37.3547C105.421 37.6364 105.421 37.8862 104.627 38.1039C105.363 38.4777 105.99 38.442 106.51 37.9969C106.813 38.4028 106.917 38.8309 106.824 39.2813C106.188 39.316 105.56 39.2802 104.941 39.1743C103.742 38.1403 103.324 38.2474 103.686 39.4954C105.012 39.5213 106.372 39.5928 107.765 39.7094C106.955 39.934 106.119 40.0768 105.255 40.1376C105.311 40.719 105.468 41.2899 105.725 41.8501C106.006 42.1094 106.267 42.1094 106.51 41.8501C106.301 41.6361 106.092 41.422 105.882 41.2079C106.262 40.9468 106.262 40.6969 105.882 40.4587C106.607 40.3523 107.339 40.3168 108.078 40.3517C107.993 39.934 108.202 39.6129 108.706 39.3883C108.3 39.2835 107.882 39.2477 107.451 39.2813C107.448 38.8943 107.605 38.5374 107.922 38.211C108.189 38.8772 108.554 38.9487 109.02 38.425C108.242 38.2292 108.032 37.9081 108.392 37.4617C109.75 37.4433 111.11 37.5148 112.471 37.6758C112.052 38.1752 111.634 38.6749 111.216 39.1743C112.565 39.7045 113.82 40.311 114.98 40.9939C115.085 40.8868 115.19 40.7798 115.294 40.6728C115.014 40.3739 114.804 40.0528 114.667 39.7094C115.531 39.1617 115.479 38.6622 114.51 38.211C113.526 38.9531 112.951 38.7391 112.784 37.5688C113.842 37.3656 114.888 37.3656 115.922 37.5688C116.34 36.7125 116.758 36.7125 117.176 37.5688C117.281 37.426 117.386 37.2834 117.49 37.1406C117.129 36.75 116.92 36.3218 116.863 35.8562C116.34 35.8562 115.817 35.8562 115.294 35.8562C115.256 35.2772 115.57 35.1344 116.235 35.4281C116.593 35.0169 116.646 34.5887 116.392 34.1437C115.758 34.7401 115.288 34.6688 114.98 33.9296C114.371 34.0771 113.743 34.1842 113.098 34.2507C115.554 34.7013 115.45 34.8441 112.784 34.6789C112.486 34.5252 112.434 34.3468 112.627 34.1437C113.39 33.8035 114.227 33.5895 115.137 33.5015C116.305 33.7102 117.403 33.7102 118.431 33.5015C117.698 32.7662 116.653 32.4808 115.294 32.6452C115.371 31.9613 115.841 31.7472 116.706 32.003C117.348 31.7656 118.028 31.6228 118.745 31.5749C118.799 30.6178 119.061 30.5465 119.529 31.3608C119.739 31.0755 119.948 31.0755 120.157 31.3608C120.261 31.1468 120.366 30.9327 120.471 30.7186C120.67 31.172 120.931 31.6002 121.255 32.003C121.15 32.1458 121.046 32.2884 120.941 32.4312C120.602 31.9422 120.079 31.6926 119.373 31.6819C119.731 31.8405 119.731 32.0191 119.373 32.2171C119.686 32.3599 120 32.5024 120.314 32.6452C120.149 32.7934 119.94 32.9004 119.686 32.9663C120.263 33.2087 120.891 33.387 121.569 33.5015C122.19 33.1868 122.713 33.2583 123.137 33.7156C124.013 33.3232 123.908 33.1091 122.824 33.0734C122.824 32.8593 122.824 32.6452 122.824 32.4312C123.137 32.4312 123.451 32.4312 123.765 32.4312C123.495 31.9354 123.338 31.436 123.294 30.9327C123.774 31.1958 124.14 31.5169 124.392 31.896C124.69 31.9994 125.003 32.0349 125.333 32.003C125.752 31.5036 125.752 31.004 125.333 30.5046C124.574 30.46 123.842 30.5315 123.137 30.7186C122.719 30.4333 122.719 30.1477 123.137 29.8624C124.27 30.1102 125.42 30.2173 126.588 30.1835C126.693 30.1122 126.797 30.0407 126.902 29.9694C126.351 29.9261 125.828 29.8191 125.333 29.6483C125.788 29.4655 126.206 29.2514 126.588 29.0061C126.866 29.1827 126.971 29.3968 126.902 29.6483C127.216 29.6483 127.529 29.6483 127.843 29.6483C127.843 30.0051 127.843 30.3618 127.843 30.7186C128.261 30.7186 128.68 30.7186 129.098 30.7186C129.168 30.3243 129.273 29.9319 129.412 29.5413C128.987 28.9235 128.673 28.2813 128.471 27.6146C128.634 27.4113 128.844 27.2328 129.098 27.0795C128.874 26.5923 128.717 26.0928 128.627 25.581C128.523 25.7238 128.418 25.8664 128.314 26.0091C127.881 25.3353 127.096 25.0142 125.961 25.0458C125.764 24.8853 125.608 24.7068 125.49 24.5107C124.926 24.8316 124.351 25.1527 123.765 25.474C124.49 25.4408 125.222 25.4408 125.961 25.474C126.711 25.6219 126.711 25.836 125.961 26.1162C124.939 26.0149 123.893 25.9079 122.824 25.7951C122.824 26.0804 122.824 26.366 122.824 26.6513C122.405 26.6513 121.987 26.6513 121.569 26.6513C121.618 26.3574 121.565 26.0719 121.412 25.7951C121.348 26.171 121.192 26.5276 120.941 26.8654C120.837 26.6513 120.732 26.4373 120.627 26.2232C120.99 25.4476 121.304 24.6629 121.569 23.8685C121.805 24.6588 122.066 25.4436 122.353 26.2232C122.453 25.8891 122.714 25.6392 123.137 25.474C122.884 25.408 122.675 25.301 122.51 25.1529C122.824 24.9746 123.137 24.796 123.451 24.6177C123.098 24.5644 122.785 24.4574 122.51 24.2966C122.891 24.169 123.309 24.1333 123.765 24.1896C123.968 23.8451 124.229 23.524 124.549 23.2263C124.66 23.5632 124.869 23.9201 125.176 24.2966C126.235 24.1761 127.124 23.855 127.843 23.3333C127.567 23.043 127.462 22.7219 127.529 22.37C128.257 22.2272 128.989 22.1915 129.725 22.263C130.188 22.415 130.397 22.6646 130.353 23.0122C131.134 22.969 131.866 23.076 132.549 23.3333C131.096 23.3573 129.736 23.6071 128.471 24.0825C129.156 24.2369 129.836 24.3794 130.51 24.5107C130.661 24.3077 130.713 24.0937 130.667 23.8685C131.323 23.8815 131.794 24.0956 132.078 24.5107C132.204 24.078 132.57 23.7925 133.176 23.6544C133.699 23.8685 134.222 24.0825 134.745 24.2966C135.661 23.8811 136.603 23.7383 137.569 23.8685C138.376 23.1528 138.271 22.4749 137.255 21.8348C137.382 21.6325 137.591 21.4898 137.882 21.4067C137.564 21.2955 137.355 21.1171 137.255 20.8715C137.746 20.2709 137.955 19.6287 137.882 18.9449C138.707 18.8183 139.543 18.7469 140.392 18.7309C140.392 19.3017 140.392 19.8725 140.392 20.4434C141.229 20.4434 142.065 20.4434 142.902 20.4434C143.557 19.6032 144.499 18.9253 145.725 18.4098C145.436 17.9729 145.331 17.5091 145.412 17.0183C144.575 17.0183 143.739 17.0183 142.902 17.0183C143.07 15.9851 142.391 15.5569 140.863 15.7339C139.266 15.8053 137.645 15.841 136 15.8409C135.086 16.1375 134.145 16.1018 133.176 15.7339C130.764 15.7963 128.359 15.7963 125.961 15.7339C125.449 15.9312 124.926 16.1095 124.392 16.2691C123.037 16.3759 121.677 16.4116 120.314 16.3761C120.314 16.162 120.314 15.948 120.314 15.7339C114.886 15.7737 109.396 15.8451 103.843 15.948C102.92 15.9005 102.031 15.7578 101.176 15.5198C91.6624 15.3058 82.1462 15.2345 72.6274 15.3058Z" fill="#DAA622"/>
<path fill-rule="evenodd" clip-rule="evenodd" d="M41.5686 32.6453C42.1227 33.2207 42.6457 33.8271 43.1373 34.4648C44.1691 34.6536 45.2151 34.7962 46.2745 34.893C45.5947 35.3569 44.9152 35.8205 44.2353 36.2844C44.294 37.0099 44.2419 37.7234 44.0784 38.4251C43.2643 38.1654 42.48 37.8799 41.7255 37.5688C40.7489 37.9231 39.7553 38.1727 38.7451 38.318C39.1461 37.6641 39.3029 36.9861 39.2157 36.2844C38.5359 35.8205 37.8563 35.3569 37.1765 34.893C38.2475 34.8294 39.2932 34.6866 40.3137 34.4648C40.8615 33.8956 41.28 33.2892 41.5686 32.6453Z" fill="#1B1A17"/>
<path fill-rule="evenodd" clip-rule="evenodd" d="M30.902 18.0887C31.2148 18.0823 31.424 18.1893 31.5294 18.4098C31.3529 18.8646 31.2483 19.3284 31.2157 19.8012C31.702 20.659 32.0157 21.8006 32.1569 23.2263C32.1045 33.4305 32.1569 43.6342 32.3137 53.8379C32.7093 54.8558 33.5984 55.5693 34.9804 55.9786C34.4756 56.228 34.3708 56.5136 34.6667 56.8349C32.6736 56.5095 31.4711 55.6532 31.0588 54.2661C30.902 42.2072 30.8497 30.148 30.902 18.0887Z" fill="#9B2D10"/>
<path fill-rule="evenodd" clip-rule="evenodd" d="M147.294 32.6453C147.698 33.1965 148.116 33.7672 148.549 34.3578C149.551 34.65 150.597 34.8641 151.686 35C151.169 35.4602 150.594 35.8884 149.961 36.2844C149.874 37.0752 149.874 37.8602 149.961 38.6391C149.149 38.2014 148.26 37.8447 147.294 37.5688C146.457 37.8542 145.621 38.1397 144.784 38.4251C144.708 37.6587 144.656 36.8737 144.627 36.0703C144.052 35.678 143.477 35.2854 142.902 34.893C143.994 34.8285 145.039 34.65 146.039 34.3578C146.462 33.7813 146.88 33.2104 147.294 32.6453Z" fill="#1F1E1A"/>
<path fill-rule="evenodd" clip-rule="evenodd" d="M127.843 14.4496C127.843 14.3782 127.843 14.3068 127.843 14.2355C134.536 14.2355 141.229 14.2355 147.922 14.2355C150.454 14.1577 152.963 14.2647 155.451 14.5566C156.899 15.117 157.893 15.9376 158.431 17.0184C158.588 28.435 158.641 39.8521 158.588 51.2691C158.347 51.4325 158.19 51.6465 158.118 51.9113C157.999 51.6026 157.738 51.3886 157.333 51.2691C157.386 39.9946 157.333 28.7206 157.176 17.4465C156.676 16.2936 155.578 15.5444 153.882 15.1988C136 15.0918 118.118 15.0561 100.235 15.0918C118.379 14.9135 136.575 14.8064 154.824 14.7707C145.842 14.4603 136.848 14.3533 127.843 14.4496Z" fill="#9D2B11"/>
<path fill-rule="evenodd" clip-rule="evenodd" d="M34.9804 55.9786C70.1176 55.9786 105.255 55.9786 140.392 55.9786C105.307 56.1214 70.1697 56.2639 34.9804 56.4067C37.5219 56.6916 40.0317 56.9057 42.5098 57.0489C39.8689 57.1136 37.2543 57.0423 34.6667 56.8348C34.3708 56.5135 34.4756 56.228 34.9804 55.9786Z" fill="#9E190C"/>
<path fill-rule="evenodd" clip-rule="evenodd" d="M157.333 51.2691C157.738 51.3886 157.999 51.6026 158.118 51.9113C158.19 51.6465 158.347 51.4324 158.588 51.2691C158.678 52.5865 158.416 53.8709 157.804 55.1223C156.863 56.0698 155.556 56.6762 153.882 56.9419C116.758 57.0489 79.6342 57.0847 42.5098 57.0489C40.0317 56.9057 37.5219 56.6916 34.9804 56.4067C70.1697 56.2639 105.307 56.1214 140.392 55.9786C145.099 56.0143 149.805 55.9786 154.51 55.8716C157.148 54.8511 158.089 53.3171 157.333 51.2691Z" fill="#A33C1C"/>
<path fill-rule="evenodd" clip-rule="evenodd" d="M162.98 56.4067C162.038 57.2294 161.149 58.0857 160.314 58.9755C159.414 60.1129 159.048 61.3258 159.216 62.6147C116.34 62.6504 73.4638 62.6147 30.5882 62.5077C30.2921 61.9256 30.1876 61.3192 30.2745 60.6881C30.5783 61.1391 30.6828 61.6388 30.5882 62.1866C73.2549 62.2223 115.922 62.1866 158.588 62.0795C158.856 60.5271 159.536 59.0644 160.627 57.6911C161.386 57.2056 162.17 56.7775 162.98 56.4067Z" fill="#D0CDBE"/>
<path d="M77.129 43.3091C76.169 43.3091 75.407 43.1051 74.843 42.6971C74.279 42.2891 73.871 41.7131 73.619 40.9691C73.379 40.2131 73.259 39.3251 73.259 38.3051V33.4091C73.259 32.3651 73.379 31.4651 73.619 30.7091C73.859 29.9531 74.279 29.3771 74.879 28.9811C75.491 28.5731 76.331 28.3691 77.399 28.3691C78.395 28.3691 79.187 28.5371 79.775 28.8731C80.363 29.2091 80.783 29.6951 81.035 30.3311C81.299 30.9551 81.431 31.7171 81.431 32.6171V33.3731H78.893V32.5451C78.893 32.0771 78.857 31.6751 78.785 31.3391C78.725 31.0031 78.593 30.7511 78.389 30.5831C78.197 30.4031 77.879 30.3131 77.435 30.3131C76.967 30.3131 76.625 30.4271 76.409 30.6551C76.205 30.8831 76.073 31.1831 76.013 31.5551C75.965 31.9271 75.941 32.3351 75.941 32.7791V38.8811C75.941 39.3851 75.983 39.8231 76.067 40.1951C76.151 40.5671 76.307 40.8551 76.535 41.0591C76.763 41.2511 77.087 41.3471 77.507 41.3471C77.939 41.3471 78.269 41.2391 78.497 41.0231C78.725 40.8071 78.881 40.5071 78.965 40.1231C79.061 39.7391 79.109 39.2831 79.109 38.7551V37.3871H77.543V35.7131H81.503V43.1111H79.793L79.595 41.6711C79.403 42.1511 79.109 42.5471 78.713 42.8591C78.329 43.1591 77.801 43.3091 77.129 43.3091ZM86.5176 43.2731C85.7376 43.2731 85.1016 43.1291 84.6096 42.8411C84.1176 42.5411 83.7516 42.1091 83.5116 41.5451C83.2836 40.9691 83.1696 40.2791 83.1696 39.4751V36.3431C83.1696 35.5151 83.2836 34.8191 83.5116 34.2551C83.7516 33.6911 84.1176 33.2651 84.6096 32.9771C85.1136 32.6891 85.7496 32.5451 86.5176 32.5451C87.3456 32.5451 87.9876 32.7011 88.4436 33.0131C88.9116 33.3251 89.2416 33.7811 89.4336 34.3811C89.6376 34.9691 89.7396 35.6891 89.7396 36.5411V38.0171H85.5996V40.0691C85.5996 40.4051 85.6296 40.6811 85.6896 40.8971C85.7616 41.1131 85.8696 41.2691 86.0136 41.3651C86.1576 41.4611 86.3316 41.5091 86.5356 41.5091C86.7516 41.5091 86.9256 41.4611 87.0576 41.3651C87.1896 41.2571 87.2856 41.1071 87.3456 40.9151C87.4056 40.7111 87.4356 40.4591 87.4356 40.1591V39.2951H89.7216V39.9971C89.7216 41.0531 89.4576 41.8631 88.9296 42.4271C88.4016 42.9911 87.5976 43.2731 86.5176 43.2731ZM85.5996 36.8111H87.4356V35.8211C87.4356 35.4611 87.4056 35.1731 87.3456 34.9571C87.2856 34.7291 87.1896 34.5671 87.0576 34.4711C86.9256 34.3631 86.7396 34.3091 86.4996 34.3091C86.2836 34.3091 86.1096 34.3631 85.9776 34.4711C85.8456 34.5791 85.7496 34.7591 85.6896 35.0111C85.6296 35.2631 85.5996 35.6231 85.5996 36.0911V36.8111ZM91.4008 43.1111V32.7071H93.8488V33.7511C94.2208 33.3911 94.6108 33.1031 95.0188 32.8871C95.4388 32.6591 95.8888 32.5451 96.3688 32.5451C96.8008 32.5451 97.1428 32.6531 97.3948 32.8691C97.6468 33.0731 97.8328 33.3491 97.9528 33.6971C98.0728 34.0451 98.1328 34.4231 98.1328 34.8311V43.1111H95.6848V35.3171C95.6848 35.0051 95.6368 34.7651 95.5408 34.5971C95.4448 34.4291 95.2588 34.3451 94.9828 34.3451C94.8148 34.3451 94.6288 34.3931 94.4248 34.4891C94.2328 34.5851 94.0408 34.7051 93.8488 34.8491V43.1111H91.4008ZM99.9802 43.1111V32.7071H102.428V34.3091C102.788 33.6971 103.148 33.2591 103.508 32.9951C103.868 32.7191 104.264 32.5811 104.696 32.5811C104.768 32.5811 104.828 32.5871 104.876 32.5991C104.936 32.5991 105.002 32.6051 105.074 32.6171V35.1551C104.93 35.0951 104.768 35.0471 104.588 35.0111C104.42 34.9631 104.246 34.9391 104.066 34.9391C103.742 34.9391 103.448 35.0171 103.184 35.1731C102.92 35.3291 102.668 35.5871 102.428 35.9471V43.1111H99.9802ZM109.422 43.2731C108.642 43.2731 108.006 43.1291 107.514 42.8411C107.022 42.5411 106.656 42.1091 106.416 41.5451C106.188 40.9691 106.074 40.2791 106.074 39.4751V36.3431C106.074 35.5151 106.188 34.8191 106.416 34.2551C106.656 33.6911 107.022 33.2651 107.514 32.9771C108.018 32.6891 108.654 32.5451 109.422 32.5451C110.25 32.5451 110.892 32.7011 111.348 33.0131C111.816 33.3251 112.146 33.7811 112.338 34.3811C112.542 34.9691 112.644 35.6891 112.644 36.5411V38.0171H108.504V40.0691C108.504 40.4051 108.534 40.6811 108.594 40.8971C108.666 41.1131 108.774 41.2691 108.918 41.3651C109.062 41.4611 109.236 41.5091 109.44 41.5091C109.656 41.5091 109.83 41.4611 109.962 41.3651C110.094 41.2571 110.19 41.1071 110.25 40.9151C110.31 40.7111 110.34 40.4591 110.34 40.1591V39.2951H112.626V39.9971C112.626 41.0531 112.362 41.8631 111.834 42.4271C111.306 42.9911 110.502 43.2731 109.422 43.2731ZM108.504 36.8111H110.34V35.8211C110.34 35.4611 110.31 35.1731 110.25 34.9571C110.19 34.7291 110.094 34.5671 109.962 34.4711C109.83 34.3631 109.644 34.3091 109.404 34.3091C109.188 34.3091 109.014 34.3631 108.882 34.4711C108.75 34.5791 108.654 34.7591 108.594 35.0111C108.534 35.2631 108.504 35.6231 108.504 36.0911V36.8111Z" fill="#111111"/>
</g>
<defs>
<clipPath id="clip0_160_85">
<rect width="192" height="70" fill="white"/>
</clipPath>
</defs>
</svg>
