<svg width="76" height="75" viewBox="0 0 76 75" fill="none" xmlns="http://www.w3.org/2000/svg">
<path d="M74.9579 22.0563C74.2741 20.2576 71.7552 20.1301 63.5561 22.9201L63.5573 22.9188C63.5486 22.9213 63.5411 22.9238 63.5323 22.9276C62.6785 23.2176 61.741 23.5513 60.7622 23.9063C59.4896 24.3413 58.2733 24.7313 57.0982 25.0926C57.0895 25.0838 57.0795 25.0738 57.0707 25.0663L56.3894 22.9201C56.2444 22.9576 56.1057 22.9888 55.9619 23.0251C55.5906 21.0813 54.1481 13.8864 52.7417 11.8576C50.0678 8.00512 53.0618 5.88137 50.9866 2.38762C49.6841 0.196378 48.4603 -0.91737 46.6364 0.947627C43.6438 4.00637 40.1911 5.30262 37.6372 5.30262C35.0858 5.30262 31.6331 4.00637 28.6405 0.945127C26.8166 -0.91987 25.5928 0.193878 24.2902 2.38512C22.2151 5.87762 25.2078 8.00261 22.5352 11.8551C21.1263 13.8839 19.6863 21.0776 19.315 23.0226C19.1712 22.9863 19.0325 22.9551 18.8887 22.9188L18.2037 25.0663C18.1949 25.0751 18.1862 25.0838 18.1774 25.0926C17.0124 24.7351 15.8073 24.3488 14.5447 23.9176C13.5434 23.5551 12.5884 23.2151 11.7196 22.9201C3.52416 20.1326 1.00403 20.2588 0.320241 22.0576C-0.951076 25.4026 4.70922 37.0801 9.93449 38.5701C9.25446 41.0151 8.88569 43.5888 8.88569 46.25C8.88569 62.1313 21.7551 75 37.6397 75C53.5218 75 66.3887 62.1313 66.3887 46.25C66.3887 43.5888 66.0199 41.0151 65.3437 38.5688C70.5689 37.0826 76.2305 25.4013 74.9579 22.0563ZM37.6397 72.5C23.1639 72.5 11.3858 60.725 11.3858 46.25C11.3858 39.3888 14.0547 33.1526 18.3812 28.4713C19.5012 29.5251 20.5813 30.6276 21.4438 31.6826C27.7892 39.4401 47.4877 39.4401 53.8318 31.6826C54.6943 30.6276 55.7731 29.5251 56.8932 28.4713C61.2197 33.1513 63.8886 39.3888 63.8886 46.25C63.8886 60.725 52.113 72.5 37.6397 72.5Z" fill="#DAA622"/>
<path d="M47.1902 57.42C41.0336 61.9213 34.2045 61.895 28.088 57.42C27.3517 56.8825 26.6879 57.815 27.1867 58.6763C29.0493 61.895 32.8157 64.7613 37.6372 64.7613C42.4612 64.7613 46.2264 61.895 48.089 58.6763C48.5903 57.815 47.9253 56.8825 47.1902 57.42Z" fill="#DAA622"/>
<path d="M31.4081 43.5676C31.4081 40.9238 29.2617 38.7776 26.6166 38.7776C23.9702 38.7776 21.8239 40.9238 21.8239 43.5676C21.8239 46.2163 23.9702 48.3601 26.6166 48.3601C29.2617 48.3601 31.4081 46.2163 31.4081 43.5676Z" fill="#DAA622"/>
<path d="M48.6577 48.3588C51.304 48.3588 53.4492 46.2137 53.4492 43.5675C53.4492 40.9214 51.304 38.7763 48.6577 38.7763C46.0115 38.7763 43.8662 40.9214 43.8662 43.5675C43.8662 46.2137 46.0115 48.3588 48.6577 48.3588Z" fill="#DAA622"/>
</svg>
